<?xml version='1.0' encoding='utf-8'?>
<svg xmlns:xlink="http://www.w3.org/1999/xlink" xmlns="http://www.w3.org/2000/svg" version="1.1" baseProfile="full" width="800" height="600">
  <title>VFPt_cylindrical_magnets_attracting</title>
  <desc>VFPt_cylindrical_magnets_attracting
created with VectorFieldPlot 1.0
http://commons.wikimedia.org/wiki/User:Geek3/VectorFieldPlot

about: http://commons.wikimedia.org/wiki/File:VFPt_cylindrical_magnets_attracting.svg
rights: GNU Free Documentation license,
        Creative Commons Attribution ShareAlike license
  </desc>
  <defs>
    <path id="arrow1" stroke="none" fill="#000000" transform="scale(0.01)" d="M 0.3,0 L -2.2,2.25 L 3.8,0 L -2.2,-2.25 L 0.3,0 Z"/>
  </defs>
  <rect id="background" x="0" y="0" width="800" height="600" fill="#ffffff"/>
  <g id="image" transform="translate(400.0,300.0) scale(100.0,-100.0)">
    <g id="fieldlines" fill="none" stroke="#000000" stroke-width="0.02" stroke-linejoin="round" stroke-linecap="round">
      <g id="fieldline1">
        <path d="M -1.5000,-0.2333 L -1.3009,-0.2343 L -1.1573,-0.2367 L -1.0561,-0.2402 L -0.9814,-0.2447 L -0.9235,-0.2500 L -1.0392,-0.3447 L -1.0898,-0.3834 L -1.1342,-0.4144 L -1.1753,-0.4403 L -1.2147,-0.4622 L -1.2529,-0.4808 L -1.2903,-0.4962 L -1.3273,-0.5089 L -1.3639,-0.5188 L -1.4005,-0.5262 L -1.4369,-0.5311 L -1.4734,-0.5334 L -1.5100,-0.5333 L -1.5468,-0.5307 L -1.5838,-0.5256 L -1.6212,-0.5180 L -1.6590,-0.5076 L -1.6973,-0.4945 L -1.7364,-0.4785 L -1.7764,-0.4594 L -1.8178,-0.4368 L -1.8611,-0.4101 L -1.9077,-0.3784 L -1.9609,-0.3389 L -2.0730,-0.2500 L -2.0150,-0.2447 L -1.9404,-0.2403 L -1.8396,-0.2368 L -1.6968,-0.2344 L -1.5000,-0.2333 Z"/>
        <g id="arrows1">
          <use xlink:href="#arrow1" transform="translate(-1.4953,-0.5327) rotate(177.95) scale(2.0)"/>
        </g>
      </g>
      <g id="fieldline2">
        <path d="M -1.5000,-0.2000 L -1.2796,-0.2011 L -1.1307,-0.2038 L -1.0304,-0.2076 L -0.9581,-0.2125 L -0.9033,-0.2183 L -0.8603,-0.2250 L -0.8261,-0.2326 L -0.7987,-0.2409 L -0.7764,-0.2500 L -0.7863,-0.2698 L -0.7995,-0.3032 L -0.8238,-0.3756 L -0.8602,-0.4857 L -0.8859,-0.5566 L -0.9102,-0.6169 L -0.9342,-0.6702 L -0.9585,-0.7182 L -0.9832,-0.7618 L -1.0085,-0.8016 L -1.0345,-0.8380 L -1.0612,-0.8713 L -1.0887,-0.9016 L -1.1170,-0.9292 L -1.1460,-0.9541 L -1.1758,-0.9764 L -1.2063,-0.9963 L -1.2374,-1.0136 L -1.2693,-1.0285 L -1.3017,-1.0410 L -1.3348,-1.0511 L -1.3684,-1.0587 L -1.4025,-1.0640 L -1.4369,-1.0667 L -1.4718,-1.0671 L -1.5069,-1.0649 L -1.5422,-1.0602 L -1.5776,-1.0531 L -1.6131,-1.0433 L -1.6485,-1.0310 L -1.6837,-1.0161 L -1.7187,-0.9986 L -1.7534,-0.9785 L -1.7876,-0.9557 L -1.8212,-0.9303 L -1.8543,-0.9022 L -1.8866,-0.8714 L -1.9182,-0.8379 L -1.9489,-0.8016 L -1.9788,-0.7624 L -2.0077,-0.7203 L -2.0358,-0.6750 L -2.0631,-0.6261 L -2.0897,-0.5732 L -2.1162,-0.5149 L -2.1436,-0.4481 L -2.1965,-0.3070 L -2.2116,-0.2706 L -2.2223,-0.2500 L -2.1997,-0.2409 L -2.1721,-0.2326 L -2.1378,-0.2251 L -2.0947,-0.2184 L -2.0398,-0.2126 L -1.9674,-0.2077 L -1.8672,-0.2039 L -1.7190,-0.2012 L -1.5000,-0.2000 Z"/>
        <g id="arrows2">
          <use xlink:href="#arrow1" transform="translate(-1.4827,-1.0653) rotate(175.68) scale(2.0)"/>
        </g>
      </g>
      <g id="fieldline3">
        <path d="M -1.5000,-0.1667 L -1.2637,-0.1678 L -1.1123,-0.1705 L -1.0133,-0.1743 L -0.9430,-0.1792 L -0.8901,-0.1850 L -0.8490,-0.1918 L -0.8165,-0.1995 L -0.7907,-0.2079 L -0.7707,-0.2168 L -0.7558,-0.2259 L -0.7452,-0.2349 L -0.7379,-0.2443 L -0.7317,-0.2570 L -0.7244,-0.2793 L -0.7145,-0.3211 L -0.6999,-0.3973 L -0.6758,-0.5424 L -0.6118,-0.9561 L -0.5887,-1.1161 L -0.5758,-1.2205 L -0.5681,-1.3017 L -0.5639,-1.3694 L -0.5627,-1.4284 L -0.5639,-1.4808 L -0.5675,-1.5281 L -0.5733,-1.5714 L -0.5811,-1.6115 L -0.5909,-1.6490 L -0.6026,-1.6842 L -0.6164,-1.7176 L -0.6322,-1.7491 L -0.6500,-1.7792 L -0.6700,-1.8078 L -0.6920,-1.8349 L -0.7162,-1.8607 L -0.7426,-1.8851 L -0.7711,-1.9080 L -0.8018,-1.9293 L -0.8346,-1.9490 L -0.8694,-1.9669 L -0.9061,-1.9829 L -0.9447,-1.9968 L -0.9848,-2.0087 L -1.0265,-2.0183 L -1.0695,-2.0256 L -1.1136,-2.0304 L -1.1587,-2.0329 L -1.2047,-2.0328 L -1.2512,-2.0301 L -1.2982,-2.0248 L -1.3456,-2.0170 L -1.3931,-2.0065 L -1.4405,-1.9935 L -1.4879,-1.9778 L -1.5349,-1.9595 L -1.5816,-1.9387 L -1.6276,-1.9153 L -1.6730,-1.8893 L -1.7176,-1.8610 L -1.7613,-1.8301 L -1.8039,-1.7969 L -1.8454,-1.7613 L -1.8856,-1.7235 L -1.9245,-1.6834 L -1.9620,-1.6411 L -1.9979,-1.5968 L -2.0321,-1.5504 L -2.0647,-1.5020 L -2.0955,-1.4517 L -2.1244,-1.3995 L -2.1514,-1.3456 L -2.1764,-1.2900 L -2.1993,-1.2327 L -2.2201,-1.1738 L -2.2387,-1.1134 L -2.2552,-1.0516 L -2.2693,-0.9882 L -2.2812,-0.9234 L -2.2907,-0.8573 L -2.2979,-0.7897 L -2.3026,-0.7207 L -2.3049,-0.6504 L -2.3046,-0.5788 L -2.3018,-0.5066 L -2.2965,-0.4351 L -2.2891,-0.3684 L -2.2808,-0.3140 L -2.2732,-0.2774 L -2.2669,-0.2564 L -2.2611,-0.2443 L -2.2540,-0.2351 L -2.2435,-0.2262 L -2.2285,-0.2171 L -2.2085,-0.2082 L -2.1827,-0.1998 L -2.1501,-0.1921 L -2.1090,-0.1853 L -2.0561,-0.1794 L -1.9857,-0.1745 L -1.8868,-0.1706 L -1.7358,-0.1678 L -1.5000,-0.1667 Z"/>
        <g id="arrows3">
          <use xlink:href="#arrow1" transform="translate(-0.6079,-0.9829) rotate(-81.80) scale(2.0)"/>
          <use xlink:href="#arrow1" transform="translate(-1.2811,-2.0262) rotate(172.26) scale(2.0)"/>
          <use xlink:href="#arrow1" transform="translate(-2.2684,-0.9895) rotate(101.12) scale(2.0)"/>
        </g>
      </g>
      <g id="fieldline4">
        <path d="M -2.4388,-3.0100 L -2.4737,-2.9254 L -2.5063,-2.8398 L -2.5365,-2.7533 L -2.5645,-2.6660 L -2.5901,-2.5781 L -2.6132,-2.4897 L -2.6340,-2.4009 L -2.6523,-2.3117 L -2.6681,-2.2224 L -2.6814,-2.1329 L -2.6923,-2.0435 L -2.7007,-1.9541 L -2.7066,-1.8649 L -2.7101,-1.7760 L -2.7110,-1.6874 L -2.7095,-1.5992 L -2.7056,-1.5114 L -2.6992,-1.4242 L -2.6905,-1.3376 L -2.6793,-1.2517 L -2.6657,-1.1664 L -2.6498,-1.0819 L -2.6315,-0.9983 L -2.6109,-0.9155 L -2.5881,-0.8338 L -2.5630,-0.7532 L -2.5358,-0.6742 L -2.5069,-0.5974 L -2.4765,-0.5236 L -2.4455,-0.4547 L -2.4151,-0.3929 L -2.3870,-0.3406 L -2.3618,-0.2986 L -2.3399,-0.2661 L -2.3206,-0.2415 L -2.3028,-0.2224 L -2.2854,-0.2072 L -2.2673,-0.1946 L -2.2472,-0.1836 L -2.2239,-0.1739 L -2.1962,-0.1652 L -2.1629,-0.1576 L -2.1220,-0.1510 L -2.0700,-0.1453 L -2.0010,-0.1407 L -1.9032,-0.1370 L -1.7504,-0.1345 L -1.5000,-0.1333 L -1.2467,-0.1344 L -1.0933,-0.1370 L -0.9954,-0.1407 L -0.9264,-0.1454 L -0.8745,-0.1511 L -0.8337,-0.1579 L -0.8005,-0.1657 L -0.7729,-0.1745 L -0.7495,-0.1845 L -0.7291,-0.1958 L -0.7105,-0.2091 L -0.6922,-0.2253 L -0.6727,-0.2463 L -0.6497,-0.2751 L -0.6197,-0.3177 L -0.5601,-0.4095 L -0.5042,-0.4953 L -0.4630,-0.5545 L -0.4260,-0.6034 L -0.3913,-0.6455 L -0.3578,-0.6823 L -0.3250,-0.7146 L -0.2928,-0.7430 L -0.2610,-0.7678 L -0.2294,-0.7893 L -0.1980,-0.8077 L -0.1667,-0.8232 L -0.1356,-0.8359 L -0.1045,-0.8458 L -0.0735,-0.8532 L -0.0426,-0.8579 L -0.0116,-0.8601 L 0.0192,-0.8598 L 0.0502,-0.8570 L 0.0811,-0.8516 L 0.1121,-0.8436 L 0.1432,-0.8330 L 0.1744,-0.8197 L 0.2057,-0.8035 L 0.2371,-0.7843 L 0.2688,-0.7620 L 0.3007,-0.7363 L 0.3330,-0.7070 L 0.3659,-0.6736 L 0.3997,-0.6356 L 0.4349,-0.5920 L 0.4726,-0.5410 L 0.5159,-0.4778 L 0.5951,-0.3550 L 0.6343,-0.2964 L 0.6605,-0.2610 L 0.6817,-0.2362 L 0.7004,-0.2176 L 0.7187,-0.2029 L 0.7380,-0.1906 L 0.7595,-0.1799 L 0.7847,-0.1704 L 0.8146,-0.1621 L 0.8510,-0.1547 L 0.8964,-0.1484 L 0.9551,-0.1431 L 1.0352,-0.1389 L 1.1539,-0.1357 L 1.3477,-0.1337 L 1.6267,-0.1336 L 1.8309,-0.1355 L 1.9548,-0.1387 L 2.0376,-0.1428 L 2.0979,-0.1480 L 2.1442,-0.1543 L 2.1813,-0.1615 L 2.2116,-0.1698 L 2.2371,-0.1791 L 2.2588,-0.1896 L 2.2779,-0.2016 L 2.2956,-0.2157 L 2.3132,-0.2332 L 2.3320,-0.2556 L 2.3530,-0.2851 L 2.3772,-0.3238 L 2.4047,-0.3728 L 2.4348,-0.4323 L 2.4661,-0.4998 L 2.4971,-0.5730 L 2.5269,-0.6499 L 2.5550,-0.7292 L 2.5810,-0.8103 L 2.6048,-0.8926 L 2.6262,-0.9761 L 2.6453,-1.0605 L 2.6620,-1.1458 L 2.6763,-1.2318 L 2.6882,-1.3186 L 2.6976,-1.4061 L 2.7045,-1.4942 L 2.7090,-1.5828 L 2.7109,-1.6720 L 2.7104,-1.7615 L 2.7073,-1.8515 L 2.7017,-1.9417 L 2.6935,-2.0321 L 2.6828,-2.1226 L 2.6696,-2.2131 L 2.6538,-2.3035 L 2.6356,-2.3937 L 2.6148,-2.4836 L 2.5915,-2.5730 L 2.5657,-2.6620 L 2.5376,-2.7503 L 2.5070,-2.8378 L 2.4741,-2.9244 L 2.4388,-3.0100"/>
        <g id="arrows4">
          <use xlink:href="#arrow1" transform="translate(-2.6623,-2.2543) rotate(99.67) scale(2.0)"/>
          <use xlink:href="#arrow1" transform="translate(-2.5431,-0.6962) rotate(70.41) scale(2.0)"/>
          <use xlink:href="#arrow1" transform="translate(-1.2751,-0.1344) rotate(-0.46) scale(2.0)"/>
          <use xlink:href="#arrow1" transform="translate(-0.0000,-0.8587) rotate(1.88) scale(2.0)"/>
          <use xlink:href="#arrow1" transform="translate(1.2751,-0.1344) rotate(0.59) scale(2.0)"/>
          <use xlink:href="#arrow1" transform="translate(2.5432,-0.6962) rotate(-70.86) scale(2.0)"/>
          <use xlink:href="#arrow1" transform="translate(2.6624,-2.2543) rotate(-99.89) scale(2.0)"/>
        </g>
      </g>
      <g id="fieldline5">
        <path d="M -3.8731,-3.0100 L -3.8424,-2.8812 L -3.8093,-2.7532 L -3.7738,-2.6262 L -3.7360,-2.5004 L -3.6960,-2.3758 L -3.6538,-2.2526 L -3.6095,-2.1310 L -3.5631,-2.0112 L -3.5148,-1.8932 L -3.4646,-1.7773 L -3.4125,-1.6635 L -3.3588,-1.5520 L -3.3034,-1.4429 L -3.2465,-1.3363 L -3.1881,-1.2322 L -3.1284,-1.1309 L -3.0673,-1.0323 L -3.0051,-0.9366 L -2.9419,-0.8440 L -2.8778,-0.7545 L -2.8132,-0.6685 L -2.7484,-0.5865 L -2.6843,-0.5093 L -2.6220,-0.4380 L -2.5630,-0.3742 L -2.5090,-0.3194 L -2.4615,-0.2743 L -2.4201,-0.2383 L -2.3840,-0.2099 L -2.3517,-0.1874 L -2.3219,-0.1696 L -2.2929,-0.1552 L -2.2635,-0.1433 L -2.2318,-0.1333 L -2.1962,-0.1249 L -2.1546,-0.1179 L -2.1033,-0.1121 L -2.0363,-0.1074 L -1.9410,-0.1038 L -1.7877,-0.1012 L -1.5160,-0.1000 L -1.2341,-0.1009 L -1.0716,-0.1033 L -0.9718,-0.1068 L -0.9023,-0.1114 L -0.8496,-0.1171 L -0.8070,-0.1239 L -0.7706,-0.1322 L -0.7383,-0.1420 L -0.7081,-0.1538 L -0.6782,-0.1683 L -0.6466,-0.1865 L -0.6109,-0.2103 L -0.5653,-0.2442 L -0.4703,-0.3203 L -0.4045,-0.3717 L -0.3550,-0.4075 L -0.3110,-0.4365 L -0.2701,-0.4605 L -0.2313,-0.4805 L -0.1939,-0.4970 L -0.1575,-0.5103 L -0.1218,-0.5208 L -0.0866,-0.5285 L -0.0518,-0.5336 L -0.0172,-0.5361 L 0.0174,-0.5361 L 0.0520,-0.5335 L 0.0869,-0.5284 L 0.1220,-0.5207 L 0.1577,-0.5102 L 0.1941,-0.4968 L 0.2315,-0.4803 L 0.2704,-0.4603 L 0.3113,-0.4363 L 0.3554,-0.4073 L 0.4049,-0.3714 L 0.4709,-0.3198 L 0.5655,-0.2441 L 0.6110,-0.2102 L 0.6467,-0.1864 L 0.6783,-0.1682 L 0.7082,-0.1538 L 0.7384,-0.1420 L 0.7708,-0.1322 L 0.8072,-0.1239 L 0.8498,-0.1171 L 0.9025,-0.1114 L 0.9721,-0.1068 L 1.0721,-0.1033 L 1.2349,-0.1009 L 1.5172,-0.1000 L 1.7885,-0.1012 L 1.9415,-0.1038 L 2.0366,-0.1074 L 2.1035,-0.1121 L 2.1547,-0.1179 L 2.1963,-0.1250 L 2.2319,-0.1334 L 2.2635,-0.1433 L 2.2930,-0.1552 L 2.3219,-0.1696 L 2.3517,-0.1874 L 2.3840,-0.2099 L 2.4201,-0.2383 L 2.4615,-0.2743 L 2.5090,-0.3194 L 2.5630,-0.3742 L 2.6220,-0.4380 L 2.6843,-0.5092 L 2.7484,-0.5865 L 2.8132,-0.6685 L 2.8778,-0.7545 L 2.9419,-0.8440 L 3.0051,-0.9366 L 3.0673,-1.0323 L 3.1284,-1.1309 L 3.1881,-1.2322 L 3.2465,-1.3363 L 3.3034,-1.4429 L 3.3588,-1.5520 L 3.4125,-1.6635 L 3.4646,-1.7773 L 3.5148,-1.8932 L 3.5631,-2.0112 L 3.6095,-2.1310 L 3.6538,-2.2526 L 3.6960,-2.3758 L 3.7360,-2.5004 L 3.7738,-2.6262 L 3.8093,-2.7532 L 3.8424,-2.8812 L 3.8731,-3.0100"/>
        <g id="arrows5">
          <use xlink:href="#arrow1" transform="translate(-3.6431,-2.2232) rotate(69.97) scale(2.0)"/>
          <use xlink:href="#arrow1" transform="translate(-2.8901,-0.7719) rotate(53.87) scale(2.0)"/>
          <use xlink:href="#arrow1" transform="translate(-1.5235,-0.1001) rotate(-0.01) scale(2.0)"/>
          <use xlink:href="#arrow1" transform="translate(-0.0000,-0.5351) rotate(1.62) scale(2.0)"/>
          <use xlink:href="#arrow1" transform="translate(1.5235,-0.1001) rotate(-0.16) scale(2.0)"/>
          <use xlink:href="#arrow1" transform="translate(2.8902,-0.7718) rotate(-54.39) scale(2.0)"/>
          <use xlink:href="#arrow1" transform="translate(3.6430,-2.2232) rotate(-70.25) scale(2.0)"/>
        </g>
      </g>
      <g id="fieldline6">
        <path d="M -4.0100,-1.2821 L -3.8855,-1.1721 L -3.7616,-1.0659 L -3.6384,-0.9636 L -3.5163,-0.8653 L -3.3955,-0.7712 L -3.2763,-0.6815 L -3.1591,-0.5963 L -3.0444,-0.5159 L -2.9333,-0.4410 L -2.8271,-0.3723 L -2.7280,-0.3110 L -2.6383,-0.2583 L -2.5604,-0.2151 L -2.4938,-0.1808 L -2.4370,-0.1540 L -2.3875,-0.1332 L -2.3430,-0.1170 L -2.3010,-0.1044 L -2.2592,-0.0944 L -2.2148,-0.0864 L -2.1647,-0.0800 L -2.1030,-0.0750 L -2.0193,-0.0712 L -1.8881,-0.0684 L -1.6397,-0.0668 L -1.2938,-0.0670 L -1.0820,-0.0688 L -0.9629,-0.0717 L -0.8841,-0.0757 L -0.8248,-0.0809 L -0.7754,-0.0876 L -0.7310,-0.0960 L -0.6882,-0.1067 L -0.6438,-0.1204 L -0.5938,-0.1388 L -0.5274,-0.1664 L -0.3907,-0.2270 L -0.3205,-0.2561 L -0.2648,-0.2767 L -0.2151,-0.2926 L -0.1689,-0.3049 L -0.1250,-0.3141 L -0.0827,-0.3204 L -0.0412,-0.3242 L -0.0001,-0.3255 L 0.0409,-0.3242 L 0.0824,-0.3205 L 0.1248,-0.3141 L 0.1687,-0.3050 L 0.2148,-0.2927 L 0.2646,-0.2768 L 0.3202,-0.2562 L 0.3903,-0.2272 L 0.5270,-0.1666 L 0.5935,-0.1389 L 0.6435,-0.1205 L 0.6880,-0.1067 L 0.7308,-0.0961 L 0.7751,-0.0876 L 0.8244,-0.0810 L 0.8836,-0.0757 L 0.9621,-0.0717 L 1.0807,-0.0688 L 1.2915,-0.0670 L 1.6380,-0.0668 L 1.8872,-0.0684 L 2.0185,-0.0712 L 2.1024,-0.0750 L 2.1641,-0.0800 L 2.2145,-0.0863 L 2.2590,-0.0943 L 2.3009,-0.1043 L 2.3429,-0.1170 L 2.3873,-0.1331 L 2.4368,-0.1539 L 2.4936,-0.1807 L 2.5601,-0.2150 L 2.6383,-0.2583 L 2.7280,-0.3110 L 2.8271,-0.3724 L 2.9333,-0.4410 L 3.0445,-0.5159 L 3.1591,-0.5963 L 3.2763,-0.6815 L 3.3956,-0.7712 L 3.5164,-0.8653 L 3.6385,-0.9636 L 3.7616,-1.0659 L 3.8855,-1.1721 L 4.0100,-1.2821"/>
        <g id="arrows6">
          <use xlink:href="#arrow1" transform="translate(-3.3260,-0.7189) rotate(36.97) scale(2.0)"/>
          <use xlink:href="#arrow1" transform="translate(-1.7309,-0.0674) rotate(0.37) scale(2.0)"/>
          <use xlink:href="#arrow1" transform="translate(-0.0000,-0.3244) rotate(1.07) scale(2.0)"/>
          <use xlink:href="#arrow1" transform="translate(1.7309,-0.0674) rotate(-0.37) scale(2.0)"/>
          <use xlink:href="#arrow1" transform="translate(3.3260,-0.7189) rotate(-36.97) scale(2.0)"/>
        </g>
      </g>
      <g id="fieldline7">
        <path d="M -4.0100,-0.5498 L -3.7880,-0.4721 L -3.5730,-0.3994 L -3.3663,-0.3321 L -3.1694,-0.2706 L -2.9851,-0.2155 L -2.8183,-0.1681 L -2.6757,-0.1299 L -2.5592,-0.1010 L -2.4661,-0.0801 L -2.3897,-0.0653 L -2.3227,-0.0547 L -2.2589,-0.0471 L -2.1909,-0.0416 L -2.1079,-0.0378 L -1.9838,-0.0351 L -1.7279,-0.0336 L -1.2380,-0.0336 L -1.0043,-0.0352 L -0.8843,-0.0379 L -0.8026,-0.0419 L -0.7345,-0.0476 L -0.6689,-0.0555 L -0.5968,-0.0669 L -0.4969,-0.0859 L -0.3351,-0.1184 L -0.2502,-0.1334 L -0.1800,-0.1434 L -0.1170,-0.1501 L -0.0578,-0.1539 L -0.0000,-0.1551 L 0.0577,-0.1539 L 0.1170,-0.1501 L 0.1800,-0.1434 L 0.2502,-0.1334 L 0.3350,-0.1184 L 0.4968,-0.0859 L 0.5967,-0.0669 L 0.6688,-0.0555 L 0.7344,-0.0476 L 0.8026,-0.0419 L 0.8842,-0.0379 L 1.0042,-0.0352 L 1.2379,-0.0336 L 1.7279,-0.0336 L 1.9837,-0.0351 L 2.1079,-0.0378 L 2.1909,-0.0416 L 2.2589,-0.0471 L 2.3227,-0.0547 L 2.3897,-0.0653 L 2.4660,-0.0801 L 2.5592,-0.1010 L 2.6757,-0.1299 L 2.8183,-0.1681 L 2.9851,-0.2155 L 3.1694,-0.2706 L 3.3663,-0.3321 L 3.5730,-0.3994 L 3.7880,-0.4721 L 4.0100,-0.5498"/>
        <g id="arrows7">
          <use xlink:href="#arrow1" transform="translate(-3.2335,-0.2906) rotate(17.36) scale(2.0)"/>
          <use xlink:href="#arrow1" transform="translate(-1.6280,-0.0336) rotate(-0.01) scale(2.0)"/>
          <use xlink:href="#arrow1" transform="translate(-0.0000,-0.1545) rotate(0.48) scale(2.0)"/>
          <use xlink:href="#arrow1" transform="translate(1.6280,-0.0336) rotate(0.01) scale(2.0)"/>
          <use xlink:href="#arrow1" transform="translate(3.2335,-0.2906) rotate(-17.36) scale(2.0)"/>
        </g>
      </g>
      <g id="fieldline8">
        <path d="M -4.0100,0.0000 L 4.0100,0.0000"/>
        <g id="arrows8">
          <use xlink:href="#arrow1" transform="translate(-3.2080,0.0000) rotate(-0.00) scale(2.0)"/>
          <use xlink:href="#arrow1" transform="translate(-1.6040,0.0000) rotate(-0.00) scale(2.0)"/>
          <use xlink:href="#arrow1" transform="translate(0.0000,0.0000) rotate(-0.00) scale(2.0)"/>
          <use xlink:href="#arrow1" transform="translate(1.6040,0.0000) rotate(-0.00) scale(2.0)"/>
          <use xlink:href="#arrow1" transform="translate(3.2080,0.0000) rotate(-0.00) scale(2.0)"/>
        </g>
      </g>
      <g id="fieldline9">
        <path d="M -4.0100,0.5498 L -3.7880,0.4721 L -3.5730,0.3994 L -3.3663,0.3321 L -3.1694,0.2706 L -2.9851,0.2155 L -2.8183,0.1681 L -2.6757,0.1299 L -2.5592,0.1010 L -2.4661,0.0801 L -2.3897,0.0653 L -2.3227,0.0547 L -2.2589,0.0471 L -2.1909,0.0416 L -2.1079,0.0378 L -1.9838,0.0351 L -1.7279,0.0336 L -1.2380,0.0336 L -1.0043,0.0352 L -0.8843,0.0379 L -0.8026,0.0419 L -0.7345,0.0476 L -0.6689,0.0555 L -0.5968,0.0669 L -0.4969,0.0859 L -0.3351,0.1184 L -0.2502,0.1334 L -0.1800,0.1434 L -0.1170,0.1501 L -0.0578,0.1539 L -0.0000,0.1551 L 0.0577,0.1539 L 0.1170,0.1501 L 0.1800,0.1434 L 0.2502,0.1334 L 0.3350,0.1184 L 0.4968,0.0859 L 0.5967,0.0669 L 0.6688,0.0555 L 0.7344,0.0476 L 0.8026,0.0419 L 0.8842,0.0379 L 1.0042,0.0352 L 1.2379,0.0336 L 1.7279,0.0336 L 1.9837,0.0351 L 2.1079,0.0378 L 2.1909,0.0416 L 2.2589,0.0471 L 2.3227,0.0547 L 2.3897,0.0653 L 2.4660,0.0801 L 2.5592,0.1010 L 2.6757,0.1299 L 2.8183,0.1681 L 2.9851,0.2155 L 3.1694,0.2706 L 3.3663,0.3321 L 3.5730,0.3994 L 3.7880,0.4721 L 4.0100,0.5498"/>
        <g id="arrows9">
          <use xlink:href="#arrow1" transform="translate(-3.2335,0.2906) rotate(-17.36) scale(2.0)"/>
          <use xlink:href="#arrow1" transform="translate(-1.6280,0.0336) rotate(0.01) scale(2.0)"/>
          <use xlink:href="#arrow1" transform="translate(-0.0000,0.1545) rotate(-0.48) scale(2.0)"/>
          <use xlink:href="#arrow1" transform="translate(1.6280,0.0336) rotate(-0.01) scale(2.0)"/>
          <use xlink:href="#arrow1" transform="translate(3.2335,0.2906) rotate(17.36) scale(2.0)"/>
        </g>
      </g>
      <g id="fieldline10">
        <path d="M -4.0100,1.2821 L -3.8855,1.1721 L -3.7616,1.0659 L -3.6384,0.9636 L -3.5163,0.8653 L -3.3955,0.7712 L -3.2763,0.6815 L -3.1591,0.5963 L -3.0444,0.5159 L -2.9333,0.4410 L -2.8271,0.3723 L -2.7280,0.3110 L -2.6383,0.2583 L -2.5604,0.2151 L -2.4938,0.1808 L -2.4370,0.1540 L -2.3875,0.1332 L -2.3430,0.1170 L -2.3010,0.1044 L -2.2592,0.0944 L -2.2148,0.0864 L -2.1647,0.0800 L -2.1030,0.0750 L -2.0193,0.0712 L -1.8881,0.0684 L -1.6397,0.0668 L -1.2938,0.0670 L -1.0820,0.0688 L -0.9629,0.0717 L -0.8841,0.0757 L -0.8248,0.0809 L -0.7754,0.0876 L -0.7310,0.0960 L -0.6882,0.1067 L -0.6438,0.1204 L -0.5938,0.1388 L -0.5274,0.1664 L -0.3907,0.2270 L -0.3205,0.2561 L -0.2648,0.2767 L -0.2151,0.2926 L -0.1689,0.3049 L -0.1250,0.3141 L -0.0827,0.3204 L -0.0412,0.3242 L -0.0001,0.3255 L 0.0409,0.3242 L 0.0824,0.3205 L 0.1248,0.3141 L 0.1687,0.3050 L 0.2148,0.2927 L 0.2646,0.2768 L 0.3202,0.2562 L 0.3903,0.2272 L 0.5270,0.1666 L 0.5935,0.1389 L 0.6435,0.1205 L 0.6880,0.1067 L 0.7308,0.0961 L 0.7751,0.0876 L 0.8244,0.0810 L 0.8836,0.0757 L 0.9621,0.0717 L 1.0807,0.0688 L 1.2915,0.0670 L 1.6380,0.0668 L 1.8872,0.0684 L 2.0185,0.0712 L 2.1024,0.0750 L 2.1641,0.0800 L 2.2145,0.0863 L 2.2590,0.0943 L 2.3009,0.1043 L 2.3429,0.1170 L 2.3873,0.1331 L 2.4368,0.1539 L 2.4936,0.1807 L 2.5601,0.2150 L 2.6383,0.2583 L 2.7280,0.3110 L 2.8271,0.3724 L 2.9333,0.4410 L 3.0445,0.5159 L 3.1591,0.5963 L 3.2763,0.6815 L 3.3956,0.7712 L 3.5164,0.8653 L 3.6385,0.9636 L 3.7616,1.0659 L 3.8855,1.1721 L 4.0100,1.2821"/>
        <g id="arrows10">
          <use xlink:href="#arrow1" transform="translate(-3.3260,0.7189) rotate(-36.97) scale(2.0)"/>
          <use xlink:href="#arrow1" transform="translate(-1.7309,0.0674) rotate(-0.37) scale(2.0)"/>
          <use xlink:href="#arrow1" transform="translate(-0.0000,0.3244) rotate(-1.07) scale(2.0)"/>
          <use xlink:href="#arrow1" transform="translate(1.7309,0.0674) rotate(0.37) scale(2.0)"/>
          <use xlink:href="#arrow1" transform="translate(3.3260,0.7189) rotate(36.97) scale(2.0)"/>
        </g>
      </g>
      <g id="fieldline11">
        <path d="M -3.8731,3.0100 L -3.8424,2.8812 L -3.8093,2.7532 L -3.7738,2.6262 L -3.7360,2.5004 L -3.6960,2.3758 L -3.6538,2.2526 L -3.6095,2.1310 L -3.5631,2.0112 L -3.5148,1.8932 L -3.4646,1.7773 L -3.4125,1.6635 L -3.3588,1.5520 L -3.3034,1.4429 L -3.2465,1.3363 L -3.1881,1.2322 L -3.1284,1.1309 L -3.0673,1.0323 L -3.0051,0.9366 L -2.9419,0.8440 L -2.8778,0.7545 L -2.8132,0.6685 L -2.7484,0.5865 L -2.6843,0.5093 L -2.6220,0.4380 L -2.5630,0.3742 L -2.5090,0.3194 L -2.4615,0.2743 L -2.4201,0.2383 L -2.3840,0.2099 L -2.3517,0.1874 L -2.3219,0.1696 L -2.2929,0.1552 L -2.2635,0.1433 L -2.2318,0.1333 L -2.1962,0.1249 L -2.1546,0.1179 L -2.1033,0.1121 L -2.0363,0.1074 L -1.9410,0.1038 L -1.7877,0.1012 L -1.5160,0.1000 L -1.2341,0.1009 L -1.0716,0.1033 L -0.9718,0.1068 L -0.9023,0.1114 L -0.8496,0.1171 L -0.8070,0.1239 L -0.7706,0.1322 L -0.7383,0.1420 L -0.7081,0.1538 L -0.6782,0.1683 L -0.6466,0.1865 L -0.6109,0.2103 L -0.5653,0.2442 L -0.4703,0.3203 L -0.4045,0.3717 L -0.3550,0.4075 L -0.3110,0.4365 L -0.2701,0.4605 L -0.2313,0.4805 L -0.1939,0.4970 L -0.1575,0.5103 L -0.1218,0.5208 L -0.0866,0.5285 L -0.0518,0.5336 L -0.0172,0.5361 L 0.0174,0.5361 L 0.0520,0.5335 L 0.0869,0.5284 L 0.1220,0.5207 L 0.1577,0.5102 L 0.1941,0.4968 L 0.2315,0.4803 L 0.2704,0.4603 L 0.3113,0.4363 L 0.3554,0.4073 L 0.4049,0.3714 L 0.4709,0.3198 L 0.5655,0.2441 L 0.6110,0.2102 L 0.6467,0.1864 L 0.6783,0.1682 L 0.7082,0.1538 L 0.7384,0.1420 L 0.7708,0.1322 L 0.8072,0.1239 L 0.8498,0.1171 L 0.9025,0.1114 L 0.9721,0.1068 L 1.0721,0.1033 L 1.2349,0.1009 L 1.5172,0.1000 L 1.7885,0.1012 L 1.9415,0.1038 L 2.0366,0.1074 L 2.1035,0.1121 L 2.1547,0.1179 L 2.1963,0.1250 L 2.2319,0.1334 L 2.2635,0.1433 L 2.2930,0.1552 L 2.3219,0.1696 L 2.3517,0.1874 L 2.3840,0.2099 L 2.4201,0.2383 L 2.4615,0.2743 L 2.5090,0.3194 L 2.5630,0.3742 L 2.6220,0.4380 L 2.6843,0.5092 L 2.7484,0.5865 L 2.8132,0.6685 L 2.8778,0.7545 L 2.9419,0.8440 L 3.0051,0.9366 L 3.0673,1.0323 L 3.1284,1.1309 L 3.1881,1.2322 L 3.2465,1.3363 L 3.3034,1.4429 L 3.3588,1.5520 L 3.4125,1.6635 L 3.4646,1.7773 L 3.5148,1.8932 L 3.5631,2.0112 L 3.6095,2.1310 L 3.6538,2.2526 L 3.6960,2.3758 L 3.7360,2.5004 L 3.7738,2.6262 L 3.8093,2.7532 L 3.8424,2.8812 L 3.8731,3.0100"/>
        <g id="arrows11">
          <use xlink:href="#arrow1" transform="translate(-3.6431,2.2232) rotate(-69.97) scale(2.0)"/>
          <use xlink:href="#arrow1" transform="translate(-2.8901,0.7719) rotate(-53.87) scale(2.0)"/>
          <use xlink:href="#arrow1" transform="translate(-1.5235,0.1001) rotate(0.01) scale(2.0)"/>
          <use xlink:href="#arrow1" transform="translate(-0.0000,0.5351) rotate(-1.62) scale(2.0)"/>
          <use xlink:href="#arrow1" transform="translate(1.5235,0.1001) rotate(0.16) scale(2.0)"/>
          <use xlink:href="#arrow1" transform="translate(2.8902,0.7718) rotate(54.39) scale(2.0)"/>
          <use xlink:href="#arrow1" transform="translate(3.6430,2.2232) rotate(70.25) scale(2.0)"/>
        </g>
      </g>
      <g id="fieldline12">
        <path d="M -2.4388,3.0100 L -2.4737,2.9254 L -2.5063,2.8398 L -2.5365,2.7533 L -2.5645,2.6660 L -2.5901,2.5781 L -2.6132,2.4897 L -2.6340,2.4009 L -2.6523,2.3117 L -2.6681,2.2224 L -2.6814,2.1329 L -2.6923,2.0435 L -2.7007,1.9541 L -2.7066,1.8649 L -2.7101,1.7760 L -2.7110,1.6874 L -2.7095,1.5992 L -2.7056,1.5114 L -2.6992,1.4242 L -2.6905,1.3376 L -2.6793,1.2517 L -2.6657,1.1664 L -2.6498,1.0819 L -2.6315,0.9983 L -2.6109,0.9155 L -2.5881,0.8338 L -2.5630,0.7532 L -2.5358,0.6742 L -2.5069,0.5974 L -2.4765,0.5236 L -2.4455,0.4547 L -2.4151,0.3929 L -2.3870,0.3406 L -2.3618,0.2986 L -2.3399,0.2661 L -2.3206,0.2415 L -2.3028,0.2224 L -2.2854,0.2072 L -2.2673,0.1946 L -2.2472,0.1836 L -2.2239,0.1739 L -2.1962,0.1652 L -2.1629,0.1576 L -2.1220,0.1510 L -2.0700,0.1453 L -2.0010,0.1407 L -1.9032,0.1370 L -1.7504,0.1345 L -1.5000,0.1333 L -1.2467,0.1344 L -1.0933,0.1370 L -0.9954,0.1407 L -0.9264,0.1454 L -0.8745,0.1511 L -0.8337,0.1579 L -0.8005,0.1657 L -0.7729,0.1745 L -0.7495,0.1845 L -0.7291,0.1958 L -0.7105,0.2091 L -0.6922,0.2253 L -0.6727,0.2463 L -0.6497,0.2751 L -0.6197,0.3177 L -0.5601,0.4095 L -0.5042,0.4953 L -0.4630,0.5545 L -0.4260,0.6034 L -0.3913,0.6455 L -0.3578,0.6823 L -0.3250,0.7146 L -0.2928,0.7430 L -0.2610,0.7678 L -0.2294,0.7893 L -0.1980,0.8077 L -0.1667,0.8232 L -0.1356,0.8359 L -0.1045,0.8458 L -0.0735,0.8532 L -0.0426,0.8579 L -0.0116,0.8601 L 0.0192,0.8598 L 0.0502,0.8570 L 0.0811,0.8516 L 0.1121,0.8436 L 0.1432,0.8330 L 0.1744,0.8197 L 0.2057,0.8035 L 0.2371,0.7843 L 0.2688,0.7620 L 0.3007,0.7363 L 0.3330,0.7070 L 0.3659,0.6736 L 0.3997,0.6356 L 0.4349,0.5920 L 0.4726,0.5410 L 0.5159,0.4778 L 0.5951,0.3550 L 0.6343,0.2964 L 0.6605,0.2610 L 0.6817,0.2362 L 0.7004,0.2176 L 0.7187,0.2029 L 0.7380,0.1906 L 0.7595,0.1799 L 0.7847,0.1704 L 0.8146,0.1621 L 0.8510,0.1547 L 0.8964,0.1484 L 0.9551,0.1431 L 1.0352,0.1389 L 1.1539,0.1357 L 1.3477,0.1337 L 1.6267,0.1336 L 1.8309,0.1355 L 1.9548,0.1387 L 2.0376,0.1428 L 2.0979,0.1480 L 2.1442,0.1543 L 2.1813,0.1615 L 2.2116,0.1698 L 2.2371,0.1791 L 2.2588,0.1896 L 2.2779,0.2016 L 2.2956,0.2157 L 2.3132,0.2332 L 2.3320,0.2556 L 2.3530,0.2851 L 2.3772,0.3238 L 2.4047,0.3728 L 2.4348,0.4323 L 2.4661,0.4998 L 2.4971,0.5730 L 2.5269,0.6499 L 2.5550,0.7292 L 2.5810,0.8103 L 2.6048,0.8926 L 2.6262,0.9761 L 2.6453,1.0605 L 2.6620,1.1458 L 2.6763,1.2318 L 2.6882,1.3186 L 2.6976,1.4061 L 2.7045,1.4942 L 2.7090,1.5828 L 2.7109,1.6720 L 2.7104,1.7615 L 2.7073,1.8515 L 2.7017,1.9417 L 2.6935,2.0321 L 2.6828,2.1226 L 2.6696,2.2131 L 2.6538,2.3035 L 2.6356,2.3937 L 2.6148,2.4836 L 2.5915,2.5730 L 2.5657,2.6620 L 2.5376,2.7503 L 2.5070,2.8378 L 2.4741,2.9244 L 2.4388,3.0100"/>
        <g id="arrows12">
          <use xlink:href="#arrow1" transform="translate(-2.6623,2.2543) rotate(-99.67) scale(2.0)"/>
          <use xlink:href="#arrow1" transform="translate(-2.5431,0.6962) rotate(-70.41) scale(2.0)"/>
          <use xlink:href="#arrow1" transform="translate(-1.2751,0.1344) rotate(0.46) scale(2.0)"/>
          <use xlink:href="#arrow1" transform="translate(-0.0000,0.8587) rotate(-1.88) scale(2.0)"/>
          <use xlink:href="#arrow1" transform="translate(1.2751,0.1344) rotate(-0.59) scale(2.0)"/>
          <use xlink:href="#arrow1" transform="translate(2.5432,0.6962) rotate(70.86) scale(2.0)"/>
          <use xlink:href="#arrow1" transform="translate(2.6624,2.2543) rotate(99.89) scale(2.0)"/>
        </g>
      </g>
      <g id="fieldline13">
        <path d="M -1.5000,0.1667 L -1.2637,0.1678 L -1.1123,0.1705 L -1.0133,0.1743 L -0.9430,0.1792 L -0.8901,0.1850 L -0.8490,0.1918 L -0.8165,0.1995 L -0.7907,0.2079 L -0.7707,0.2168 L -0.7558,0.2259 L -0.7452,0.2349 L -0.7379,0.2443 L -0.7317,0.2570 L -0.7244,0.2793 L -0.7145,0.3211 L -0.6999,0.3973 L -0.6758,0.5424 L -0.6118,0.9561 L -0.5887,1.1161 L -0.5758,1.2205 L -0.5681,1.3017 L -0.5639,1.3694 L -0.5627,1.4284 L -0.5639,1.4808 L -0.5675,1.5281 L -0.5733,1.5714 L -0.5811,1.6115 L -0.5909,1.6490 L -0.6026,1.6842 L -0.6164,1.7176 L -0.6322,1.7491 L -0.6500,1.7792 L -0.6700,1.8078 L -0.6920,1.8349 L -0.7162,1.8607 L -0.7426,1.8851 L -0.7711,1.9080 L -0.8018,1.9293 L -0.8346,1.9490 L -0.8694,1.9669 L -0.9061,1.9829 L -0.9447,1.9968 L -0.9848,2.0087 L -1.0265,2.0183 L -1.0695,2.0256 L -1.1136,2.0304 L -1.1587,2.0329 L -1.2047,2.0328 L -1.2512,2.0301 L -1.2982,2.0248 L -1.3456,2.0170 L -1.3931,2.0065 L -1.4405,1.9935 L -1.4879,1.9778 L -1.5349,1.9595 L -1.5816,1.9387 L -1.6276,1.9153 L -1.6730,1.8893 L -1.7176,1.8610 L -1.7613,1.8301 L -1.8039,1.7969 L -1.8454,1.7613 L -1.8856,1.7235 L -1.9245,1.6834 L -1.9620,1.6411 L -1.9979,1.5968 L -2.0321,1.5504 L -2.0647,1.5020 L -2.0955,1.4517 L -2.1244,1.3995 L -2.1514,1.3456 L -2.1764,1.2900 L -2.1993,1.2327 L -2.2201,1.1738 L -2.2387,1.1134 L -2.2552,1.0516 L -2.2693,0.9882 L -2.2812,0.9234 L -2.2907,0.8573 L -2.2979,0.7897 L -2.3026,0.7207 L -2.3049,0.6504 L -2.3046,0.5788 L -2.3018,0.5066 L -2.2965,0.4351 L -2.2891,0.3684 L -2.2808,0.3140 L -2.2732,0.2774 L -2.2669,0.2564 L -2.2611,0.2443 L -2.2540,0.2351 L -2.2435,0.2262 L -2.2285,0.2171 L -2.2085,0.2082 L -2.1827,0.1998 L -2.1501,0.1921 L -2.1090,0.1853 L -2.0561,0.1794 L -1.9857,0.1745 L -1.8868,0.1706 L -1.7358,0.1678 L -1.5000,0.1667 Z"/>
        <g id="arrows13">
          <use xlink:href="#arrow1" transform="translate(-0.6079,0.9829) rotate(81.80) scale(2.0)"/>
          <use xlink:href="#arrow1" transform="translate(-1.2811,2.0262) rotate(-172.26) scale(2.0)"/>
          <use xlink:href="#arrow1" transform="translate(-2.2684,0.9895) rotate(-101.12) scale(2.0)"/>
        </g>
      </g>
      <g id="fieldline14">
        <path d="M -1.5000,0.2000 L -1.2796,0.2011 L -1.1307,0.2038 L -1.0304,0.2076 L -0.9581,0.2125 L -0.9033,0.2183 L -0.8603,0.2250 L -0.8261,0.2326 L -0.7987,0.2409 L -0.7764,0.2500 L -0.7863,0.2698 L -0.7995,0.3032 L -0.8238,0.3756 L -0.8602,0.4857 L -0.8859,0.5566 L -0.9102,0.6169 L -0.9342,0.6702 L -0.9585,0.7182 L -0.9832,0.7618 L -1.0085,0.8016 L -1.0345,0.8380 L -1.0612,0.8713 L -1.0887,0.9016 L -1.1170,0.9292 L -1.1460,0.9541 L -1.1758,0.9764 L -1.2063,0.9963 L -1.2374,1.0136 L -1.2693,1.0285 L -1.3017,1.0410 L -1.3348,1.0511 L -1.3684,1.0587 L -1.4025,1.0640 L -1.4369,1.0667 L -1.4718,1.0671 L -1.5069,1.0649 L -1.5422,1.0602 L -1.5776,1.0531 L -1.6131,1.0433 L -1.6485,1.0310 L -1.6837,1.0161 L -1.7187,0.9986 L -1.7534,0.9785 L -1.7876,0.9557 L -1.8212,0.9303 L -1.8543,0.9022 L -1.8866,0.8714 L -1.9182,0.8379 L -1.9489,0.8016 L -1.9788,0.7624 L -2.0077,0.7203 L -2.0358,0.6750 L -2.0631,0.6261 L -2.0897,0.5732 L -2.1162,0.5149 L -2.1436,0.4481 L -2.1965,0.3070 L -2.2116,0.2706 L -2.2223,0.2500 L -2.1997,0.2409 L -2.1721,0.2326 L -2.1378,0.2251 L -2.0947,0.2184 L -2.0398,0.2126 L -1.9674,0.2077 L -1.8672,0.2039 L -1.7190,0.2012 L -1.5000,0.2000 Z"/>
        <g id="arrows14">
          <use xlink:href="#arrow1" transform="translate(-1.4827,1.0653) rotate(-175.68) scale(2.0)"/>
        </g>
      </g>
      <g id="fieldline15">
        <path d="M -1.5000,0.2333 L -1.3009,0.2343 L -1.1573,0.2367 L -1.0561,0.2402 L -0.9814,0.2447 L -0.9235,0.2500 L -1.0392,0.3447 L -1.0898,0.3834 L -1.1342,0.4144 L -1.1753,0.4403 L -1.2147,0.4622 L -1.2529,0.4808 L -1.2903,0.4962 L -1.3273,0.5089 L -1.3639,0.5188 L -1.4005,0.5262 L -1.4369,0.5311 L -1.4734,0.5334 L -1.5100,0.5333 L -1.5468,0.5307 L -1.5838,0.5256 L -1.6212,0.5180 L -1.6590,0.5076 L -1.6973,0.4945 L -1.7364,0.4785 L -1.7764,0.4594 L -1.8178,0.4368 L -1.8611,0.4101 L -1.9077,0.3784 L -1.9609,0.3389 L -2.0730,0.2500 L -2.0150,0.2447 L -1.9404,0.2403 L -1.8396,0.2368 L -1.6968,0.2344 L -1.5000,0.2333 Z"/>
        <g id="arrows15">
          <use xlink:href="#arrow1" transform="translate(-1.4953,0.5327) rotate(-177.95) scale(2.0)"/>
        </g>
      </g>
      <g id="fieldline16">
        <path d="M 1.5000,-0.2333 L 1.6970,-0.2344 L 1.8395,-0.2368 L 1.9404,-0.2403 L 2.0150,-0.2447 L 2.0730,-0.2500 L 1.9609,-0.3389 L 1.9077,-0.3784 L 1.8611,-0.4102 L 1.8177,-0.4368 L 1.7764,-0.4594 L 1.7364,-0.4785 L 1.6973,-0.4946 L 1.6590,-0.5076 L 1.6211,-0.5180 L 1.5838,-0.5256 L 1.5467,-0.5308 L 1.5100,-0.5334 L 1.4734,-0.5335 L 1.4368,-0.5311 L 1.4005,-0.5262 L 1.3639,-0.5188 L 1.3273,-0.5089 L 1.2903,-0.4962 L 1.2529,-0.4808 L 1.2147,-0.4622 L 1.1753,-0.4403 L 1.1341,-0.4144 L 1.0898,-0.3834 L 1.0392,-0.3447 L 0.9235,-0.2500 L 0.9814,-0.2447 L 1.0561,-0.2402 L 1.1573,-0.2367 L 1.3010,-0.2343 L 1.5000,-0.2333 Z"/>
        <g id="arrows16">
          <use xlink:href="#arrow1" transform="translate(1.4953,-0.5325) rotate(179.05) scale(2.0)"/>
        </g>
      </g>
      <g id="fieldline17">
        <path d="M 1.5000,-0.2000 L 1.7191,-0.2011 L 1.8674,-0.2039 L 1.9676,-0.2077 L 2.0399,-0.2126 L 2.0948,-0.2184 L 2.1378,-0.2251 L 2.1721,-0.2326 L 2.1997,-0.2409 L 2.2223,-0.2500 L 2.2117,-0.2706 L 2.1965,-0.3069 L 2.1436,-0.4481 L 2.1162,-0.5149 L 2.0897,-0.5732 L 2.0631,-0.6261 L 2.0358,-0.6750 L 2.0077,-0.7203 L 1.9788,-0.7625 L 1.9489,-0.8016 L 1.9182,-0.8379 L 1.8867,-0.8714 L 1.8543,-0.9022 L 1.8213,-0.9303 L 1.7876,-0.9557 L 1.7534,-0.9785 L 1.7188,-0.9986 L 1.6838,-1.0161 L 1.6486,-1.0310 L 1.6132,-1.0434 L 1.5777,-1.0531 L 1.5423,-1.0603 L 1.5070,-1.0650 L 1.4719,-1.0671 L 1.4370,-1.0668 L 1.4025,-1.0640 L 1.3684,-1.0588 L 1.3348,-1.0511 L 1.3018,-1.0411 L 1.2693,-1.0286 L 1.2375,-1.0137 L 1.2063,-0.9963 L 1.1758,-0.9765 L 1.1461,-0.9542 L 1.1170,-0.9293 L 1.0888,-0.9018 L 1.0613,-0.8714 L 1.0346,-0.8382 L 1.0086,-0.8018 L 0.9832,-0.7620 L 0.9585,-0.7184 L 0.9343,-0.6704 L 0.9102,-0.6171 L 0.8860,-0.5569 L 0.8603,-0.4860 L 0.8240,-0.3763 L 0.7995,-0.3034 L 0.7863,-0.2699 L 0.7764,-0.2500 L 0.7988,-0.2409 L 0.8262,-0.2326 L 0.8603,-0.2250 L 0.9033,-0.2183 L 0.9582,-0.2125 L 1.0305,-0.2076 L 1.1309,-0.2038 L 1.2797,-0.2011 L 1.5000,-0.2000 Z"/>
        <g id="arrows17">
          <use xlink:href="#arrow1" transform="translate(1.4828,-1.0655) rotate(-178.86) scale(2.0)"/>
        </g>
      </g>
      <g id="fieldline18">
        <path d="M 1.5000,-0.1667 L 1.7359,-0.1678 L 1.8869,-0.1706 L 1.9859,-0.1745 L 2.0562,-0.1794 L 2.1091,-0.1853 L 2.1502,-0.1921 L 2.1827,-0.1998 L 2.2085,-0.2082 L 2.2286,-0.2171 L 2.2435,-0.2262 L 2.2540,-0.2351 L 2.2611,-0.2443 L 2.2669,-0.2564 L 2.2732,-0.2774 L 2.2808,-0.3141 L 2.2891,-0.3684 L 2.2965,-0.4351 L 2.3018,-0.5066 L 2.3046,-0.5788 L 2.3049,-0.6504 L 2.3026,-0.7207 L 2.2979,-0.7897 L 2.2907,-0.8573 L 2.2812,-0.9235 L 2.2693,-0.9883 L 2.2551,-1.0516 L 2.2387,-1.1135 L 2.2201,-1.1739 L 2.1993,-1.2327 L 2.1763,-1.2900 L 2.1514,-1.3456 L 2.1244,-1.3996 L 2.0955,-1.4517 L 2.0647,-1.5020 L 2.0321,-1.5504 L 1.9978,-1.5968 L 1.9619,-1.6412 L 1.9245,-1.6834 L 1.8856,-1.7235 L 1.8454,-1.7614 L 1.8039,-1.7969 L 1.7612,-1.8301 L 1.7176,-1.8610 L 1.6730,-1.8894 L 1.6276,-1.9153 L 1.5815,-1.9387 L 1.5349,-1.9595 L 1.4878,-1.9778 L 1.4405,-1.9935 L 1.3930,-2.0065 L 1.3455,-2.0170 L 1.2982,-2.0249 L 1.2512,-2.0301 L 1.2046,-2.0328 L 1.1587,-2.0329 L 1.1136,-2.0304 L 1.0694,-2.0255 L 1.0264,-2.0183 L 0.9848,-2.0087 L 0.9446,-1.9968 L 0.9061,-1.9829 L 0.8694,-1.9669 L 0.8346,-1.9490 L 0.8018,-1.9293 L 0.7711,-1.9080 L 0.7425,-1.8851 L 0.7162,-1.8607 L 0.6920,-1.8349 L 0.6699,-1.8077 L 0.6500,-1.7792 L 0.6322,-1.7491 L 0.6164,-1.7175 L 0.6026,-1.6842 L 0.5908,-1.6490 L 0.5811,-1.6115 L 0.5733,-1.5714 L 0.5675,-1.5280 L 0.5639,-1.4807 L 0.5626,-1.4284 L 0.5639,-1.3694 L 0.5681,-1.3017 L 0.5758,-1.2205 L 0.5887,-1.1161 L 0.6118,-0.9561 L 0.6759,-0.5421 L 0.6999,-0.3972 L 0.7145,-0.3210 L 0.7244,-0.2793 L 0.7317,-0.2570 L 0.7379,-0.2443 L 0.7452,-0.2349 L 0.7558,-0.2259 L 0.7707,-0.2168 L 0.7908,-0.2079 L 0.8165,-0.1995 L 0.8491,-0.1918 L 0.8902,-0.1850 L 0.9431,-0.1792 L 1.0134,-0.1743 L 1.1125,-0.1705 L 1.2638,-0.1678 L 1.5000,-0.1667 Z"/>
        <g id="arrows18">
          <use xlink:href="#arrow1" transform="translate(2.2685,-0.9895) rotate(-101.98) scale(2.0)"/>
          <use xlink:href="#arrow1" transform="translate(1.2811,-2.0263) rotate(-174.28) scale(2.0)"/>
          <use xlink:href="#arrow1" transform="translate(0.6080,-0.9829) rotate(81.61) scale(2.0)"/>
        </g>
      </g>
      <g id="fieldline19">
        <path d="M 1.5000,0.1667 L 1.7359,0.1678 L 1.8869,0.1706 L 1.9859,0.1745 L 2.0562,0.1794 L 2.1091,0.1853 L 2.1502,0.1921 L 2.1827,0.1998 L 2.2085,0.2082 L 2.2286,0.2171 L 2.2435,0.2262 L 2.2540,0.2351 L 2.2611,0.2443 L 2.2669,0.2564 L 2.2732,0.2774 L 2.2808,0.3141 L 2.2891,0.3684 L 2.2965,0.4351 L 2.3018,0.5066 L 2.3046,0.5788 L 2.3049,0.6504 L 2.3026,0.7207 L 2.2979,0.7897 L 2.2907,0.8573 L 2.2812,0.9235 L 2.2693,0.9883 L 2.2551,1.0516 L 2.2387,1.1135 L 2.2201,1.1739 L 2.1993,1.2327 L 2.1763,1.2900 L 2.1514,1.3456 L 2.1244,1.3996 L 2.0955,1.4517 L 2.0647,1.5020 L 2.0321,1.5504 L 1.9978,1.5968 L 1.9619,1.6412 L 1.9245,1.6834 L 1.8856,1.7235 L 1.8454,1.7614 L 1.8039,1.7969 L 1.7612,1.8301 L 1.7176,1.8610 L 1.6730,1.8894 L 1.6276,1.9153 L 1.5815,1.9387 L 1.5349,1.9595 L 1.4878,1.9778 L 1.4405,1.9935 L 1.3930,2.0065 L 1.3455,2.0170 L 1.2982,2.0249 L 1.2512,2.0301 L 1.2046,2.0328 L 1.1587,2.0329 L 1.1136,2.0304 L 1.0694,2.0255 L 1.0264,2.0183 L 0.9848,2.0087 L 0.9446,1.9968 L 0.9061,1.9829 L 0.8694,1.9669 L 0.8346,1.9490 L 0.8018,1.9293 L 0.7711,1.9080 L 0.7425,1.8851 L 0.7162,1.8607 L 0.6920,1.8349 L 0.6699,1.8077 L 0.6500,1.7792 L 0.6322,1.7491 L 0.6164,1.7175 L 0.6026,1.6842 L 0.5908,1.6490 L 0.5811,1.6115 L 0.5733,1.5714 L 0.5675,1.5280 L 0.5639,1.4807 L 0.5626,1.4284 L 0.5639,1.3694 L 0.5681,1.3017 L 0.5758,1.2205 L 0.5887,1.1161 L 0.6118,0.9561 L 0.6759,0.5421 L 0.6999,0.3972 L 0.7145,0.3210 L 0.7244,0.2793 L 0.7317,0.2570 L 0.7379,0.2443 L 0.7452,0.2349 L 0.7558,0.2259 L 0.7707,0.2168 L 0.7908,0.2079 L 0.8165,0.1995 L 0.8491,0.1918 L 0.8902,0.1850 L 0.9431,0.1792 L 1.0134,0.1743 L 1.1125,0.1705 L 1.2638,0.1678 L 1.5000,0.1667 Z"/>
        <g id="arrows19">
          <use xlink:href="#arrow1" transform="translate(2.2685,0.9895) rotate(101.98) scale(2.0)"/>
          <use xlink:href="#arrow1" transform="translate(1.2811,2.0263) rotate(174.28) scale(2.0)"/>
          <use xlink:href="#arrow1" transform="translate(0.6080,0.9829) rotate(-81.61) scale(2.0)"/>
        </g>
      </g>
      <g id="fieldline20">
        <path d="M 1.5000,0.2000 L 1.7191,0.2011 L 1.8674,0.2039 L 1.9676,0.2077 L 2.0399,0.2126 L 2.0948,0.2184 L 2.1378,0.2251 L 2.1721,0.2326 L 2.1997,0.2409 L 2.2223,0.2500 L 2.2117,0.2706 L 2.1965,0.3069 L 2.1436,0.4481 L 2.1162,0.5149 L 2.0897,0.5732 L 2.0631,0.6261 L 2.0358,0.6750 L 2.0077,0.7203 L 1.9788,0.7625 L 1.9489,0.8016 L 1.9182,0.8379 L 1.8867,0.8714 L 1.8543,0.9022 L 1.8213,0.9303 L 1.7876,0.9557 L 1.7534,0.9785 L 1.7188,0.9986 L 1.6838,1.0161 L 1.6486,1.0310 L 1.6132,1.0434 L 1.5777,1.0531 L 1.5423,1.0603 L 1.5070,1.0650 L 1.4719,1.0671 L 1.4370,1.0668 L 1.4025,1.0640 L 1.3684,1.0588 L 1.3348,1.0511 L 1.3018,1.0411 L 1.2693,1.0286 L 1.2375,1.0137 L 1.2063,0.9963 L 1.1758,0.9765 L 1.1461,0.9542 L 1.1170,0.9293 L 1.0888,0.9018 L 1.0613,0.8714 L 1.0346,0.8382 L 1.0086,0.8018 L 0.9832,0.7620 L 0.9585,0.7184 L 0.9343,0.6704 L 0.9102,0.6171 L 0.8860,0.5569 L 0.8603,0.4860 L 0.8240,0.3763 L 0.7995,0.3034 L 0.7863,0.2699 L 0.7764,0.2500 L 0.7988,0.2409 L 0.8262,0.2326 L 0.8603,0.2250 L 0.9033,0.2183 L 0.9582,0.2125 L 1.0305,0.2076 L 1.1309,0.2038 L 1.2797,0.2011 L 1.5000,0.2000 Z"/>
        <g id="arrows20">
          <use xlink:href="#arrow1" transform="translate(1.4828,1.0655) rotate(178.86) scale(2.0)"/>
        </g>
      </g>
      <g id="fieldline21">
        <path d="M 1.5000,0.2333 L 1.6970,0.2344 L 1.8395,0.2368 L 1.9404,0.2403 L 2.0150,0.2447 L 2.0730,0.2500 L 1.9609,0.3389 L 1.9077,0.3784 L 1.8611,0.4102 L 1.8177,0.4368 L 1.7764,0.4594 L 1.7364,0.4785 L 1.6973,0.4946 L 1.6590,0.5076 L 1.6211,0.5180 L 1.5838,0.5256 L 1.5467,0.5308 L 1.5100,0.5334 L 1.4734,0.5335 L 1.4368,0.5311 L 1.4005,0.5262 L 1.3639,0.5188 L 1.3273,0.5089 L 1.2903,0.4962 L 1.2529,0.4808 L 1.2147,0.4622 L 1.1753,0.4403 L 1.1341,0.4144 L 1.0898,0.3834 L 1.0392,0.3447 L 0.9235,0.2500 L 0.9814,0.2447 L 1.0561,0.2402 L 1.1573,0.2367 L 1.3010,0.2343 L 1.5000,0.2333 Z"/>
        <g id="arrows21">
          <use xlink:href="#arrow1" transform="translate(1.4953,0.5325) rotate(-179.05) scale(2.0)"/>
        </g>
      </g>
    </g>
    <g id="symbols">
      <g id="magnet1" transform="translate(-1.5,0.0) rotate(0.0)">
        <defs>
          <linearGradient id="magnetGrad1" x1="0" x2="0" y1="0.25" y2="-0.25" gradientUnits="userSpaceOnUse">
            <stop stop-color="#000000" offset="0" stop-opacity="0.125"/>
            <stop stop-color="#ffffff" offset="0.07" stop-opacity="0.125"/>
            <stop stop-color="#ffffff" offset="0.25" stop-opacity="0.5"/>
            <stop stop-color="#ffffff" offset="0.6" stop-opacity="0.2"/>
            <stop stop-color="#000000" offset="1" stop-opacity="0.33"/>
          </linearGradient>
        </defs>
        <rect x="-0.75" y="-0.25" width="1.5" height="0.5" style="fill:#00cc00; stroke:none"/>
        <rect x="0" y="-0.25" width="0.75" height="0.5" style="fill:#ff0000; stroke:none"/>
        <rect x="-0.75" y="-0.25" width="1.5" height="0.5" style="fill:url(#magnetGrad1); stroke-width:0.04; stroke-linejoin:miter; stroke:#000000"/>
        <text text-anchor="middle" y="-0.25" transform="translate(-0.4875,-0.11) scale(0.0025,-0.0025)" style="fill:#000000; stroke:none; font-size:120px; font-family:Bitstream Vera Sans">S</text>
        <text text-anchor="middle" y="-0.25" transform="translate(0.4875,-0.11) scale(0.0025,-0.0025)" style="fill:#000000; stroke:none; font-size:120px; font-family:Bitstream Vera Sans">N</text>
      </g>
      <g id="magnet2" transform="translate(1.5,0.0) rotate(0.0)">
        <defs>
          <linearGradient id="magnetGrad2" x1="0" x2="0" y1="0.25" y2="-0.25" gradientUnits="userSpaceOnUse">
            <stop stop-color="#000000" offset="0" stop-opacity="0.125"/>
            <stop stop-color="#ffffff" offset="0.07" stop-opacity="0.125"/>
            <stop stop-color="#ffffff" offset="0.25" stop-opacity="0.5"/>
            <stop stop-color="#ffffff" offset="0.6" stop-opacity="0.2"/>
            <stop stop-color="#000000" offset="1" stop-opacity="0.33"/>
          </linearGradient>
        </defs>
        <rect x="-0.75" y="-0.25" width="1.5" height="0.5" style="fill:#00cc00; stroke:none"/>
        <rect x="0" y="-0.25" width="0.75" height="0.5" style="fill:#ff0000; stroke:none"/>
        <rect x="-0.75" y="-0.25" width="1.5" height="0.5" style="fill:url(#magnetGrad2); stroke-width:0.04; stroke-linejoin:miter; stroke:#000000"/>
        <text text-anchor="middle" y="-0.25" transform="translate(-0.4875,-0.11) scale(0.0025,-0.0025)" style="fill:#000000; stroke:none; font-size:120px; font-family:Bitstream Vera Sans">S</text>
        <text text-anchor="middle" y="-0.25" transform="translate(0.4875,-0.11) scale(0.0025,-0.0025)" style="fill:#000000; stroke:none; font-size:120px; font-family:Bitstream Vera Sans">N</text>
      </g>
    </g>
  </g>
</svg>
