<?xml version='1.0' encoding='utf-8'?>
<svg xmlns:xlink="http://www.w3.org/1999/xlink" xmlns="http://www.w3.org/2000/svg" version="1.1" baseProfile="full" width="800" height="600">
  <title>VFPt_cylindrical_magnet_big</title>
  <desc>VFPt_cylindrical_magnet_big
created with VectorFieldPlot 1.0
http://commons.wikimedia.org/wiki/User:Geek3/VectorFieldPlot

about: http://commons.wikimedia.org/wiki/File:VFPt_cylindrical_magnet_big.svg
rights: GNU Free Documentation license,
        Creative Commons Attribution ShareAlike license
  </desc>
  <defs>
    <path id="arrow1" stroke="none" fill="#000000" transform="scale(0.01)" d="M 0.3,0 L -2.2,2.25 L 3.8,0 L -2.2,-2.25 L 0.3,0 Z"/>
  </defs>
  <rect id="background" x="0" y="0" width="800" height="600" fill="#ffffff"/>
  <g id="image" transform="translate(400.0,300.0) scale(100.0,-100.0)">
    <g id="fieldlines" fill="none" stroke="#000000" stroke-width="0.02" stroke-linejoin="round" stroke-linecap="round">
      <g id="fieldline1">
        <path d="M 0.0000,-0.4667 L 0.2918,-0.4677 L 0.5292,-0.4704 L 0.7126,-0.4744 L 0.8560,-0.4794 L 0.9714,-0.4854 L 1.0671,-0.4922 L 1.1474,-0.5000 L 0.9699,-0.6397 L 0.8880,-0.7014 L 0.8176,-0.7514 L 0.7526,-0.7948 L 0.6908,-0.8330 L 0.6312,-0.8671 L 0.5732,-0.8974 L 0.5163,-0.9244 L 0.4603,-0.9483 L 0.4049,-0.9692 L 0.3501,-0.9872 L 0.2957,-1.0026 L 0.2415,-1.0153 L 0.1877,-1.0254 L 0.1339,-1.0329 L 0.0802,-1.0379 L 0.0268,-1.0404 L -0.0267,-1.0404 L -0.0803,-1.0379 L -0.1339,-1.0329 L -0.1876,-1.0254 L -0.2415,-1.0153 L -0.2956,-1.0026 L -0.3501,-0.9873 L -0.4049,-0.9692 L -0.4602,-0.9483 L -0.5163,-0.9244 L -0.5732,-0.8974 L -0.6312,-0.8671 L -0.6908,-0.8330 L -0.7526,-0.7948 L -0.8176,-0.7514 L -0.8880,-0.7014 L -0.9699,-0.6397 L -1.1474,-0.5000 L -1.0671,-0.4922 L -0.9715,-0.4854 L -0.8561,-0.4794 L -0.7126,-0.4744 L -0.5293,-0.4704 L -0.2919,-0.4677 L 0.0000,-0.4667 Z"/>
        <g id="arrows1">
          <use xlink:href="#arrow1" transform="translate(0.0000,-1.0401) rotate(179.15) scale(2.0)"/>
        </g>
      </g>
      <g id="fieldline2">
        <path d="M 0.0000,-0.4000 L 0.3172,-0.4011 L 0.5654,-0.4040 L 0.7511,-0.4081 L 0.8933,-0.4133 L 1.0057,-0.4195 L 1.0971,-0.4266 L 1.1735,-0.4346 L 1.2379,-0.4436 L 1.2927,-0.4534 L 1.3396,-0.4639 L 1.3798,-0.4752 L 1.4145,-0.4872 L 1.4448,-0.5000 L 1.4299,-0.5275 L 1.4115,-0.5679 L 1.3843,-0.6354 L 1.3098,-0.8304 L 1.2702,-0.9277 L 1.2329,-1.0130 L 1.1961,-1.0909 L 1.1592,-1.1633 L 1.1217,-1.2314 L 1.0834,-1.2956 L 1.0443,-1.3563 L 1.0043,-1.4137 L 0.9634,-1.4681 L 0.9216,-1.5195 L 0.8789,-1.5680 L 0.8353,-1.6137 L 0.7908,-1.6566 L 0.7455,-1.6968 L 0.6994,-1.7344 L 0.6526,-1.7692 L 0.6051,-1.8015 L 0.5569,-1.8311 L 0.5082,-1.8581 L 0.4589,-1.8825 L 0.4091,-1.9043 L 0.3589,-1.9235 L 0.3083,-1.9401 L 0.2574,-1.9542 L 0.2062,-1.9657 L 0.1549,-1.9746 L 0.1033,-1.9810 L 0.0516,-1.9848 L -0.0000,-1.9861 L -0.0518,-1.9848 L -0.1034,-1.9810 L -0.1550,-1.9746 L -0.2064,-1.9657 L -0.2575,-1.9541 L -0.3084,-1.9401 L -0.3590,-1.9234 L -0.4092,-1.9042 L -0.4590,-1.8824 L -0.5083,-1.8580 L -0.5570,-1.8310 L -0.6052,-1.8014 L -0.6527,-1.7692 L -0.6995,-1.7343 L -0.7456,-1.6968 L -0.7909,-1.6565 L -0.8353,-1.6136 L -0.8790,-1.5679 L -0.9217,-1.5194 L -0.9635,-1.4680 L -1.0044,-1.4136 L -1.0444,-1.3562 L -1.0835,-1.2955 L -1.1217,-1.2313 L -1.1592,-1.1632 L -1.1962,-1.0907 L -1.2330,-1.0128 L -1.2703,-0.9276 L -1.3098,-0.8303 L -1.3843,-0.6354 L -1.4115,-0.5679 L -1.4299,-0.5275 L -1.4448,-0.5000 L -1.4145,-0.4872 L -1.3798,-0.4752 L -1.3395,-0.4639 L -1.2925,-0.4533 L -1.2377,-0.4435 L -1.1733,-0.4346 L -1.0974,-0.4266 L -1.0060,-0.4195 L -0.8935,-0.4133 L -0.7513,-0.4081 L -0.5657,-0.4040 L -0.3174,-0.4011 L 0.0000,-0.4000 Z"/>
        <g id="arrows2">
          <use xlink:href="#arrow1" transform="translate(0.0000,-1.9854) rotate(179.45) scale(2.0)"/>
        </g>
      </g>
      <g id="fieldline3">
        <path d="M -0.7549,-3.0100 L -0.8060,-2.9746 L -0.8560,-2.9367 L -0.9050,-2.8965 L -0.9529,-2.8538 L -0.9996,-2.8088 L -1.0451,-2.7614 L -1.0892,-2.7117 L -1.1319,-2.6597 L -1.1731,-2.6055 L -1.2128,-2.5490 L -1.2510,-2.4903 L -1.2874,-2.4295 L -1.3222,-2.3665 L -1.3551,-2.3015 L -1.3862,-2.2344 L -1.4155,-2.1653 L -1.4428,-2.0942 L -1.4680,-2.0211 L -1.4913,-1.9461 L -1.5124,-1.8692 L -1.5314,-1.7904 L -1.5482,-1.7098 L -1.5627,-1.6273 L -1.5750,-1.5430 L -1.5849,-1.4569 L -1.5924,-1.3690 L -1.5975,-1.2793 L -1.6001,-1.1880 L -1.6002,-1.0952 L -1.5977,-1.0014 L -1.5927,-0.9076 L -1.5852,-0.8154 L -1.5757,-0.7284 L -1.5650,-0.6522 L -1.5542,-0.5912 L -1.5442,-0.5472 L -1.5354,-0.5177 L -1.5273,-0.4981 L -1.5188,-0.4835 L -1.5083,-0.4706 L -1.4945,-0.4580 L -1.4764,-0.4451 L -1.4533,-0.4322 L -1.4250,-0.4194 L -1.3910,-0.4072 L -1.3508,-0.3955 L -1.3032,-0.3847 L -1.2471,-0.3747 L -1.1810,-0.3657 L -1.1014,-0.3577 L -1.0037,-0.3507 L -0.8805,-0.3447 L -0.7196,-0.3397 L -0.4999,-0.3360 L -0.1938,-0.3337 L 0.1766,-0.3336 L 0.4873,-0.3358 L 0.7108,-0.3395 L 0.8741,-0.3444 L 0.9988,-0.3504 L 1.0975,-0.3574 L 1.1779,-0.3653 L 1.2446,-0.3743 L 1.3012,-0.3842 L 1.3490,-0.3951 L 1.3896,-0.4067 L 1.4239,-0.4190 L 1.4524,-0.4317 L 1.4755,-0.4446 L 1.4938,-0.4575 L 1.5078,-0.4701 L 1.5185,-0.4830 L 1.5270,-0.4974 L 1.5351,-0.5168 L 1.5439,-0.5459 L 1.5538,-0.5894 L 1.5646,-0.6498 L 1.5754,-0.7256 L 1.5850,-0.8124 L 1.5925,-0.9046 L 1.5976,-0.9985 L 1.6002,-1.0924 L 1.6001,-1.1853 L 1.5976,-1.2768 L 1.5926,-1.3666 L 1.5851,-1.4546 L 1.5752,-1.5409 L 1.5630,-1.6253 L 1.5485,-1.7079 L 1.5318,-1.7887 L 1.5128,-1.8676 L 1.4917,-1.9446 L 1.4685,-2.0197 L 1.4432,-2.0929 L 1.4159,-2.1641 L 1.3867,-2.2333 L 1.3556,-2.3006 L 1.3226,-2.3657 L 1.2879,-2.4287 L 1.2514,-2.4897 L 1.2132,-2.5484 L 1.1735,-2.6050 L 1.1322,-2.6593 L 1.0895,-2.7113 L 1.0453,-2.7611 L 0.9999,-2.8085 L 0.9531,-2.8536 L 0.9052,-2.8963 L 0.8561,-2.9366 L 0.8060,-2.9745 L 0.7549,-3.0100"/>
        <g id="arrows3">
          <use xlink:href="#arrow1" transform="translate(-1.5238,-1.8210) rotate(103.10) scale(2.0)"/>
          <use xlink:href="#arrow1" transform="translate(-0.0000,-0.3337) rotate(0.01) scale(2.0)"/>
          <use xlink:href="#arrow1" transform="translate(1.5240,-1.8210) rotate(-103.54) scale(2.0)"/>
        </g>
      </g>
      <g id="fieldline4">
        <path d="M -2.2358,-3.0100 L -2.2451,-2.9159 L -2.2519,-2.8208 L -2.2563,-2.7248 L -2.2581,-2.6279 L -2.2574,-2.5303 L -2.2542,-2.4319 L -2.2484,-2.3328 L -2.2399,-2.2332 L -2.2289,-2.1330 L -2.2153,-2.0324 L -2.1990,-1.9315 L -2.1802,-1.8302 L -2.1586,-1.7288 L -2.1345,-1.6273 L -2.1078,-1.5259 L -2.0785,-1.4247 L -2.0467,-1.3240 L -2.0125,-1.2243 L -1.9762,-1.1260 L -1.9380,-1.0299 L -1.8985,-0.9373 L -1.8583,-0.8495 L -1.8184,-0.7682 L -1.7800,-0.6953 L -1.7437,-0.6318 L -1.7103,-0.5779 L -1.6799,-0.5333 L -1.6519,-0.4964 L -1.6257,-0.4658 L -1.6007,-0.4403 L -1.5759,-0.4186 L -1.5505,-0.3996 L -1.5235,-0.3826 L -1.4941,-0.3671 L -1.4613,-0.3529 L -1.4244,-0.3398 L -1.3825,-0.3278 L -1.3344,-0.3168 L -1.2786,-0.3069 L -1.2127,-0.2979 L -1.1342,-0.2901 L -1.0380,-0.2833 L -0.9159,-0.2775 L -0.7544,-0.2727 L -0.5288,-0.2691 L -0.2025,-0.2670 L 0.2025,-0.2670 L 0.5288,-0.2691 L 0.7544,-0.2727 L 0.9159,-0.2775 L 1.0380,-0.2833 L 1.1342,-0.2901 L 1.2127,-0.2979 L 1.2786,-0.3069 L 1.3344,-0.3168 L 1.3825,-0.3278 L 1.4244,-0.3398 L 1.4613,-0.3529 L 1.4941,-0.3671 L 1.5235,-0.3826 L 1.5505,-0.3996 L 1.5759,-0.4186 L 1.6007,-0.4403 L 1.6257,-0.4658 L 1.6519,-0.4964 L 1.6799,-0.5333 L 1.7103,-0.5779 L 1.7437,-0.6318 L 1.7800,-0.6953 L 1.8184,-0.7682 L 1.8583,-0.8495 L 1.8985,-0.9373 L 1.9380,-1.0299 L 1.9762,-1.1260 L 2.0125,-1.2243 L 2.0467,-1.3240 L 2.0785,-1.4247 L 2.1078,-1.5259 L 2.1345,-1.6273 L 2.1586,-1.7288 L 2.1802,-1.8302 L 2.1990,-1.9315 L 2.2153,-2.0324 L 2.2289,-2.1330 L 2.2399,-2.2332 L 2.2484,-2.3328 L 2.2542,-2.4319 L 2.2574,-2.5303 L 2.2581,-2.6279 L 2.2563,-2.7248 L 2.2519,-2.8208 L 2.2451,-2.9159 L 2.2358,-3.0100"/>
        <g id="arrows4">
          <use xlink:href="#arrow1" transform="translate(-2.1210,-1.5759) rotate(75.24) scale(2.0)"/>
          <use xlink:href="#arrow1" transform="translate(-0.0000,-0.2670) rotate(0.00) scale(2.0)"/>
          <use xlink:href="#arrow1" transform="translate(2.1210,-1.5759) rotate(-75.24) scale(2.0)"/>
        </g>
      </g>
      <g id="fieldline5">
        <path d="M -3.4824,-3.0100 L -3.4372,-2.8882 L -3.3897,-2.7671 L -3.3396,-2.6467 L -3.2872,-2.5270 L -3.2324,-2.4082 L -3.1753,-2.2903 L -3.1158,-2.1734 L -3.0540,-2.0575 L -2.9899,-1.9427 L -2.9237,-1.8291 L -2.8552,-1.7169 L -2.7847,-1.6060 L -2.7122,-1.4967 L -2.6379,-1.3892 L -2.5619,-1.2836 L -2.4844,-1.1804 L -2.4060,-1.0800 L -2.3270,-0.9831 L -2.2483,-0.8903 L -2.1709,-0.8029 L -2.0958,-0.7218 L -2.0244,-0.6482 L -1.9576,-0.5828 L -1.8960,-0.5259 L -1.8397,-0.4771 L -1.7882,-0.4357 L -1.7409,-0.4006 L -1.6967,-0.3708 L -1.6548,-0.3455 L -1.6140,-0.3237 L -1.5733,-0.3048 L -1.5316,-0.2883 L -1.4878,-0.2737 L -1.4409,-0.2607 L -1.3894,-0.2492 L -1.3316,-0.2391 L -1.2651,-0.2302 L -1.1871,-0.2225 L -1.0922,-0.2158 L -0.9718,-0.2103 L -0.8109,-0.2058 L -0.5805,-0.2024 L -0.2292,-0.2003 L 0.2292,-0.2003 L 0.5805,-0.2024 L 0.8109,-0.2058 L 0.9718,-0.2103 L 1.0922,-0.2158 L 1.1871,-0.2225 L 1.2651,-0.2302 L 1.3316,-0.2391 L 1.3894,-0.2492 L 1.4409,-0.2607 L 1.4878,-0.2737 L 1.5316,-0.2883 L 1.5733,-0.3048 L 1.6140,-0.3237 L 1.6548,-0.3455 L 1.6967,-0.3708 L 1.7409,-0.4006 L 1.7882,-0.4357 L 1.8397,-0.4771 L 1.8960,-0.5259 L 1.9576,-0.5828 L 2.0244,-0.6482 L 2.0958,-0.7218 L 2.1709,-0.8029 L 2.2483,-0.8903 L 2.3270,-0.9831 L 2.4060,-1.0800 L 2.4844,-1.1804 L 2.5619,-1.2836 L 2.6379,-1.3892 L 2.7122,-1.4967 L 2.7847,-1.6060 L 2.8552,-1.7169 L 2.9237,-1.8291 L 2.9899,-1.9427 L 3.0540,-2.0575 L 3.1158,-2.1734 L 3.1753,-2.2903 L 3.2324,-2.4082 L 3.2872,-2.5270 L 3.3396,-2.6467 L 3.3897,-2.7671 L 3.4372,-2.8882 L 3.4824,-3.0100"/>
        <g id="arrows5">
          <use xlink:href="#arrow1" transform="translate(-2.7411,-1.5402) rotate(56.44) scale(2.0)"/>
          <use xlink:href="#arrow1" transform="translate(0.0000,-0.2003) rotate(-0.00) scale(2.0)"/>
          <use xlink:href="#arrow1" transform="translate(2.7411,-1.5402) rotate(-56.44) scale(2.0)"/>
        </g>
      </g>
      <g id="fieldline6">
        <path d="M -4.0100,-1.7948 L -3.8767,-1.6781 L -3.7423,-1.5638 L -3.6071,-1.4521 L -3.4711,-1.3430 L -3.3345,-1.2366 L -3.1975,-1.1331 L -3.0606,-1.0327 L -2.9240,-0.9357 L -2.7886,-0.8426 L -2.6552,-0.7538 L -2.5251,-0.6703 L -2.4001,-0.5929 L -2.2818,-0.5225 L -2.1721,-0.4600 L -2.0720,-0.4058 L -1.9817,-0.3595 L -1.9005,-0.3205 L -1.8270,-0.2879 L -1.7597,-0.2607 L -1.6970,-0.2379 L -1.6370,-0.2187 L -1.5781,-0.2025 L -1.5185,-0.1887 L -1.4565,-0.1770 L -1.3896,-0.1670 L -1.3147,-0.1585 L -1.2280,-0.1514 L -1.1223,-0.1455 L -0.9851,-0.1408 L -0.7927,-0.1371 L -0.4930,-0.1344 L 0.0000,-0.1333 L 0.4930,-0.1344 L 0.7927,-0.1371 L 0.9851,-0.1408 L 1.1223,-0.1455 L 1.2280,-0.1514 L 1.3147,-0.1585 L 1.3896,-0.1670 L 1.4565,-0.1770 L 1.5185,-0.1887 L 1.5781,-0.2025 L 1.6370,-0.2187 L 1.6970,-0.2379 L 1.7597,-0.2607 L 1.8270,-0.2879 L 1.9005,-0.3205 L 1.9817,-0.3595 L 2.0720,-0.4058 L 2.1721,-0.4600 L 2.2818,-0.5225 L 2.4001,-0.5929 L 2.5251,-0.6703 L 2.6552,-0.7538 L 2.7886,-0.8426 L 2.9240,-0.9357 L 3.0606,-1.0327 L 3.1975,-1.1331 L 3.3345,-1.2366 L 3.4711,-1.3430 L 3.6071,-1.4521 L 3.7423,-1.5638 L 3.8767,-1.6781 L 4.0100,-1.7948"/>
        <g id="arrows6">
          <use xlink:href="#arrow1" transform="translate(-2.8276,-0.8694) rotate(34.49) scale(2.0)"/>
          <use xlink:href="#arrow1" transform="translate(-0.0000,-0.1334) rotate(-0.05) scale(2.0)"/>
          <use xlink:href="#arrow1" transform="translate(2.8276,-0.8694) rotate(-34.52) scale(2.0)"/>
        </g>
      </g>
      <g id="fieldline7">
        <path d="M -4.0100,-0.7752 L -3.7684,-0.6919 L -3.5298,-0.6123 L -3.2952,-0.5366 L -3.0660,-0.4652 L -2.8445,-0.3987 L -2.6342,-0.3381 L -2.4393,-0.2843 L -2.2641,-0.2385 L -2.1104,-0.2006 L -1.9776,-0.1702 L -1.8621,-0.1462 L -1.7597,-0.1273 L -1.6659,-0.1124 L -1.5761,-0.1005 L -1.4858,-0.0911 L -1.3893,-0.0837 L -1.2794,-0.0779 L -1.1419,-0.0734 L -0.9490,-0.0700 L -0.6302,-0.0677 L -0.0000,-0.0667 L 0.6302,-0.0677 L 0.9490,-0.0700 L 1.1419,-0.0734 L 1.2794,-0.0779 L 1.3893,-0.0837 L 1.4858,-0.0911 L 1.5761,-0.1005 L 1.6659,-0.1124 L 1.7597,-0.1273 L 1.8621,-0.1462 L 1.9776,-0.1702 L 2.1104,-0.2006 L 2.2641,-0.2385 L 2.4393,-0.2843 L 2.6342,-0.3381 L 2.8445,-0.3987 L 3.0660,-0.4652 L 3.2952,-0.5366 L 3.5298,-0.6123 L 3.7684,-0.6919 L 4.0100,-0.7752"/>
        <g id="arrows7">
          <use xlink:href="#arrow1" transform="translate(-2.7063,-0.3588) rotate(16.08) scale(2.0)"/>
          <use xlink:href="#arrow1" transform="translate(-0.0000,-0.0667) rotate(-0.04) scale(2.0)"/>
          <use xlink:href="#arrow1" transform="translate(2.7063,-0.3588) rotate(-16.08) scale(2.0)"/>
        </g>
      </g>
      <g id="fieldline8">
        <path d="M -4.0100,0.0000 L 4.0100,0.0000"/>
        <g id="arrows8">
          <use xlink:href="#arrow1" transform="translate(-2.6733,0.0000) rotate(0.00) scale(2.0)"/>
          <use xlink:href="#arrow1" transform="translate(0.0000,0.0000) rotate(0.00) scale(2.0)"/>
          <use xlink:href="#arrow1" transform="translate(2.6733,0.0000) rotate(0.00) scale(2.0)"/>
        </g>
      </g>
      <g id="fieldline9">
        <path d="M -4.0100,0.7752 L -3.7684,0.6919 L -3.5298,0.6123 L -3.2952,0.5366 L -3.0660,0.4652 L -2.8445,0.3987 L -2.6342,0.3381 L -2.4393,0.2843 L -2.2641,0.2385 L -2.1104,0.2006 L -1.9776,0.1702 L -1.8621,0.1462 L -1.7597,0.1273 L -1.6659,0.1124 L -1.5761,0.1005 L -1.4858,0.0911 L -1.3893,0.0837 L -1.2794,0.0779 L -1.1419,0.0734 L -0.9490,0.0700 L -0.6302,0.0677 L -0.0000,0.0667 L 0.6302,0.0677 L 0.9490,0.0700 L 1.1419,0.0734 L 1.2794,0.0779 L 1.3893,0.0837 L 1.4858,0.0911 L 1.5761,0.1005 L 1.6659,0.1124 L 1.7597,0.1273 L 1.8621,0.1462 L 1.9776,0.1702 L 2.1104,0.2006 L 2.2641,0.2385 L 2.4393,0.2843 L 2.6342,0.3381 L 2.8445,0.3987 L 3.0660,0.4652 L 3.2952,0.5366 L 3.5298,0.6123 L 3.7684,0.6919 L 4.0100,0.7752"/>
        <g id="arrows9">
          <use xlink:href="#arrow1" transform="translate(-2.7063,0.3588) rotate(-16.08) scale(2.0)"/>
          <use xlink:href="#arrow1" transform="translate(-0.0000,0.0667) rotate(0.04) scale(2.0)"/>
          <use xlink:href="#arrow1" transform="translate(2.7063,0.3588) rotate(16.08) scale(2.0)"/>
        </g>
      </g>
      <g id="fieldline10">
        <path d="M -4.0100,1.7948 L -3.8767,1.6781 L -3.7423,1.5638 L -3.6071,1.4521 L -3.4711,1.3430 L -3.3345,1.2366 L -3.1975,1.1331 L -3.0606,1.0327 L -2.9240,0.9357 L -2.7886,0.8426 L -2.6552,0.7538 L -2.5251,0.6703 L -2.4001,0.5929 L -2.2818,0.5225 L -2.1721,0.4600 L -2.0720,0.4058 L -1.9817,0.3595 L -1.9005,0.3205 L -1.8270,0.2879 L -1.7597,0.2607 L -1.6970,0.2379 L -1.6370,0.2187 L -1.5781,0.2025 L -1.5185,0.1887 L -1.4565,0.1770 L -1.3896,0.1670 L -1.3147,0.1585 L -1.2280,0.1514 L -1.1223,0.1455 L -0.9851,0.1408 L -0.7927,0.1371 L -0.4930,0.1344 L 0.0000,0.1333 L 0.4930,0.1344 L 0.7927,0.1371 L 0.9851,0.1408 L 1.1223,0.1455 L 1.2280,0.1514 L 1.3147,0.1585 L 1.3896,0.1670 L 1.4565,0.1770 L 1.5185,0.1887 L 1.5781,0.2025 L 1.6370,0.2187 L 1.6970,0.2379 L 1.7597,0.2607 L 1.8270,0.2879 L 1.9005,0.3205 L 1.9817,0.3595 L 2.0720,0.4058 L 2.1721,0.4600 L 2.2818,0.5225 L 2.4001,0.5929 L 2.5251,0.6703 L 2.6552,0.7538 L 2.7886,0.8426 L 2.9240,0.9357 L 3.0606,1.0327 L 3.1975,1.1331 L 3.3345,1.2366 L 3.4711,1.3430 L 3.6071,1.4521 L 3.7423,1.5638 L 3.8767,1.6781 L 4.0100,1.7948"/>
        <g id="arrows10">
          <use xlink:href="#arrow1" transform="translate(-2.8276,0.8694) rotate(-34.49) scale(2.0)"/>
          <use xlink:href="#arrow1" transform="translate(-0.0000,0.1334) rotate(0.05) scale(2.0)"/>
          <use xlink:href="#arrow1" transform="translate(2.8276,0.8694) rotate(34.52) scale(2.0)"/>
        </g>
      </g>
      <g id="fieldline11">
        <path d="M -3.4824,3.0100 L -3.4372,2.8882 L -3.3897,2.7671 L -3.3396,2.6467 L -3.2872,2.5270 L -3.2324,2.4082 L -3.1753,2.2903 L -3.1158,2.1734 L -3.0540,2.0575 L -2.9899,1.9427 L -2.9237,1.8291 L -2.8552,1.7169 L -2.7847,1.6060 L -2.7122,1.4967 L -2.6379,1.3892 L -2.5619,1.2836 L -2.4844,1.1804 L -2.4060,1.0800 L -2.3270,0.9831 L -2.2483,0.8903 L -2.1709,0.8029 L -2.0958,0.7218 L -2.0244,0.6482 L -1.9576,0.5828 L -1.8960,0.5259 L -1.8397,0.4771 L -1.7882,0.4357 L -1.7409,0.4006 L -1.6967,0.3708 L -1.6548,0.3455 L -1.6140,0.3237 L -1.5733,0.3048 L -1.5316,0.2883 L -1.4878,0.2737 L -1.4409,0.2607 L -1.3894,0.2492 L -1.3316,0.2391 L -1.2651,0.2302 L -1.1871,0.2225 L -1.0922,0.2158 L -0.9718,0.2103 L -0.8109,0.2058 L -0.5805,0.2024 L -0.2292,0.2003 L 0.2292,0.2003 L 0.5805,0.2024 L 0.8109,0.2058 L 0.9718,0.2103 L 1.0922,0.2158 L 1.1871,0.2225 L 1.2651,0.2302 L 1.3316,0.2391 L 1.3894,0.2492 L 1.4409,0.2607 L 1.4878,0.2737 L 1.5316,0.2883 L 1.5733,0.3048 L 1.6140,0.3237 L 1.6548,0.3455 L 1.6967,0.3708 L 1.7409,0.4006 L 1.7882,0.4357 L 1.8397,0.4771 L 1.8960,0.5259 L 1.9576,0.5828 L 2.0244,0.6482 L 2.0958,0.7218 L 2.1709,0.8029 L 2.2483,0.8903 L 2.3270,0.9831 L 2.4060,1.0800 L 2.4844,1.1804 L 2.5619,1.2836 L 2.6379,1.3892 L 2.7122,1.4967 L 2.7847,1.6060 L 2.8552,1.7169 L 2.9237,1.8291 L 2.9899,1.9427 L 3.0540,2.0575 L 3.1158,2.1734 L 3.1753,2.2903 L 3.2324,2.4082 L 3.2872,2.5270 L 3.3396,2.6467 L 3.3897,2.7671 L 3.4372,2.8882 L 3.4824,3.0100"/>
        <g id="arrows11">
          <use xlink:href="#arrow1" transform="translate(-2.7411,1.5402) rotate(-56.44) scale(2.0)"/>
          <use xlink:href="#arrow1" transform="translate(-0.0000,0.2003) rotate(-0.00) scale(2.0)"/>
          <use xlink:href="#arrow1" transform="translate(2.7411,1.5402) rotate(56.44) scale(2.0)"/>
        </g>
      </g>
      <g id="fieldline12">
        <path d="M -2.2358,3.0100 L -2.2451,2.9159 L -2.2519,2.8208 L -2.2563,2.7248 L -2.2581,2.6279 L -2.2574,2.5303 L -2.2542,2.4319 L -2.2484,2.3328 L -2.2399,2.2332 L -2.2289,2.1330 L -2.2153,2.0324 L -2.1990,1.9315 L -2.1802,1.8302 L -2.1586,1.7288 L -2.1345,1.6273 L -2.1078,1.5259 L -2.0785,1.4247 L -2.0467,1.3240 L -2.0125,1.2243 L -1.9762,1.1260 L -1.9380,1.0299 L -1.8985,0.9373 L -1.8583,0.8495 L -1.8184,0.7682 L -1.7800,0.6953 L -1.7437,0.6318 L -1.7103,0.5779 L -1.6799,0.5333 L -1.6519,0.4964 L -1.6257,0.4658 L -1.6007,0.4403 L -1.5759,0.4186 L -1.5505,0.3996 L -1.5235,0.3826 L -1.4941,0.3671 L -1.4613,0.3529 L -1.4244,0.3398 L -1.3825,0.3278 L -1.3344,0.3168 L -1.2786,0.3069 L -1.2127,0.2979 L -1.1342,0.2901 L -1.0380,0.2833 L -0.9159,0.2775 L -0.7544,0.2727 L -0.5288,0.2691 L -0.2025,0.2670 L 0.2025,0.2670 L 0.5288,0.2691 L 0.7544,0.2727 L 0.9159,0.2775 L 1.0380,0.2833 L 1.1342,0.2901 L 1.2127,0.2979 L 1.2786,0.3069 L 1.3344,0.3168 L 1.3825,0.3278 L 1.4244,0.3398 L 1.4613,0.3529 L 1.4941,0.3671 L 1.5235,0.3826 L 1.5505,0.3996 L 1.5759,0.4186 L 1.6007,0.4403 L 1.6257,0.4658 L 1.6519,0.4964 L 1.6799,0.5333 L 1.7103,0.5779 L 1.7437,0.6318 L 1.7800,0.6953 L 1.8184,0.7682 L 1.8583,0.8495 L 1.8985,0.9373 L 1.9380,1.0299 L 1.9762,1.1260 L 2.0125,1.2243 L 2.0467,1.3240 L 2.0785,1.4247 L 2.1078,1.5259 L 2.1345,1.6273 L 2.1586,1.7288 L 2.1802,1.8302 L 2.1990,1.9315 L 2.2153,2.0324 L 2.2289,2.1330 L 2.2399,2.2332 L 2.2484,2.3328 L 2.2542,2.4319 L 2.2574,2.5303 L 2.2581,2.6279 L 2.2563,2.7248 L 2.2519,2.8208 L 2.2451,2.9159 L 2.2358,3.0100"/>
        <g id="arrows12">
          <use xlink:href="#arrow1" transform="translate(-2.1210,1.5759) rotate(-75.24) scale(2.0)"/>
          <use xlink:href="#arrow1" transform="translate(-0.0000,0.2670) rotate(-0.00) scale(2.0)"/>
          <use xlink:href="#arrow1" transform="translate(2.1210,1.5759) rotate(75.24) scale(2.0)"/>
        </g>
      </g>
      <g id="fieldline13">
        <path d="M -0.7549,3.0100 L -0.8060,2.9746 L -0.8560,2.9367 L -0.9050,2.8965 L -0.9529,2.8538 L -0.9996,2.8088 L -1.0451,2.7614 L -1.0892,2.7117 L -1.1319,2.6597 L -1.1731,2.6055 L -1.2128,2.5490 L -1.2510,2.4903 L -1.2874,2.4295 L -1.3222,2.3665 L -1.3551,2.3015 L -1.3862,2.2344 L -1.4155,2.1653 L -1.4428,2.0942 L -1.4680,2.0211 L -1.4913,1.9461 L -1.5124,1.8692 L -1.5314,1.7904 L -1.5482,1.7098 L -1.5627,1.6273 L -1.5750,1.5430 L -1.5849,1.4569 L -1.5924,1.3690 L -1.5975,1.2793 L -1.6001,1.1880 L -1.6002,1.0952 L -1.5977,1.0014 L -1.5927,0.9076 L -1.5852,0.8154 L -1.5757,0.7284 L -1.5650,0.6522 L -1.5542,0.5912 L -1.5442,0.5472 L -1.5354,0.5177 L -1.5273,0.4981 L -1.5188,0.4835 L -1.5083,0.4706 L -1.4945,0.4580 L -1.4764,0.4451 L -1.4533,0.4322 L -1.4250,0.4194 L -1.3910,0.4072 L -1.3508,0.3955 L -1.3032,0.3847 L -1.2471,0.3747 L -1.1810,0.3657 L -1.1014,0.3577 L -1.0037,0.3507 L -0.8805,0.3447 L -0.7196,0.3397 L -0.4999,0.3360 L -0.1938,0.3337 L 0.1766,0.3336 L 0.4873,0.3358 L 0.7108,0.3395 L 0.8741,0.3444 L 0.9988,0.3504 L 1.0975,0.3574 L 1.1779,0.3653 L 1.2446,0.3743 L 1.3012,0.3842 L 1.3490,0.3951 L 1.3896,0.4067 L 1.4239,0.4190 L 1.4524,0.4317 L 1.4755,0.4446 L 1.4938,0.4575 L 1.5078,0.4701 L 1.5185,0.4830 L 1.5270,0.4974 L 1.5351,0.5168 L 1.5439,0.5459 L 1.5538,0.5894 L 1.5646,0.6498 L 1.5754,0.7256 L 1.5850,0.8124 L 1.5925,0.9046 L 1.5976,0.9985 L 1.6002,1.0924 L 1.6001,1.1853 L 1.5976,1.2768 L 1.5926,1.3666 L 1.5851,1.4546 L 1.5752,1.5409 L 1.5630,1.6253 L 1.5485,1.7079 L 1.5318,1.7887 L 1.5128,1.8676 L 1.4917,1.9446 L 1.4685,2.0197 L 1.4432,2.0929 L 1.4159,2.1641 L 1.3867,2.2333 L 1.3556,2.3006 L 1.3226,2.3657 L 1.2879,2.4287 L 1.2514,2.4897 L 1.2132,2.5484 L 1.1735,2.6050 L 1.1322,2.6593 L 1.0895,2.7113 L 1.0453,2.7611 L 0.9999,2.8085 L 0.9531,2.8536 L 0.9052,2.8963 L 0.8561,2.9366 L 0.8060,2.9745 L 0.7549,3.0100"/>
        <g id="arrows13">
          <use xlink:href="#arrow1" transform="translate(-1.5238,1.8210) rotate(-103.10) scale(2.0)"/>
          <use xlink:href="#arrow1" transform="translate(-0.0000,0.3337) rotate(-0.01) scale(2.0)"/>
          <use xlink:href="#arrow1" transform="translate(1.5240,1.8210) rotate(103.54) scale(2.0)"/>
        </g>
      </g>
      <g id="fieldline14">
        <path d="M 0.0000,0.4000 L 0.3172,0.4011 L 0.5654,0.4040 L 0.7511,0.4081 L 0.8933,0.4133 L 1.0057,0.4195 L 1.0971,0.4266 L 1.1735,0.4346 L 1.2379,0.4436 L 1.2927,0.4534 L 1.3396,0.4639 L 1.3798,0.4752 L 1.4145,0.4872 L 1.4448,0.5000 L 1.4299,0.5275 L 1.4115,0.5679 L 1.3843,0.6354 L 1.3098,0.8304 L 1.2702,0.9277 L 1.2329,1.0130 L 1.1961,1.0909 L 1.1592,1.1633 L 1.1217,1.2314 L 1.0834,1.2956 L 1.0443,1.3563 L 1.0043,1.4137 L 0.9634,1.4681 L 0.9216,1.5195 L 0.8789,1.5680 L 0.8353,1.6137 L 0.7908,1.6566 L 0.7455,1.6968 L 0.6994,1.7344 L 0.6526,1.7692 L 0.6051,1.8015 L 0.5569,1.8311 L 0.5082,1.8581 L 0.4589,1.8825 L 0.4091,1.9043 L 0.3589,1.9235 L 0.3083,1.9401 L 0.2574,1.9542 L 0.2062,1.9657 L 0.1549,1.9746 L 0.1033,1.9810 L 0.0516,1.9848 L -0.0000,1.9861 L -0.0518,1.9848 L -0.1034,1.9810 L -0.1550,1.9746 L -0.2064,1.9657 L -0.2575,1.9541 L -0.3084,1.9401 L -0.3590,1.9234 L -0.4092,1.9042 L -0.4590,1.8824 L -0.5083,1.8580 L -0.5570,1.8310 L -0.6052,1.8014 L -0.6527,1.7692 L -0.6995,1.7343 L -0.7456,1.6968 L -0.7909,1.6565 L -0.8353,1.6136 L -0.8790,1.5679 L -0.9217,1.5194 L -0.9635,1.4680 L -1.0044,1.4136 L -1.0444,1.3562 L -1.0835,1.2955 L -1.1217,1.2313 L -1.1592,1.1632 L -1.1962,1.0907 L -1.2330,1.0128 L -1.2703,0.9276 L -1.3098,0.8303 L -1.3843,0.6354 L -1.4115,0.5679 L -1.4299,0.5275 L -1.4448,0.5000 L -1.4145,0.4872 L -1.3798,0.4752 L -1.3395,0.4639 L -1.2925,0.4533 L -1.2377,0.4435 L -1.1733,0.4346 L -1.0974,0.4266 L -1.0060,0.4195 L -0.8935,0.4133 L -0.7513,0.4081 L -0.5657,0.4040 L -0.3174,0.4011 L 0.0000,0.4000 Z"/>
        <g id="arrows14">
          <use xlink:href="#arrow1" transform="translate(0.0000,1.9854) rotate(-179.45) scale(2.0)"/>
        </g>
      </g>
      <g id="fieldline15">
        <path d="M 0.0000,0.4667 L 0.2918,0.4677 L 0.5292,0.4704 L 0.7125,0.4744 L 0.8560,0.4794 L 0.9714,0.4854 L 1.0671,0.4923 L 1.1474,0.5000 L 0.9699,0.6397 L 0.8880,0.7014 L 0.8176,0.7514 L 0.7526,0.7948 L 0.6908,0.8330 L 0.6312,0.8671 L 0.5732,0.8974 L 0.5163,0.9244 L 0.4603,0.9483 L 0.4049,0.9692 L 0.3501,0.9873 L 0.2957,1.0026 L 0.2415,1.0153 L 0.1877,1.0254 L 0.1339,1.0329 L 0.0802,1.0379 L 0.0268,1.0404 L -0.0267,1.0404 L -0.0803,1.0379 L -0.1339,1.0329 L -0.1876,1.0254 L -0.2415,1.0153 L -0.2956,1.0026 L -0.3501,0.9873 L -0.4049,0.9692 L -0.4602,0.9483 L -0.5163,0.9244 L -0.5732,0.8974 L -0.6312,0.8671 L -0.6908,0.8330 L -0.7526,0.7948 L -0.8176,0.7514 L -0.8880,0.7014 L -0.9699,0.6397 L -1.1474,0.5000 L -1.0671,0.4922 L -0.9715,0.4854 L -0.8561,0.4794 L -0.7126,0.4744 L -0.5293,0.4704 L -0.2919,0.4677 L 0.0000,0.4667 Z"/>
        <g id="arrows15">
          <use xlink:href="#arrow1" transform="translate(-0.0000,1.0401) rotate(-179.15) scale(2.0)"/>
        </g>
      </g>
    </g>
    <g id="symbols">
      <g id="magnet1" transform="translate(0.0,0.0) rotate(0.0)">
        <defs>
          <linearGradient id="magnetGrad1" x1="0" x2="0" y1="0.5" y2="-0.5" gradientUnits="userSpaceOnUse">
            <stop stop-color="#000000" offset="0" stop-opacity="0.125"/>
            <stop stop-color="#ffffff" offset="0.07" stop-opacity="0.125"/>
            <stop stop-color="#ffffff" offset="0.25" stop-opacity="0.5"/>
            <stop stop-color="#ffffff" offset="0.6" stop-opacity="0.2"/>
            <stop stop-color="#000000" offset="1" stop-opacity="0.33"/>
          </linearGradient>
        </defs>
        <rect x="-1.5" y="-0.5" width="3.0" height="1.0" style="fill:#00cc00; stroke:none"/>
        <rect x="0" y="-0.5" width="1.5" height="1.0" style="fill:#ff0000; stroke:none"/>
        <rect x="-1.5" y="-0.5" width="3.0" height="1.0" style="fill:url(#magnetGrad1); stroke-width:0.04; stroke-linejoin:miter; stroke:#000000"/>
        <text text-anchor="middle" y="-0.5" transform="translate(-0.975,-0.22) scale(0.005,-0.005)" style="fill:#000000; stroke:none; font-size:120px; font-family:Bitstream Vera Sans">S</text>
        <text text-anchor="middle" y="-0.5" transform="translate(0.975,-0.22) scale(0.005,-0.005)" style="fill:#000000; stroke:none; font-size:120px; font-family:Bitstream Vera Sans">N</text>
      </g>
    </g>
  </g>
</svg>
