<?xml version='1.0' encoding='utf-8'?>
<svg xmlns:xlink="http://www.w3.org/1999/xlink" xmlns="http://www.w3.org/2000/svg" version="1.1" baseProfile="full" width="400" height="300">
  <title>VFPt_magnet_B_currents</title>
  <desc>VFPt_magnet_B_currents
created with VectorFieldPlot 1.4
http://commons.wikimedia.org/wiki/User:Geek3/VectorFieldPlot

about: http://commons.wikimedia.org/wiki/File:VFPt_magnet_B_currents.svg
rights: Creative Commons Attribution ShareAlike 4.0
  </desc>
  <defs>
    <clipPath id="image_clip">
      <rect x="-2.0" y="-1.5" width="4.0" height="3.0"/>
    </clipPath>
    <path id="arrow1" stroke="none" fill="#000000" transform="scale(0.01)" d="M 0.3,0 L -2.2,2.25 L 3.8,0 L -2.2,-2.25 L 0.3,0 Z"/>
    <radialGradient id="white_spot" cx="0.65" cy="0.7" r="0.75">
      <stop stop-color="#ffffff" offset="0" stop-opacity="0.7"/>
      <stop stop-color="#ffffff" offset="0.1" stop-opacity="0.5"/>
      <stop stop-color="#ffffff" offset="0.6" stop-opacity="0"/>
      <stop stop-color="#000000" offset="0.6" stop-opacity="0"/>
      <stop stop-color="#000000" offset="0.75" stop-opacity="0.05"/>
      <stop stop-color="#000000" offset="0.85" stop-opacity="0.15"/>
      <stop stop-color="#000000" offset="1" stop-opacity="0.5"/>
    </radialGradient>
    <g id="charge_minus">
      <circle style="fill:#00cc00; stroke:none" cx="0" cy="0" r="14"/>
      <circle cx="0" cy="0" r="14" style="fill:url(#white_spot); stroke:#000000; stroke-width:2"/>
      <path d="M 8,2 H -8 V -2 H 8 V 2 Z" style="fill:#000000; stroke:none"/>
    </g>
    <g id="charge_plus">
      <circle style="fill:#ff0000; stroke:none" cx="0" cy="0" r="14"/>
      <circle cx="0" cy="0" r="14" style="fill:url(#white_spot); stroke:#000000; stroke-width:2"/>
      <path d="M 2,2 V 8 H -2 V 2 H -8 V -2 H -2 V -8 H 2 V -2 H 8 V 2 H 2 Z" style="fill:#000000; stroke:none"/>
    </g>
    <g id="current_in">
      <circle style="fill:#b0b0b0; stroke:none" cx="0" cy="0" r="14"/>
      <circle cx="0" cy="0" r="14" style="fill:url(#white_spot); stroke:#000000; stroke-width:2"/>
      <path d="M 8.5,-11.1 L 11.1,-8.5 L 2.6,0 L 11.1,8.5 L 8.5,11.1 0,2.6 L -8.5,11.1 L -11.1,8.5 L -2.6,0 L -11.1,-8.5 L -8.5,-11.1 L 0,-2.6 L 8.5,-11.1 Z" style="fill:#000000; stroke:none"/>
    </g>
    <g id="current_out">
      <circle style="fill:#b0b0b0; stroke:none" cx="0" cy="0" r="14"/>
      <circle cx="0" cy="0" r="14" style="fill:url(#white_spot); stroke:#000000; stroke-width:2"/>
      <circle cx="0" cy="0" r="4"/>
    </g>
  </defs>
  <rect id="background" x="0" y="0" width="400" height="300" fill="#ffffff"/>
  <g id="image" transform="translate(200.0,150.0) scale(100.0,-100.0)" clip-path="url(#image_clip)">
    <g id="magnet1" transform="translate(0.0,0.0) rotate(0.0)" opacity="0.4">
      <defs>
        <linearGradient id="magnetGrad1" x1="0" x2="0" y1="0.65" y2="-0.65" gradientUnits="userSpaceOnUse">
          <stop stop-color="#000000" offset="0" stop-opacity="0.125"/>
          <stop stop-color="#ffffff" offset="0.07" stop-opacity="0.125"/>
          <stop stop-color="#ffffff" offset="0.25" stop-opacity="0.5"/>
          <stop stop-color="#ffffff" offset="0.6" stop-opacity="0.2"/>
          <stop stop-color="#000000" offset="1" stop-opacity="0.33"/>
        </linearGradient>
      </defs>
      <rect x="-1.2" y="-0.65" width="2.4" height="1.3" style="fill:#00cc00; stroke:none"/>
      <rect x="0" y="-0.65" width="1.2" height="1.3" style="fill:#ff0000; stroke:none"/>
      <rect x="-1.2" y="-0.65" width="2.4" height="1.3" style="fill:url(#magnetGrad1); stroke-width:0.04; stroke-linejoin:miter; stroke:#000000"/>
    </g>
    <g id="fieldlines" fill="none" stroke="#000000" stroke-width="0.02" stroke-linejoin="round" stroke-linecap="round">
      <g id="fieldline1">
        <path d="M 1.2000,-0.6028 L 1.2103,-0.6129 L 1.2188,-0.6230 L 1.2260,-0.6334 L 1.2323,-0.6449 L 1.2383,-0.6584 L 1.2441,-0.6753 L 1.2501,-0.6968 L 1.2561,-0.7238 L 1.2621,-0.7567 L 1.2677,-0.7954 L 1.2726,-0.8390 L 1.2767,-0.8864 L 1.2797,-0.9364 L 1.2815,-0.9882 L 1.2821,-1.0410 L 1.2815,-1.0943 L 1.2795,-1.1477 L 1.2764,-1.2010 L 1.2719,-1.2539 L 1.2663,-1.3064 L 1.2594,-1.3583 L 1.2514,-1.4096 L 1.2422,-1.4602 L 1.2318,-1.5100 M -1.2318,-1.5100 L -1.2422,-1.4599 L -1.2515,-1.4091 L -1.2595,-1.3575 L -1.2664,-1.3053 L -1.2721,-1.2526 L -1.2765,-1.1994 L -1.2796,-1.1458 L -1.2815,-1.0921 L -1.2821,-1.0386 L -1.2815,-0.9855 L -1.2796,-0.9335 L -1.2765,-0.8833 L -1.2723,-0.8359 L -1.2673,-0.7924 L -1.2616,-0.7540 L -1.2556,-0.7213 L -1.2496,-0.6947 L -1.2436,-0.6736 L -1.2377,-0.6570 L -1.2317,-0.6436 L -1.2253,-0.6323 L -1.2179,-0.6218 L -1.2092,-0.6117 L -1.2000,-0.6030"/>
        <g id="arrows1">
          <use xlink:href="#arrow1" transform="translate(1.2818,-1.0499) rotate(-90.56) scale(2.0)"/>
          <use xlink:href="#arrow1" transform="translate(-1.2817,-1.0500) rotate(89.93) scale(2.0)"/>
        </g>
      </g>
      <g id="fieldline2">
        <path d="M -1.2000,-0.6029 L -1.1910,-0.5951 L -1.1772,-0.5849 L -1.1610,-0.5746 L -1.1424,-0.5642 L -1.1212,-0.5539 L -1.0973,-0.5439 L -1.0707,-0.5340 L -1.0411,-0.5245 L -1.0084,-0.5154 L -0.9721,-0.5066 L -0.9320,-0.4983 L -0.8877,-0.4904 L -0.8386,-0.4830 L -0.7839,-0.4762 L -0.7228,-0.4698 L -0.6544,-0.4641 L -0.5772,-0.4589 L -0.4895,-0.4544 L -0.3897,-0.4507 L -0.2769,-0.4477 L -0.1516,-0.4458 L -0.0181,-0.4450 L 0.1173,-0.4455 L 0.2457,-0.4471 L 0.3620,-0.4498 L 0.4649,-0.4534 L 0.5554,-0.4577 L 0.6351,-0.4627 L 0.7058,-0.4683 L 0.7687,-0.4745 L 0.8250,-0.4812 L 0.8754,-0.4884 L 0.9209,-0.4962 L 0.9621,-0.5044 L 0.9993,-0.5131 L 1.0329,-0.5221 L 1.0633,-0.5315 L 1.0907,-0.5413 L 1.1152,-0.5513 L 1.1371,-0.5615 L 1.1564,-0.5719 L 1.1732,-0.5822 L 1.1877,-0.5926 L 1.2000,-0.6028"/>
        <g id="arrows2">
          <use xlink:href="#arrow1" transform="translate(-0.6124,-0.4614) rotate(3.64) scale(2.0)"/>
          <use xlink:href="#arrow1" transform="translate(0.6123,-0.4614) rotate(-3.94) scale(2.0)"/>
        </g>
      </g>
      <g id="fieldline3">
        <path d="M 1.1623,-0.6500 L 1.1544,-0.6666 L 1.1450,-0.6895 L 1.1324,-0.7245 L 1.1015,-0.8175 L 1.0768,-0.8904 L 1.0556,-0.9493 L 1.0351,-1.0026 L 1.0147,-1.0525 L 0.9939,-1.0998 L 0.9728,-1.1449 L 0.9511,-1.1882 L 0.9290,-1.2297 L 0.9062,-1.2697 L 0.8829,-1.3082 L 0.8590,-1.3452 L 0.8346,-1.3808 L 0.8095,-1.4151 L 0.7839,-1.4481 L 0.7577,-1.4797 L 0.7310,-1.5100 M -0.7310,-1.5100 L -0.7578,-1.4796 L -0.7841,-1.4478 L -0.8098,-1.4147 L -0.8350,-1.3802 L -0.8596,-1.3444 L -0.8835,-1.3072 L -0.9069,-1.2685 L -0.9298,-1.2283 L -0.9520,-1.1865 L -0.9737,-1.1430 L -0.9949,-1.0976 L -1.0157,-1.0500 L -1.0362,-0.9998 L -1.0568,-0.9460 L -1.0782,-0.8864 L -1.1035,-0.8113 L -1.1329,-0.7231 L -1.1454,-0.6886 L -1.1547,-0.6659 L -1.1624,-0.6500"/>
        <g id="arrows3">
          <use xlink:href="#arrow1" transform="translate(0.9918,-1.1035) rotate(-114.83) scale(2.0)"/>
          <use xlink:href="#arrow1" transform="translate(-0.9918,-1.1035) rotate(114.18) scale(2.0)"/>
        </g>
      </g>
      <g id="fieldline4">
        <path d="M -1.1623,-0.6500 L -1.1427,-0.6387 L -1.1216,-0.6281 L -1.0982,-0.6178 L -1.0722,-0.6078 L -1.0432,-0.5980 L -1.0111,-0.5886 L -0.9756,-0.5796 L -0.9364,-0.5710 L -0.8931,-0.5628 L -0.8451,-0.5551 L -0.7919,-0.5480 L -0.7328,-0.5413 L -0.6667,-0.5352 L -0.5926,-0.5297 L -0.5090,-0.5249 L -0.4148,-0.5207 L -0.3092,-0.5174 L -0.1918,-0.5151 L -0.0648,-0.5139 L 0.0658,-0.5139 L 0.1923,-0.5151 L 0.3096,-0.5175 L 0.4153,-0.5208 L 0.5095,-0.5249 L 0.5931,-0.5298 L 0.6671,-0.5353 L 0.7331,-0.5413 L 0.7922,-0.5480 L 0.8454,-0.5552 L 0.8934,-0.5629 L 0.9367,-0.5711 L 0.9759,-0.5797 L 1.0113,-0.5887 L 1.0433,-0.5981 L 1.0723,-0.6078 L 1.0983,-0.6179 L 1.1217,-0.6282 L 1.1428,-0.6388 L 1.1623,-0.6500"/>
        <g id="arrows4">
          <use xlink:href="#arrow1" transform="translate(-0.5897,-0.5298) rotate(3.57) scale(2.0)"/>
          <use xlink:href="#arrow1" transform="translate(0.5896,-0.5298) rotate(-3.92) scale(2.0)"/>
        </g>
      </g>
      <g id="fieldline5">
        <path d="M 1.2000,-0.4921 L 1.2223,-0.5045 L 1.2432,-0.5175 L 1.2631,-0.5313 L 1.2820,-0.5461 L 1.3004,-0.5620 L 1.3184,-0.5792 L 1.3363,-0.5982 L 1.3543,-0.6191 L 1.3726,-0.6424 L 1.3913,-0.6683 L 1.4105,-0.6972 L 1.4302,-0.7293 L 1.4505,-0.7648 L 1.4713,-0.8037 L 1.4923,-0.8459 L 1.5134,-0.8912 L 1.5345,-0.9394 L 1.5552,-0.9901 L 1.5754,-1.0430 L 1.5950,-1.0978 L 1.6138,-1.1540 L 1.6316,-1.2115 L 1.6485,-1.2700 L 1.6642,-1.3292 L 1.6788,-1.3891 L 1.6922,-1.4494 L 1.7043,-1.5100 M -1.7043,-1.5100 L -1.6922,-1.4494 L -1.6788,-1.3891 L -1.6642,-1.3292 L -1.6485,-1.2700 L -1.6316,-1.2115 L -1.6138,-1.1540 L -1.5950,-1.0977 L -1.5754,-1.0430 L -1.5552,-0.9901 L -1.5344,-0.9393 L -1.5134,-0.8912 L -1.4923,-0.8459 L -1.4713,-0.8037 L -1.4505,-0.7648 L -1.4302,-0.7293 L -1.4105,-0.6972 L -1.3913,-0.6683 L -1.3726,-0.6424 L -1.3543,-0.6191 L -1.3363,-0.5982 L -1.3184,-0.5792 L -1.3004,-0.5620 L -1.2820,-0.5461 L -1.2631,-0.5313 L -1.2432,-0.5175 L -1.2228,-0.5048 L -1.2000,-0.4922"/>
        <g id="arrows5">
          <use xlink:href="#arrow1" transform="translate(1.5393,-0.9518) rotate(-67.74) scale(2.0)"/>
          <use xlink:href="#arrow1" transform="translate(-1.5393,-0.9518) rotate(67.08) scale(2.0)"/>
        </g>
      </g>
      <g id="fieldline6">
        <path d="M -1.2000,-0.4925 L -1.1870,-0.4856 L -1.1626,-0.4743 L -1.1360,-0.4634 L -1.1072,-0.4531 L -1.0760,-0.4432 L -1.0421,-0.4338 L -1.0050,-0.4250 L -0.9646,-0.4166 L -0.9201,-0.4088 L -0.8711,-0.4015 L -0.8169,-0.3947 L -0.7562,-0.3885 L -0.6883,-0.3829 L -0.6111,-0.3778 L -0.5232,-0.3734 L -0.4226,-0.3696 L -0.3071,-0.3667 L -0.1762,-0.3646 L -0.0336,-0.3637 L 0.1117,-0.3641 L 0.2487,-0.3656 L 0.3714,-0.3682 L 0.4786,-0.3715 L 0.5720,-0.3757 L 0.6539,-0.3804 L 0.7260,-0.3858 L 0.7898,-0.3918 L 0.8468,-0.3983 L 0.8982,-0.4054 L 0.9447,-0.4130 L 0.9869,-0.4211 L 1.0255,-0.4297 L 1.0608,-0.4388 L 1.0932,-0.4485 L 1.1231,-0.4586 L 1.1507,-0.4693 L 1.1762,-0.4804 L 1.2000,-0.4921"/>
        <g id="arrows6">
          <use xlink:href="#arrow1" transform="translate(-0.6075,-0.3778) rotate(3.11) scale(2.0)"/>
          <use xlink:href="#arrow1" transform="translate(0.6074,-0.3777) rotate(-3.38) scale(2.0)"/>
        </g>
      </g>
      <g id="fieldline7">
        <path d="M 1.0002,-0.6500 L 0.9623,-0.6919 L 0.8600,-0.8080 L 0.8159,-0.8564 L 0.7772,-0.8970 L 0.7409,-0.9333 L 0.7060,-0.9665 L 0.6720,-0.9972 L 0.6385,-1.0256 L 0.6054,-1.0521 L 0.5725,-1.0769 L 0.5398,-1.0999 L 0.5071,-1.1214 L 0.4744,-1.1413 L 0.4418,-1.1598 L 0.4091,-1.1768 L 0.3764,-1.1924 L 0.3437,-1.2066 L 0.3109,-1.2195 L 0.2781,-1.2310 L 0.2452,-1.2412 L 0.2122,-1.2501 L 0.1793,-1.2577 L 0.1463,-1.2640 L 0.1132,-1.2690 L 0.0802,-1.2727 L 0.0471,-1.2752 L 0.0140,-1.2764 L -0.0191,-1.2763 L -0.0522,-1.2749 L -0.0853,-1.2722 L -0.1183,-1.2683 L -0.1514,-1.2631 L -0.1844,-1.2566 L -0.2173,-1.2488 L -0.2503,-1.2397 L -0.2832,-1.2293 L -0.3160,-1.2176 L -0.3488,-1.2045 L -0.3815,-1.1901 L -0.4142,-1.1743 L -0.4468,-1.1570 L -0.4795,-1.1383 L -0.5121,-1.1182 L -0.5448,-1.0965 L -0.5776,-1.0731 L -0.6106,-1.0481 L -0.6437,-1.0213 L -0.6773,-0.9925 L -0.7114,-0.9615 L -0.7465,-0.9279 L -0.7831,-0.8909 L -0.8225,-0.8493 L -0.8686,-0.7984 L -0.9653,-0.6885 L -1.0003,-0.6500"/>
        <g id="arrows7">
          <use xlink:href="#arrow1" transform="translate(0.5677,-1.0796) rotate(-144.84) scale(2.0)"/>
          <use xlink:href="#arrow1" transform="translate(-0.5678,-1.0797) rotate(143.63) scale(2.0)"/>
        </g>
      </g>
      <g id="fieldline8">
        <path d="M -1.0003,-0.6500 L -0.9608,-0.6408 L -0.9176,-0.6320 L -0.8704,-0.6238 L -0.8183,-0.6161 L -0.7608,-0.6090 L -0.6971,-0.6025 L -0.6261,-0.5965 L -0.5465,-0.5912 L -0.4573,-0.5866 L -0.3577,-0.5827 L -0.2470,-0.5799 L -0.1261,-0.5780 L 0.0007,-0.5774 L 0.1271,-0.5780 L 0.2478,-0.5799 L 0.3588,-0.5828 L 0.4585,-0.5866 L 0.5475,-0.5912 L 0.6267,-0.5965 L 0.6977,-0.6025 L 0.7615,-0.6091 L 0.8189,-0.6162 L 0.8709,-0.6239 L 0.9181,-0.6321 L 0.9612,-0.6409 L 1.0002,-0.6500"/>
        <g id="arrows8">
          <use xlink:href="#arrow1" transform="translate(-0.5023,-0.5889) rotate(2.91) scale(2.0)"/>
          <use xlink:href="#arrow1" transform="translate(0.5023,-0.5889) rotate(-3.02) scale(2.0)"/>
        </g>
      </g>
      <g id="fieldline9">
        <path d="M 1.2000,-0.3640 L 1.2336,-0.3757 L 1.2662,-0.3882 L 1.2980,-0.4017 L 1.3292,-0.4164 L 1.3602,-0.4322 L 1.3913,-0.4495 L 1.4226,-0.4683 L 1.4544,-0.4889 L 1.4869,-0.5114 L 1.5204,-0.5361 L 1.5549,-0.5631 L 1.5907,-0.5926 L 1.6278,-0.6249 L 1.6662,-0.6599 L 1.7059,-0.6979 L 1.7469,-0.7388 L 1.7891,-0.7825 L 1.8321,-0.8291 L 1.8760,-0.8782 L 1.9203,-0.9299 L 1.9651,-0.9838 L 2.0100,-1.0399 M -2.0100,-1.0399 L -1.9651,-0.9838 L -1.9204,-0.9299 L -1.8760,-0.8783 L -1.8322,-0.8291 L -1.7891,-0.7826 L -1.7470,-0.7388 L -1.7060,-0.6980 L -1.6663,-0.6600 L -1.6279,-0.6250 L -1.5908,-0.5927 L -1.5550,-0.5632 L -1.5205,-0.5362 L -1.4870,-0.5115 L -1.4545,-0.4890 L -1.4227,-0.4684 L -1.3914,-0.4496 L -1.3603,-0.4323 L -1.3293,-0.4164 L -1.2981,-0.4018 L -1.2663,-0.3883 L -1.2340,-0.3758 L -1.2000,-0.3646"/>
        <g id="arrows9">
          <use xlink:href="#arrow1" transform="translate(1.6498,-0.6452) rotate(-42.89) scale(2.0)"/>
          <use xlink:href="#arrow1" transform="translate(-1.6499,-0.6453) rotate(42.02) scale(2.0)"/>
        </g>
      </g>
      <g id="fieldline10">
        <path d="M -1.2000,-0.3640 L -1.1642,-0.3529 L -1.1265,-0.3427 L -1.0865,-0.3331 L -1.0438,-0.3243 L -0.9979,-0.3161 L -0.9479,-0.3085 L -0.8933,-0.3016 L -0.8328,-0.2953 L -0.7651,-0.2895 L -0.6886,-0.2844 L -0.6006,-0.2799 L -0.4991,-0.2761 L -0.3802,-0.2730 L -0.2412,-0.2707 L -0.0837,-0.2695 L 0.0823,-0.2695 L 0.2402,-0.2707 L 0.3795,-0.2730 L 0.4989,-0.2761 L 0.6007,-0.2799 L 0.6883,-0.2844 L 0.7649,-0.2895 L 0.8327,-0.2953 L 0.8931,-0.3016 L 0.9479,-0.3085 L 0.9978,-0.3161 L 1.0438,-0.3242 L 1.0865,-0.3331 L 1.1264,-0.3426 L 1.1641,-0.3529 L 1.2000,-0.3640"/>
        <g id="arrows10">
          <use xlink:href="#arrow1" transform="translate(-0.6038,-0.2803) rotate(2.43) scale(2.0)"/>
          <use xlink:href="#arrow1" transform="translate(0.6038,-0.2803) rotate(-2.73) scale(2.0)"/>
        </g>
      </g>
      <g id="fieldline11">
        <path d="M 0.6411,-0.6500 L 0.5918,-0.6764 L 0.5464,-0.6995 L 0.5035,-0.7199 L 0.4623,-0.7382 L 0.4223,-0.7547 L 0.3834,-0.7694 L 0.3451,-0.7825 L 0.3075,-0.7942 L 0.2704,-0.8044 L 0.2337,-0.8132 L 0.1973,-0.8208 L 0.1611,-0.8270 L 0.1252,-0.8319 L 0.0893,-0.8356 L 0.0535,-0.8381 L 0.0179,-0.8393 L -0.0178,-0.8393 L -0.0535,-0.8381 L -0.0892,-0.8356 L -0.1250,-0.8319 L -0.1610,-0.8270 L -0.1972,-0.8208 L -0.2336,-0.8133 L -0.2703,-0.8044 L -0.3075,-0.7942 L -0.3450,-0.7825 L -0.3832,-0.7694 L -0.4222,-0.7547 L -0.4621,-0.7383 L -0.5034,-0.7200 L -0.5463,-0.6995 L -0.5893,-0.6777 L -0.6408,-0.6500"/>
        <g id="arrows11">
          <use xlink:href="#arrow1" transform="translate(0.0001,-0.8389) rotate(179.24) scale(2.0)"/>
        </g>
      </g>
      <g id="fieldline12">
        <path d="M -0.6412,-0.6500 L -0.5662,-0.6447 L -0.4830,-0.6400 L -0.3904,-0.6360 L -0.2884,-0.6329 L -0.1775,-0.6307 L -0.0597,-0.6295 L 0.0611,-0.6296 L 0.1786,-0.6307 L 0.2896,-0.6329 L 0.3915,-0.6361 L 0.4840,-0.6400 L 0.5670,-0.6447 L 0.6411,-0.6500"/>
        <g id="arrows12">
          <use xlink:href="#arrow1" transform="translate(-0.0000,-0.6296) rotate(-0.00) scale(2.0)"/>
        </g>
      </g>
      <g id="fieldline13">
        <path d="M 1.2000,-0.2234 L 1.2480,-0.2328 L 1.2950,-0.2431 L 1.3417,-0.2545 L 1.3883,-0.2671 L 1.4354,-0.2809 L 1.4834,-0.2963 L 1.5327,-0.3132 L 1.5837,-0.3320 L 1.6366,-0.3527 L 1.6919,-0.3756 L 1.7497,-0.4008 L 1.8104,-0.4285 L 1.8740,-0.4588 L 1.9405,-0.4918 L 2.0100,-0.5275 M -2.0100,-0.5275 L -1.9405,-0.4918 L -1.8740,-0.4588 L -1.8104,-0.4285 L -1.7497,-0.4008 L -1.6918,-0.3756 L -1.6366,-0.3527 L -1.5836,-0.3320 L -1.5327,-0.3132 L -1.4834,-0.2963 L -1.4354,-0.2809 L -1.3882,-0.2670 L -1.3416,-0.2545 L -1.2950,-0.2431 L -1.2505,-0.2333 L -1.2000,-0.2235"/>
        <g id="arrows13">
          <use xlink:href="#arrow1" transform="translate(1.6162,-0.3449) rotate(-21.80) scale(2.0)"/>
          <use xlink:href="#arrow1" transform="translate(-1.6162,-0.3448) rotate(21.14) scale(2.0)"/>
        </g>
      </g>
      <g id="fieldline14">
        <path d="M -1.2000,-0.2236 L -1.1441,-0.2139 L -1.0945,-0.2066 L -1.0366,-0.1994 L -0.9742,-0.1929 L -0.9058,-0.1870 L -0.8296,-0.1819 L -0.7431,-0.1774 L -0.6425,-0.1735 L -0.5224,-0.1703 L -0.3780,-0.1677 L -0.2030,-0.1660 L -0.0024,-0.1654 L 0.1987,-0.1660 L 0.3747,-0.1677 L 0.5203,-0.1702 L 0.6398,-0.1734 L 0.7408,-0.1773 L 0.8278,-0.1818 L 0.9043,-0.1869 L 0.9727,-0.1927 L 1.0352,-0.1992 L 1.0932,-0.2064 L 1.1479,-0.2145 L 1.2000,-0.2234"/>
        <g id="arrows14">
          <use xlink:href="#arrow1" transform="translate(-0.6014,-0.1724) rotate(1.55) scale(2.0)"/>
          <use xlink:href="#arrow1" transform="translate(0.6013,-0.1724) rotate(-1.64) scale(2.0)"/>
        </g>
      </g>
      <g id="fieldline15">
        <path d="M 1.2000,-0.0753 L 1.2893,-0.0812 L 1.3775,-0.0881 L 1.4674,-0.0964 L 1.5610,-0.1062 L 1.6604,-0.1179 L 1.7674,-0.1316 L 1.8836,-0.1477 L 2.0100,-0.1665 M -2.0100,-0.1665 L -1.8802,-0.1473 L -1.7612,-0.1308 L -1.6519,-0.1168 L -1.5504,-0.1051 L -1.4548,-0.0952 L -1.3628,-0.0869 L -1.2725,-0.0800 L -1.2000,-0.0754"/>
        <g id="arrows15">
          <use xlink:href="#arrow1" transform="translate(1.6060,-0.1115) rotate(-6.68) scale(2.0)"/>
          <use xlink:href="#arrow1" transform="translate(-1.6060,-0.1115) rotate(6.61) scale(2.0)"/>
        </g>
      </g>
      <g id="fieldline16">
        <path d="M -1.2000,-0.0756 L -1.1311,-0.0715 L -1.0284,-0.0671 L -0.9130,-0.0634 L -0.7760,-0.0605 L -0.6037,-0.0582 L -0.3704,-0.0565 L -0.0506,-0.0558 L 0.2883,-0.0562 L 0.5437,-0.0576 L 0.7312,-0.0597 L 0.8767,-0.0625 L 0.9972,-0.0660 L 1.1028,-0.0702 L 1.2000,-0.0753"/>
        <g id="arrows16">
          <use xlink:href="#arrow1" transform="translate(-0.6002,-0.0582) rotate(0.49) scale(2.0)"/>
          <use xlink:href="#arrow1" transform="translate(0.6001,-0.0583) rotate(-0.65) scale(2.0)"/>
        </g>
      </g>
      <g id="fieldline17">
        <path d="M 1.2000,0.0753 L 1.2893,0.0812 L 1.3775,0.0881 L 1.4674,0.0964 L 1.5610,0.1062 L 1.6604,0.1179 L 1.7674,0.1316 L 1.8836,0.1477 L 2.0100,0.1665 M -2.0100,0.1665 L -1.8802,0.1473 L -1.7612,0.1308 L -1.6519,0.1168 L -1.5504,0.1051 L -1.4548,0.0952 L -1.3628,0.0869 L -1.2725,0.0800 L -1.2000,0.0754"/>
        <g id="arrows17">
          <use xlink:href="#arrow1" transform="translate(1.6060,0.1115) rotate(6.68) scale(2.0)"/>
          <use xlink:href="#arrow1" transform="translate(-1.6060,0.1115) rotate(-6.61) scale(2.0)"/>
        </g>
      </g>
      <g id="fieldline18">
        <path d="M -1.2000,0.0756 L -1.1311,0.0715 L -1.0284,0.0671 L -0.9130,0.0634 L -0.7760,0.0605 L -0.6037,0.0582 L -0.3704,0.0565 L -0.0506,0.0558 L 0.2883,0.0562 L 0.5437,0.0576 L 0.7312,0.0597 L 0.8767,0.0625 L 0.9972,0.0660 L 1.1028,0.0702 L 1.2000,0.0753"/>
        <g id="arrows18">
          <use xlink:href="#arrow1" transform="translate(-0.6002,0.0582) rotate(-0.49) scale(2.0)"/>
          <use xlink:href="#arrow1" transform="translate(0.6001,0.0583) rotate(0.65) scale(2.0)"/>
        </g>
      </g>
      <g id="fieldline19">
        <path d="M 1.2000,0.2234 L 1.2480,0.2328 L 1.2950,0.2431 L 1.3417,0.2545 L 1.3883,0.2671 L 1.4354,0.2809 L 1.4834,0.2963 L 1.5327,0.3132 L 1.5837,0.3320 L 1.6366,0.3527 L 1.6919,0.3756 L 1.7497,0.4008 L 1.8104,0.4285 L 1.8740,0.4588 L 1.9405,0.4918 L 2.0100,0.5275 M -2.0100,0.5275 L -1.9405,0.4918 L -1.8740,0.4588 L -1.8104,0.4285 L -1.7497,0.4008 L -1.6918,0.3756 L -1.6366,0.3527 L -1.5836,0.3320 L -1.5327,0.3132 L -1.4834,0.2963 L -1.4354,0.2809 L -1.3882,0.2670 L -1.3416,0.2545 L -1.2950,0.2431 L -1.2505,0.2333 L -1.2000,0.2235"/>
        <g id="arrows19">
          <use xlink:href="#arrow1" transform="translate(1.6162,0.3449) rotate(21.80) scale(2.0)"/>
          <use xlink:href="#arrow1" transform="translate(-1.6162,0.3448) rotate(-21.14) scale(2.0)"/>
        </g>
      </g>
      <g id="fieldline20">
        <path d="M -1.2000,0.2236 L -1.1441,0.2139 L -1.0945,0.2066 L -1.0366,0.1994 L -0.9742,0.1929 L -0.9058,0.1870 L -0.8296,0.1819 L -0.7431,0.1774 L -0.6425,0.1735 L -0.5224,0.1703 L -0.3780,0.1677 L -0.2030,0.1660 L -0.0024,0.1654 L 0.1987,0.1660 L 0.3747,0.1677 L 0.5203,0.1702 L 0.6398,0.1734 L 0.7408,0.1773 L 0.8278,0.1818 L 0.9043,0.1869 L 0.9727,0.1927 L 1.0352,0.1992 L 1.0932,0.2064 L 1.1479,0.2145 L 1.2000,0.2234"/>
        <g id="arrows20">
          <use xlink:href="#arrow1" transform="translate(-0.6014,0.1724) rotate(-1.55) scale(2.0)"/>
          <use xlink:href="#arrow1" transform="translate(0.6013,0.1724) rotate(1.64) scale(2.0)"/>
        </g>
      </g>
      <g id="fieldline21">
        <path d="M 1.2000,0.3640 L 1.2336,0.3757 L 1.2662,0.3882 L 1.2980,0.4017 L 1.3292,0.4164 L 1.3602,0.4322 L 1.3913,0.4495 L 1.4226,0.4683 L 1.4544,0.4889 L 1.4869,0.5114 L 1.5204,0.5361 L 1.5549,0.5631 L 1.5907,0.5926 L 1.6278,0.6249 L 1.6662,0.6599 L 1.7059,0.6979 L 1.7469,0.7388 L 1.7891,0.7825 L 1.8321,0.8291 L 1.8760,0.8782 L 1.9203,0.9299 L 1.9651,0.9838 L 2.0100,1.0399 M -2.0100,1.0399 L -1.9651,0.9838 L -1.9204,0.9299 L -1.8760,0.8783 L -1.8322,0.8291 L -1.7891,0.7826 L -1.7470,0.7388 L -1.7060,0.6980 L -1.6663,0.6600 L -1.6279,0.6250 L -1.5908,0.5927 L -1.5550,0.5632 L -1.5205,0.5362 L -1.4870,0.5115 L -1.4545,0.4890 L -1.4227,0.4684 L -1.3914,0.4496 L -1.3603,0.4323 L -1.3293,0.4164 L -1.2981,0.4018 L -1.2663,0.3883 L -1.2340,0.3758 L -1.2000,0.3646"/>
        <g id="arrows21">
          <use xlink:href="#arrow1" transform="translate(1.6498,0.6452) rotate(42.89) scale(2.0)"/>
          <use xlink:href="#arrow1" transform="translate(-1.6499,0.6453) rotate(-42.02) scale(2.0)"/>
        </g>
      </g>
      <g id="fieldline22">
        <path d="M -1.2000,0.3640 L -1.1642,0.3529 L -1.1265,0.3427 L -1.0865,0.3331 L -1.0438,0.3243 L -0.9979,0.3161 L -0.9479,0.3085 L -0.8933,0.3016 L -0.8328,0.2953 L -0.7651,0.2895 L -0.6886,0.2844 L -0.6006,0.2799 L -0.4991,0.2761 L -0.3802,0.2730 L -0.2412,0.2707 L -0.0837,0.2695 L 0.0823,0.2695 L 0.2402,0.2707 L 0.3795,0.2730 L 0.4989,0.2761 L 0.6007,0.2799 L 0.6883,0.2844 L 0.7649,0.2895 L 0.8327,0.2953 L 0.8931,0.3016 L 0.9479,0.3085 L 0.9978,0.3161 L 1.0438,0.3242 L 1.0865,0.3331 L 1.1264,0.3426 L 1.1641,0.3529 L 1.2000,0.3640"/>
        <g id="arrows22">
          <use xlink:href="#arrow1" transform="translate(-0.6038,0.2803) rotate(-2.43) scale(2.0)"/>
          <use xlink:href="#arrow1" transform="translate(0.6038,0.2803) rotate(2.73) scale(2.0)"/>
        </g>
      </g>
      <g id="fieldline23">
        <path d="M 0.6411,0.6500 L 0.5918,0.6764 L 0.5464,0.6995 L 0.5035,0.7199 L 0.4623,0.7382 L 0.4223,0.7547 L 0.3834,0.7694 L 0.3451,0.7825 L 0.3075,0.7942 L 0.2704,0.8044 L 0.2337,0.8132 L 0.1973,0.8208 L 0.1611,0.8270 L 0.1252,0.8319 L 0.0893,0.8356 L 0.0535,0.8381 L 0.0179,0.8393 L -0.0178,0.8393 L -0.0535,0.8381 L -0.0892,0.8356 L -0.1250,0.8319 L -0.1610,0.8270 L -0.1972,0.8208 L -0.2336,0.8133 L -0.2703,0.8044 L -0.3075,0.7942 L -0.3450,0.7825 L -0.3832,0.7694 L -0.4222,0.7547 L -0.4621,0.7383 L -0.5034,0.7200 L -0.5463,0.6995 L -0.5893,0.6777 L -0.6408,0.6500"/>
        <g id="arrows23">
          <use xlink:href="#arrow1" transform="translate(0.0001,0.8389) rotate(-179.24) scale(2.0)"/>
        </g>
      </g>
      <g id="fieldline24">
        <path d="M -0.6412,0.6500 L -0.5661,0.6447 L -0.4828,0.6400 L -0.3906,0.6360 L -0.2886,0.6329 L -0.1774,0.6307 L -0.0594,0.6295 L 0.0607,0.6296 L 0.1786,0.6307 L 0.2898,0.6329 L 0.3916,0.6361 L 0.4838,0.6400 L 0.5669,0.6447 L 0.6411,0.6500"/>
        <g id="arrows24">
          <use xlink:href="#arrow1" transform="translate(-0.0000,0.6296) rotate(0.00) scale(2.0)"/>
        </g>
      </g>
      <g id="fieldline25">
        <path d="M 1.2000,0.4921 L 1.2223,0.5045 L 1.2432,0.5175 L 1.2631,0.5313 L 1.2820,0.5461 L 1.3004,0.5620 L 1.3184,0.5792 L 1.3363,0.5982 L 1.3543,0.6191 L 1.3726,0.6424 L 1.3913,0.6683 L 1.4105,0.6972 L 1.4302,0.7293 L 1.4505,0.7648 L 1.4713,0.8037 L 1.4923,0.8459 L 1.5134,0.8912 L 1.5345,0.9394 L 1.5552,0.9901 L 1.5754,1.0430 L 1.5950,1.0978 L 1.6138,1.1540 L 1.6316,1.2115 L 1.6485,1.2700 L 1.6642,1.3292 L 1.6788,1.3891 L 1.6922,1.4494 L 1.7043,1.5100 M -1.7043,1.5100 L -1.6922,1.4494 L -1.6788,1.3891 L -1.6642,1.3292 L -1.6485,1.2700 L -1.6316,1.2115 L -1.6138,1.1540 L -1.5950,1.0977 L -1.5754,1.0430 L -1.5552,0.9901 L -1.5344,0.9393 L -1.5134,0.8912 L -1.4923,0.8459 L -1.4713,0.8037 L -1.4505,0.7648 L -1.4302,0.7293 L -1.4105,0.6972 L -1.3913,0.6683 L -1.3726,0.6424 L -1.3543,0.6191 L -1.3363,0.5982 L -1.3184,0.5792 L -1.3004,0.5620 L -1.2820,0.5461 L -1.2631,0.5313 L -1.2432,0.5175 L -1.2228,0.5048 L -1.2000,0.4922"/>
        <g id="arrows25">
          <use xlink:href="#arrow1" transform="translate(1.5393,0.9518) rotate(67.74) scale(2.0)"/>
          <use xlink:href="#arrow1" transform="translate(-1.5393,0.9518) rotate(-67.08) scale(2.0)"/>
        </g>
      </g>
      <g id="fieldline26">
        <path d="M -1.2000,0.4925 L -1.1870,0.4856 L -1.1626,0.4743 L -1.1360,0.4634 L -1.1072,0.4531 L -1.0760,0.4432 L -1.0421,0.4338 L -1.0050,0.4250 L -0.9646,0.4166 L -0.9201,0.4088 L -0.8711,0.4015 L -0.8169,0.3947 L -0.7562,0.3885 L -0.6883,0.3829 L -0.6111,0.3778 L -0.5232,0.3734 L -0.4226,0.3696 L -0.3071,0.3667 L -0.1762,0.3646 L -0.0336,0.3637 L 0.1117,0.3641 L 0.2487,0.3656 L 0.3714,0.3682 L 0.4786,0.3715 L 0.5720,0.3757 L 0.6539,0.3804 L 0.7260,0.3858 L 0.7898,0.3918 L 0.8468,0.3983 L 0.8982,0.4054 L 0.9447,0.4130 L 0.9869,0.4211 L 1.0255,0.4297 L 1.0608,0.4388 L 1.0932,0.4485 L 1.1231,0.4586 L 1.1507,0.4693 L 1.1762,0.4804 L 1.2000,0.4921"/>
        <g id="arrows26">
          <use xlink:href="#arrow1" transform="translate(-0.6075,0.3778) rotate(-3.11) scale(2.0)"/>
          <use xlink:href="#arrow1" transform="translate(0.6074,0.3777) rotate(3.38) scale(2.0)"/>
        </g>
      </g>
      <g id="fieldline27">
        <path d="M 1.0002,0.6500 L 0.9623,0.6919 L 0.8600,0.8080 L 0.8159,0.8564 L 0.7772,0.8970 L 0.7409,0.9333 L 0.7060,0.9665 L 0.6720,0.9972 L 0.6385,1.0256 L 0.6054,1.0521 L 0.5725,1.0769 L 0.5398,1.0999 L 0.5071,1.1214 L 0.4744,1.1413 L 0.4418,1.1598 L 0.4091,1.1768 L 0.3764,1.1924 L 0.3437,1.2066 L 0.3109,1.2195 L 0.2781,1.2310 L 0.2452,1.2412 L 0.2122,1.2501 L 0.1793,1.2577 L 0.1463,1.2640 L 0.1132,1.2690 L 0.0802,1.2727 L 0.0471,1.2752 L 0.0140,1.2764 L -0.0191,1.2763 L -0.0522,1.2749 L -0.0853,1.2722 L -0.1183,1.2683 L -0.1514,1.2631 L -0.1844,1.2566 L -0.2173,1.2488 L -0.2503,1.2397 L -0.2832,1.2293 L -0.3160,1.2176 L -0.3488,1.2045 L -0.3815,1.1901 L -0.4142,1.1743 L -0.4468,1.1570 L -0.4795,1.1383 L -0.5121,1.1182 L -0.5448,1.0965 L -0.5776,1.0731 L -0.6106,1.0481 L -0.6437,1.0213 L -0.6773,0.9925 L -0.7114,0.9615 L -0.7465,0.9279 L -0.7831,0.8909 L -0.8225,0.8493 L -0.8686,0.7984 L -0.9653,0.6885 L -1.0003,0.6500"/>
        <g id="arrows27">
          <use xlink:href="#arrow1" transform="translate(0.5677,1.0796) rotate(144.84) scale(2.0)"/>
          <use xlink:href="#arrow1" transform="translate(-0.5678,1.0797) rotate(-143.63) scale(2.0)"/>
        </g>
      </g>
      <g id="fieldline28">
        <path d="M -1.0003,0.6500 L -0.9607,0.6408 L -0.9176,0.6320 L -0.8703,0.6238 L -0.8184,0.6161 L -0.7609,0.6090 L -0.6970,0.6024 L -0.6259,0.5965 L -0.5466,0.5912 L -0.4576,0.5866 L -0.3576,0.5827 L -0.2466,0.5798 L -0.1259,0.5780 L 0.0004,0.5774 L 0.1274,0.5780 L 0.2483,0.5799 L 0.3590,0.5828 L 0.4585,0.5866 L 0.5473,0.5912 L 0.6268,0.5965 L 0.6978,0.6025 L 0.7615,0.6091 L 0.8189,0.6162 L 0.8709,0.6239 L 0.9181,0.6321 L 0.9612,0.6409 L 1.0002,0.6500"/>
        <g id="arrows28">
          <use xlink:href="#arrow1" transform="translate(-0.5023,0.5889) rotate(-2.91) scale(2.0)"/>
          <use xlink:href="#arrow1" transform="translate(0.5023,0.5889) rotate(3.02) scale(2.0)"/>
        </g>
      </g>
      <g id="fieldline29">
        <path d="M 1.2000,0.6028 L 1.2103,0.6129 L 1.2188,0.6230 L 1.2260,0.6334 L 1.2323,0.6449 L 1.2383,0.6584 L 1.2441,0.6753 L 1.2501,0.6968 L 1.2561,0.7238 L 1.2621,0.7567 L 1.2677,0.7954 L 1.2726,0.8390 L 1.2767,0.8864 L 1.2797,0.9364 L 1.2815,0.9882 L 1.2821,1.0410 L 1.2815,1.0943 L 1.2795,1.1477 L 1.2764,1.2010 L 1.2719,1.2539 L 1.2663,1.3064 L 1.2594,1.3583 L 1.2514,1.4096 L 1.2422,1.4602 L 1.2318,1.5100 M -1.2318,1.5100 L -1.2422,1.4599 L -1.2515,1.4091 L -1.2595,1.3575 L -1.2664,1.3053 L -1.2721,1.2526 L -1.2765,1.1994 L -1.2796,1.1458 L -1.2815,1.0921 L -1.2821,1.0386 L -1.2815,0.9855 L -1.2796,0.9335 L -1.2765,0.8833 L -1.2723,0.8359 L -1.2673,0.7924 L -1.2616,0.7540 L -1.2556,0.7213 L -1.2496,0.6947 L -1.2436,0.6736 L -1.2377,0.6570 L -1.2317,0.6436 L -1.2253,0.6323 L -1.2179,0.6218 L -1.2092,0.6117 L -1.2000,0.6030"/>
        <g id="arrows29">
          <use xlink:href="#arrow1" transform="translate(1.2818,1.0499) rotate(90.56) scale(2.0)"/>
          <use xlink:href="#arrow1" transform="translate(-1.2817,1.0500) rotate(-89.93) scale(2.0)"/>
        </g>
      </g>
      <g id="fieldline30">
        <path d="M -1.2000,0.6029 L -1.1910,0.5951 L -1.1772,0.5849 L -1.1610,0.5746 L -1.1424,0.5642 L -1.1212,0.5539 L -1.0973,0.5439 L -1.0707,0.5340 L -1.0411,0.5245 L -1.0084,0.5154 L -0.9721,0.5066 L -0.9320,0.4983 L -0.8877,0.4904 L -0.8386,0.4830 L -0.7839,0.4762 L -0.7228,0.4698 L -0.6544,0.4641 L -0.5772,0.4589 L -0.4895,0.4544 L -0.3897,0.4507 L -0.2769,0.4477 L -0.1516,0.4458 L -0.0181,0.4450 L 0.1173,0.4455 L 0.2457,0.4471 L 0.3620,0.4498 L 0.4649,0.4534 L 0.5554,0.4577 L 0.6351,0.4627 L 0.7058,0.4683 L 0.7687,0.4745 L 0.8250,0.4812 L 0.8754,0.4884 L 0.9209,0.4962 L 0.9621,0.5044 L 0.9993,0.5131 L 1.0329,0.5221 L 1.0633,0.5315 L 1.0907,0.5413 L 1.1152,0.5513 L 1.1371,0.5615 L 1.1564,0.5719 L 1.1732,0.5822 L 1.1877,0.5926 L 1.2000,0.6028"/>
        <g id="arrows30">
          <use xlink:href="#arrow1" transform="translate(-0.6124,0.4614) rotate(-3.64) scale(2.0)"/>
          <use xlink:href="#arrow1" transform="translate(0.6123,0.4614) rotate(3.94) scale(2.0)"/>
        </g>
      </g>
      <g id="fieldline31">
        <path d="M 1.1623,0.6500 L 1.1544,0.6666 L 1.1450,0.6895 L 1.1324,0.7245 L 1.1015,0.8175 L 1.0768,0.8904 L 1.0556,0.9493 L 1.0351,1.0026 L 1.0147,1.0525 L 0.9939,1.0998 L 0.9728,1.1449 L 0.9511,1.1882 L 0.9290,1.2297 L 0.9062,1.2697 L 0.8829,1.3082 L 0.8590,1.3452 L 0.8346,1.3808 L 0.8095,1.4151 L 0.7839,1.4481 L 0.7577,1.4797 L 0.7310,1.5100 M -0.7310,1.5100 L -0.7578,1.4796 L -0.7841,1.4478 L -0.8098,1.4147 L -0.8350,1.3802 L -0.8596,1.3444 L -0.8835,1.3072 L -0.9069,1.2685 L -0.9298,1.2283 L -0.9520,1.1865 L -0.9737,1.1430 L -0.9949,1.0976 L -1.0157,1.0500 L -1.0362,0.9998 L -1.0568,0.9460 L -1.0782,0.8864 L -1.1035,0.8113 L -1.1329,0.7231 L -1.1454,0.6886 L -1.1547,0.6659 L -1.1624,0.6500"/>
        <g id="arrows31">
          <use xlink:href="#arrow1" transform="translate(0.9918,1.1035) rotate(114.83) scale(2.0)"/>
          <use xlink:href="#arrow1" transform="translate(-0.9918,1.1035) rotate(-114.18) scale(2.0)"/>
        </g>
      </g>
      <g id="fieldline32">
        <path d="M -1.1623,0.6500 L -1.1427,0.6387 L -1.1216,0.6281 L -1.0982,0.6178 L -1.0722,0.6078 L -1.0432,0.5980 L -1.0111,0.5886 L -0.9756,0.5796 L -0.9365,0.5710 L -0.8931,0.5628 L -0.8451,0.5551 L -0.7919,0.5480 L -0.7328,0.5413 L -0.6667,0.5352 L -0.5925,0.5297 L -0.5090,0.5249 L -0.4149,0.5207 L -0.3092,0.5174 L -0.1918,0.5151 L -0.0648,0.5139 L 0.0658,0.5139 L 0.1922,0.5151 L 0.3095,0.5175 L 0.4153,0.5208 L 0.5095,0.5249 L 0.5931,0.5298 L 0.6671,0.5353 L 0.7331,0.5413 L 0.7922,0.5480 L 0.8454,0.5552 L 0.8934,0.5629 L 0.9367,0.5711 L 0.9758,0.5797 L 1.0113,0.5887 L 1.0433,0.5981 L 1.0723,0.6078 L 1.0983,0.6179 L 1.1217,0.6282 L 1.1428,0.6388 L 1.1623,0.6500"/>
        <g id="arrows32">
          <use xlink:href="#arrow1" transform="translate(-0.5897,0.5298) rotate(-3.57) scale(2.0)"/>
          <use xlink:href="#arrow1" transform="translate(0.5896,0.5298) rotate(3.92) scale(2.0)"/>
        </g>
      </g>
    </g>
    <g id="currents">
      <use id="current_out2" xlink:href="#current_out" transform="translate(-1.12,0.65) scale(0.0053333333,0.0053333333)"/>
      <use id="current_in3" xlink:href="#current_in" transform="translate(-1.12,-0.65) scale(0.0053333333,0.0053333333)"/>
      <use id="current_out4" xlink:href="#current_out" transform="translate(-0.96,0.65) scale(0.0053333333,0.0053333333)"/>
      <use id="current_in5" xlink:href="#current_in" transform="translate(-0.96,-0.65) scale(0.0053333333,0.0053333333)"/>
      <use id="current_out6" xlink:href="#current_out" transform="translate(-0.8,0.65) scale(0.0053333333,0.0053333333)"/>
      <use id="current_in7" xlink:href="#current_in" transform="translate(-0.8,-0.65) scale(0.0053333333,0.0053333333)"/>
      <use id="current_out8" xlink:href="#current_out" transform="translate(-0.64,0.65) scale(0.0053333333,0.0053333333)"/>
      <use id="current_in9" xlink:href="#current_in" transform="translate(-0.64,-0.65) scale(0.0053333333,0.0053333333)"/>
      <use id="current_out10" xlink:href="#current_out" transform="translate(-0.48,0.65) scale(0.0053333333,0.0053333333)"/>
      <use id="current_in11" xlink:href="#current_in" transform="translate(-0.48,-0.65) scale(0.0053333333,0.0053333333)"/>
      <use id="current_out12" xlink:href="#current_out" transform="translate(-0.32,0.65) scale(0.0053333333,0.0053333333)"/>
      <use id="current_in13" xlink:href="#current_in" transform="translate(-0.32,-0.65) scale(0.0053333333,0.0053333333)"/>
      <use id="current_out14" xlink:href="#current_out" transform="translate(-0.16,0.65) scale(0.0053333333,0.0053333333)"/>
      <use id="current_in15" xlink:href="#current_in" transform="translate(-0.16,-0.65) scale(0.0053333333,0.0053333333)"/>
      <use id="current_out16" xlink:href="#current_out" transform="translate(0.0,0.65) scale(0.0053333333,0.0053333333)"/>
      <use id="current_in17" xlink:href="#current_in" transform="translate(0.0,-0.65) scale(0.0053333333,0.0053333333)"/>
      <use id="current_out18" xlink:href="#current_out" transform="translate(0.16,0.65) scale(0.0053333333,0.0053333333)"/>
      <use id="current_in19" xlink:href="#current_in" transform="translate(0.16,-0.65) scale(0.0053333333,0.0053333333)"/>
      <use id="current_out20" xlink:href="#current_out" transform="translate(0.32,0.65) scale(0.0053333333,0.0053333333)"/>
      <use id="current_in21" xlink:href="#current_in" transform="translate(0.32,-0.65) scale(0.0053333333,0.0053333333)"/>
      <use id="current_out22" xlink:href="#current_out" transform="translate(0.48,0.65) scale(0.0053333333,0.0053333333)"/>
      <use id="current_in23" xlink:href="#current_in" transform="translate(0.48,-0.65) scale(0.0053333333,0.0053333333)"/>
      <use id="current_out24" xlink:href="#current_out" transform="translate(0.64,0.65) scale(0.0053333333,0.0053333333)"/>
      <use id="current_in25" xlink:href="#current_in" transform="translate(0.64,-0.65) scale(0.0053333333,0.0053333333)"/>
      <use id="current_out26" xlink:href="#current_out" transform="translate(0.8,0.65) scale(0.0053333333,0.0053333333)"/>
      <use id="current_in27" xlink:href="#current_in" transform="translate(0.8,-0.65) scale(0.0053333333,0.0053333333)"/>
      <use id="current_out28" xlink:href="#current_out" transform="translate(0.96,0.65) scale(0.0053333333,0.0053333333)"/>
      <use id="current_in29" xlink:href="#current_in" transform="translate(0.96,-0.65) scale(0.0053333333,0.0053333333)"/>
      <use id="current_out30" xlink:href="#current_out" transform="translate(1.12,0.65) scale(0.0053333333,0.0053333333)"/>
      <use id="current_in31" xlink:href="#current_in" transform="translate(1.12,-0.65) scale(0.0053333333,0.0053333333)"/>
    </g>
  </g>
</svg>
