<svg xmlns="http://www.w3.org/2000/svg" xmlns:xlink="http://www.w3.org/1999/xlink" width="421.493" height="210.746" viewBox="0 0 111.52 55.76"><defs><radialGradient r="22.5" cy="6" cx="4.5" id="e" fx="4.5" fy="6" gradientUnits="userSpaceOnUse"><stop stop-opacity=".7" offset="0" stop-color="#fff"/><stop stop-opacity=".5" offset=".1" stop-color="#fff"/><stop stop-opacity="0" offset=".6" stop-color="#fff"/><stop stop-opacity="0" offset=".6"/><stop stop-opacity=".05" offset=".75"/><stop stop-opacity=".15" offset=".85"/><stop stop-opacity=".5" offset="1"/></radialGradient><radialGradient r="22.5" cy="6" cx="4.5" id="a" fx="4.5" fy="6" gradientUnits="userSpaceOnUse"><stop stop-opacity=".7" offset="0" stop-color="#fff"/><stop stop-opacity=".5" offset=".1" stop-color="#fff"/><stop stop-opacity="0" offset=".6" stop-color="#fff"/><stop stop-opacity="0" offset=".6"/><stop stop-opacity=".05" offset=".75"/><stop stop-opacity=".15" offset=".85"/><stop stop-opacity=".5" offset="1"/></radialGradient><radialGradient xlink:href="#a" id="c" gradientUnits="userSpaceOnUse" cx="4.5" cy="6" fx="4.5" fy="6" r="22.5"/><path d="M.3 0l-2.5 2.25L3.8 0l-6-2.25z" transform="scale(0.03333333)" id="d" fill="#000" stroke="none"/><path d="M.3 0l-2.5 2.25L3.8 0l-6-2.25z" transform="scale(0.03333333)" id="b" fill="#000" stroke="none"/></defs><path fill="#fff" d="M0 0h111.52v55.76H0z"/><g fill="none" stroke="#000" stroke-width=".033" stroke-linecap="round" stroke-linejoin="round"><path d="M27.88 27.88l23.945-4.763" stroke-width=".2619375"/><use height="100%" width="100%" xlink:href="#b" transform="translate(203.30724,-18.521786) matrix(0.26458333,0,0,0.26458333,-199.23973,22.589287) matrix(30,0,0,-30,90,90) matrix(1.9615706,0.39018064,-0.39018064,1.9615706,1.9616,0.3902)"/><path d="M27.88 27.88l23.945-16" stroke-width=".2619375"/><use height="100%" width="100%" xlink:href="#b" transform="translate(203.30724,-18.521786) matrix(0.26458333,0,0,0.26458333,-199.23973,22.589287) matrix(30,0,0,-30,90,90) matrix(1.6629392,1.1111405,-1.1111405,1.6629392,1.6629,1.1111)"/><path d="M27.88 27.88l16-23.945" stroke-width=".2619375"/><use height="100%" width="100%" xlink:href="#b" transform="translate(203.30724,-18.521786) matrix(0.26458333,0,0,0.26458333,-199.23973,22.589287) matrix(30,0,0,-30,90,90) matrix(1.1111405,1.6629392,-1.6629392,1.1111405,1.1111,1.6629)"/><path d="M27.88 27.88l4.763-23.945" stroke-width=".2619375"/><use height="100%" width="100%" xlink:href="#b" transform="translate(203.30724,-18.521786) matrix(0.26458333,0,0,0.26458333,-199.23973,22.589287) matrix(30,0,0,-30,90,90) matrix(0.39018064,1.9615706,-1.9615706,0.39018064,0.3902,1.9616)"/><path d="M27.88 27.88L23.117 3.935" stroke-width=".2619375"/><use height="100%" width="100%" xlink:href="#b" transform="translate(203.30724,-18.521786) matrix(0.26458333,0,0,0.26458333,-199.23973,22.589287) matrix(30,0,0,-30,90,90) matrix(-0.39018064,1.9615706,-1.9615706,-0.39018064,-0.3902,1.9616)"/><path d="M27.88 27.88l-16-23.945" stroke-width=".2619375"/><use height="100%" width="100%" xlink:href="#b" transform="translate(203.30724,-18.521786) matrix(0.26458333,0,0,0.26458333,-199.23973,22.589287) matrix(30,0,0,-30,90,90) matrix(-1.1111405,1.6629392,-1.6629392,-1.1111405,-1.1111,1.6629)"/><path d="M27.88 27.88l-23.945-16" stroke-width=".2619375"/><use height="100%" width="100%" xlink:href="#b" transform="translate(203.30724,-18.521786) matrix(0.26458333,0,0,0.26458333,-199.23973,22.589287) matrix(30,0,0,-30,90,90) matrix(-1.6629392,1.1111405,-1.1111405,-1.6629392,-1.6629,1.1111)"/><path d="M27.88 27.88L3.935 23.117" stroke-width=".2619375"/><use height="100%" width="100%" xlink:href="#b" transform="translate(203.30724,-18.521786) matrix(0.26458333,0,0,0.26458333,-199.23973,22.589287) matrix(30,0,0,-30,90,90) matrix(-1.9615706,0.39018064,-0.39018064,-1.9615706,-1.9616,0.3902)"/><g><path d="M27.88 27.88L3.935 32.643" stroke-width=".2619375"/><use height="100%" width="100%" xlink:href="#b" transform="translate(203.30724,-18.521786) matrix(0.26458333,0,0,0.26458333,-199.23973,22.589287) matrix(30,0,0,-30,90,90) matrix(-1.9615706,-0.39018064,0.39018064,-1.9615706,-1.9616,-0.3902)"/></g><g><path d="M27.88 27.88l-23.945 16" stroke-width=".2619375"/><use height="100%" width="100%" xlink:href="#b" transform="translate(203.30724,-18.521786) matrix(0.26458333,0,0,0.26458333,-199.23973,22.589287) matrix(30,0,0,-30,90,90) matrix(-1.6629392,-1.1111405,1.1111405,-1.6629392,-1.6629,-1.1111)"/></g><g><path d="M27.88 27.88l-16 23.945" stroke-width=".2619375"/><use height="100%" width="100%" xlink:href="#b" transform="translate(203.30724,-18.521786) matrix(0.26458333,0,0,0.26458333,-199.23973,22.589287) matrix(30,0,0,-30,90,90) matrix(-1.1111405,-1.6629392,1.6629392,-1.1111405,-1.1111,-1.6629)"/></g><g><path d="M27.88 27.88l-4.763 23.945" stroke-width=".2619375"/><use height="100%" width="100%" xlink:href="#b" transform="translate(203.30724,-18.521786) matrix(0.26458333,0,0,0.26458333,-199.23973,22.589287) matrix(30,0,0,-30,90,90) matrix(-0.39018064,-1.9615706,1.9615706,-0.39018064,-0.3902,-1.9616)"/></g><g><path d="M27.88 27.88l4.763 23.945" stroke-width=".2619375"/><use height="100%" width="100%" xlink:href="#b" transform="translate(203.30724,-18.521786) matrix(0.26458333,0,0,0.26458333,-199.23973,22.589287) matrix(30,0,0,-30,90,90) matrix(0.39018064,-1.9615706,1.9615706,0.39018064,0.3902,-1.9616)"/></g><g><path d="M27.88 27.88l16 23.945" stroke-width=".2619375"/><use height="100%" width="100%" xlink:href="#b" transform="translate(203.30724,-18.521786) matrix(0.26458333,0,0,0.26458333,-199.23973,22.589287) matrix(30,0,0,-30,90,90) matrix(1.1111405,-1.6629392,1.6629392,1.1111405,1.1111,-1.6629)"/></g><g><path d="M27.88 27.88l23.945 16" stroke-width=".2619375"/><use height="100%" width="100%" xlink:href="#b" transform="translate(203.30724,-18.521786) matrix(0.26458333,0,0,0.26458333,-199.23973,22.589287) matrix(30,0,0,-30,90,90) matrix(1.6629392,-1.1111405,1.1111405,1.6629392,1.6629,-1.1111)"/></g><g><path d="M27.88 27.88l23.945 4.763" stroke-width=".2619375"/><use height="100%" width="100%" xlink:href="#b" transform="translate(203.30724,-18.521786) matrix(0.26458333,0,0,0.26458333,-199.23973,22.589287) matrix(30,0,0,-30,90,90) matrix(1.9615706,-0.39018064,0.39018064,1.9615706,1.9616,-0.3902)"/></g></g><g transform="translate(203.30724,-18.521786) matrix(0.26458333,0,0,0.26458333,-199.23973,22.589287) matrix(30,0,0,-30,90,90) scale(0.03333333)"><circle r="14" fill="red"/><circle r="14" fill="url(#c)" stroke="#000" stroke-width="2"/><path d="M2 2v6h-4V2h-6v-4h6v-6h4v6h6v4z"/></g><g fill="none" stroke="#000" stroke-width=".033" stroke-linecap="round" stroke-linejoin="round"><path d="M59.695 32.643L83.64 27.88" stroke-width=".2619375"/><use transform="translate(203.30724,-18.521786) matrix(0.26458333,0,0,0.26458333,-143.47974,22.589285) matrix(30,0,0,-30,90,90) matrix(1.9615706,0.39018064,-0.39018064,1.9615706,-1.9616,-0.3902)" xlink:href="#d" width="100%" height="100%"/><path d="M59.695 43.88l23.945-16" stroke-width=".2619375"/><use transform="translate(203.30724,-18.521786) matrix(0.26458333,0,0,0.26458333,-143.47974,22.589285) matrix(30,0,0,-30,90,90) matrix(1.6629392,1.1111405,-1.1111405,1.6629392,-1.6629,-1.1111)" xlink:href="#d" width="100%" height="100%"/><path d="M67.64 51.825l16-23.945" stroke-width=".2619375"/><use transform="translate(203.30724,-18.521786) matrix(0.26458333,0,0,0.26458333,-143.47974,22.589285) matrix(30,0,0,-30,90,90) matrix(1.1111405,1.6629392,-1.6629392,1.1111405,-1.1111,-1.6629)" xlink:href="#d" width="100%" height="100%"/><path d="M78.877 51.825L83.64 27.88" stroke-width=".2619375"/><use transform="translate(203.30724,-18.521786) matrix(0.26458333,0,0,0.26458333,-143.47974,22.589285) matrix(30,0,0,-30,90,90) matrix(0.39018064,1.9615706,-1.9615706,0.39018064,-0.3902,-1.9616)" xlink:href="#d" width="100%" height="100%"/><path d="M88.403 51.825L83.64 27.88" stroke-width=".2619375"/><use transform="translate(203.30724,-18.521786) matrix(0.26458333,0,0,0.26458333,-143.47974,22.589285) matrix(30,0,0,-30,90,90) matrix(-0.39018064,1.9615706,-1.9615706,-0.39018064,0.3902,-1.9616)" xlink:href="#d" width="100%" height="100%"/><path d="M99.64 51.825l-16-23.945" stroke-width=".2619375"/><use transform="translate(203.30724,-18.521786) matrix(0.26458333,0,0,0.26458333,-143.47974,22.589285) matrix(30,0,0,-30,90,90) matrix(-1.1111405,1.6629392,-1.6629392,-1.1111405,1.1111,-1.6629)" xlink:href="#d" width="100%" height="100%"/><path d="M107.585 43.88l-23.945-16" stroke-width=".2619375"/><use transform="translate(203.30724,-18.521786) matrix(0.26458333,0,0,0.26458333,-143.47974,22.589285) matrix(30,0,0,-30,90,90) matrix(-1.6629392,1.1111405,-1.1111405,-1.6629392,1.6629,-1.1111)" xlink:href="#d" width="100%" height="100%"/><path d="M107.585 32.643L83.64 27.88" stroke-width=".2619375"/><use transform="translate(203.30724,-18.521786) matrix(0.26458333,0,0,0.26458333,-143.47974,22.589285) matrix(30,0,0,-30,90,90) matrix(-1.9615706,0.39018064,-0.39018064,-1.9615706,1.9616,-0.3902)" xlink:href="#d" width="100%" height="100%"/><g><path d="M107.585 23.117L83.64 27.88" stroke-width=".2619375"/><use transform="translate(203.30724,-18.521786) matrix(0.26458333,0,0,0.26458333,-143.47974,22.589285) matrix(30,0,0,-30,90,90) matrix(-1.9615706,-0.39018064,0.39018064,-1.9615706,1.9616,0.3902)" xlink:href="#d" width="100%" height="100%"/></g><g><path d="M107.585 11.88l-23.945 16" stroke-width=".2619375"/><use transform="translate(203.30724,-18.521786) matrix(0.26458333,0,0,0.26458333,-143.47974,22.589285) matrix(30,0,0,-30,90,90) matrix(-1.6629392,-1.1111405,1.1111405,-1.6629392,1.6629,1.1111)" xlink:href="#d" width="100%" height="100%"/></g><g><path d="M99.64 3.935l-16 23.945" stroke-width=".2619375"/><use transform="translate(203.30724,-18.521786) matrix(0.26458333,0,0,0.26458333,-143.47974,22.589285) matrix(30,0,0,-30,90,90) matrix(-1.1111405,-1.6629392,1.6629392,-1.1111405,1.1111,1.6629)" xlink:href="#d" width="100%" height="100%"/></g><g><path d="M88.403 3.935L83.64 27.88" stroke-width=".2619375"/><use transform="translate(203.30724,-18.521786) matrix(0.26458333,0,0,0.26458333,-143.47974,22.589285) matrix(30,0,0,-30,90,90) matrix(-0.39018064,-1.9615706,1.9615706,-0.39018064,0.3902,1.9616)" xlink:href="#d" width="100%" height="100%"/></g><g><path d="M78.877 3.935L83.64 27.88" stroke-width=".2619375"/><use transform="translate(203.30724,-18.521786) matrix(0.26458333,0,0,0.26458333,-143.47974,22.589285) matrix(30,0,0,-30,90,90) matrix(0.39018064,-1.9615706,1.9615706,0.39018064,-0.3902,1.9616)" xlink:href="#d" width="100%" height="100%"/></g><g><path d="M67.64 3.935l16 23.945" stroke-width=".2619375"/><use transform="translate(203.30724,-18.521786) matrix(0.26458333,0,0,0.26458333,-143.47974,22.589285) matrix(30,0,0,-30,90,90) matrix(1.1111405,-1.6629392,1.6629392,1.1111405,-1.1111,1.6629)" xlink:href="#d" width="100%" height="100%"/></g><g><path d="M59.695 11.88l23.945 16" stroke-width=".2619375"/><use transform="translate(203.30724,-18.521786) matrix(0.26458333,0,0,0.26458333,-143.47974,22.589285) matrix(30,0,0,-30,90,90) matrix(1.6629392,-1.1111405,1.1111405,1.6629392,-1.6629,1.1111)" xlink:href="#d" width="100%" height="100%"/></g><g><path d="M59.695 23.117L83.64 27.88" stroke-width=".2619375"/><use transform="translate(203.30724,-18.521786) matrix(0.26458333,0,0,0.26458333,-143.47974,22.589285) matrix(30,0,0,-30,90,90) matrix(1.9615706,-0.39018064,0.39018064,1.9615706,-1.9616,0.3902)" xlink:href="#d" width="100%" height="100%"/></g></g><g transform="translate(203.30724,-18.521786) matrix(0.26458333,0,0,0.26458333,-143.47974,22.589285) matrix(30,0,0,-30,90,90) scale(0.03333333)"><circle r="14" fill="#00f"/><circle r="14" fill="url(#e)" stroke="#000" stroke-width="2"/><path d="M8 2H-8v-4H8z"/></g><path fill="none" stroke="#aaa" stroke-width=".398" d="M4 51.76h47.76V4H4zM59.76 51.76h47.76V4H59.76z"/></svg>