<?xml version="1.0" encoding="UTF-8" standalone="no"?>
<svg
   xmlns:dc="http://purl.org/dc/elements/1.1/"
   xmlns:cc="http://creativecommons.org/ns#"
   xmlns:rdf="http://www.w3.org/1999/02/22-rdf-syntax-ns#"
   xmlns:svg="http://www.w3.org/2000/svg"
   xmlns="http://www.w3.org/2000/svg"
   xmlns:sodipodi="http://sodipodi.sourceforge.net/DTD/sodipodi-0.dtd"
   xmlns:inkscape="http://www.inkscape.org/namespaces/inkscape"
   version="1.1"
   x="0px"
   y="0px"
   width="342px"
   height="157px"
   viewBox="0 0 342 157"
   id="svg2"
   inkscape:version="1.0.2 (e86c870879, 2021-01-15, custom)"
   sodipodi:docname="acc_centripeta.svg">
  <metadata
     id="metadata643">
    <rdf:RDF>
      <cc:Work
         rdf:about="">
        <dc:format>image/svg+xml</dc:format>
        <dc:type
           rdf:resource="http://purl.org/dc/dcmitype/StillImage" />
        <dc:title>derivation centripetal acceleration</dc:title>
        <cc:license
           rdf:resource="http://creativecommons.org/licenses/by-sa/4.0/" />
        <dc:date>2018-01-08</dc:date>
        <dc:creator>
          <cc:Agent>
            <dc:title>Michael A. Rundel</dc:title>
          </cc:Agent>
        </dc:creator>
        <dc:rights>
          <cc:Agent>
            <dc:title>CC BY-SA 4.0</dc:title>
          </cc:Agent>
        </dc:rights>
        <dc:subject>
          <rdf:Bag>
            <rdf:li>physics motion uniform circular motion centripetal acceleration</rdf:li>
          </rdf:Bag>
        </dc:subject>
        <dc:description>diagram used for derivation of centripetal acceleration in a uniform circular motion</dc:description>
      </cc:Work>
      <cc:License
         rdf:about="http://creativecommons.org/licenses/by-sa/4.0/">
        <cc:permits
           rdf:resource="http://creativecommons.org/ns#Reproduction" />
        <cc:permits
           rdf:resource="http://creativecommons.org/ns#Distribution" />
        <cc:requires
           rdf:resource="http://creativecommons.org/ns#Notice" />
        <cc:requires
           rdf:resource="http://creativecommons.org/ns#Attribution" />
        <cc:permits
           rdf:resource="http://creativecommons.org/ns#DerivativeWorks" />
        <cc:requires
           rdf:resource="http://creativecommons.org/ns#ShareAlike" />
      </cc:License>
    </rdf:RDF>
  </metadata>
  <defs
     id="defs641" />
  <sodipodi:namedview
     pagecolor="#ffffff"
     bordercolor="#666666"
     borderopacity="1"
     objecttolerance="10"
     gridtolerance="10"
     guidetolerance="10"
     inkscape:pageopacity="0"
     inkscape:pageshadow="2"
     inkscape:window-width="1920"
     inkscape:window-height="1020"
     id="namedview639"
     showgrid="false"
     inkscape:zoom="4.0935672"
     inkscape:cx="154.17803"
     inkscape:cy="130.25569"
     inkscape:window-x="1920"
     inkscape:window-y="32"
     inkscape:window-maximized="1"
     inkscape:current-layer="layer0"
     inkscape:document-rotation="0" />
  <title
     id="title4" />
  <desc
     id="desc6">
    <Title />
    <Creator>FreeHEP Graphics2D Driver</Creator>
    <Producer>geogebra.d.W Revision: 1.11 </Producer>
    <Source />
    <Date>Montag, 08. Jänner 2018 07:38 Uhr MEZ</Date>
  </desc>
  <g
     stroke-linejoin="miter"
     stroke-dashoffset="0.0000"
     stroke-dasharray="none"
     stroke-width="1.0000"
     stroke-miterlimit="10.000"
     stroke-linecap="square"
     id="g8">
    <g
       transform="matrix(.56693, 0.0000, 0.0000, .56693, 0.0000, 0.0000)"
       id="g10">
      <clipPath
         id="clip1">
        <path
           d="M 0.0000 0.0000 L 0.0000 277.00 L 604.00 277.00 L 604.00 0.0000 z"
           id="path13" />
      </clipPath>
      <g
         clip-path="url(#clip1)"
         id="g15">
        <g
           fill-opacity="1.0000"
           fill-rule="nonzero;"
           stroke="none"
           fill="#ffffff"
           id="g17" />
        <!-- drawing style -->
      </g>
      <!-- clip1 -->
    </g>
    <!-- transform -->
    <g
       id="misc" />
    <!-- misc -->
    <g
       id="layer0">
      <text
         xml:space="preserve"
         style="font-style:normal;font-weight:normal;font-size:12px;line-height:1.25;font-family:sans-serif;letter-spacing:0px;word-spacing:0px;fill:#000000;fill-opacity:1;stroke:none"
         x="275.01639"
         y="90.870827"
         id="text1190-8"><tspan
           sodipodi:role="line"
           id="tspan1188-0"
           x="275.01639"
           y="90.870827"
           style="font-style:normal;font-variant:normal;font-weight:normal;font-stretch:normal;font-size:12px;font-family:FreeSerif;-inkscape-font-specification:FreeSerif">Δθ</tspan></text>
      <g
         transform="matrix(.56693, 0.0000, 0.0000, .56693, 0.0000, 0.0000)"
         id="g23">
        <clipPath
           id="clip2">
          <path
             d="M 0.0000 0.0000 L 0.0000 277.00 L 604.00 277.00 L 604.00 0.0000 z"
             id="path26" />
        </clipPath>
        <g
           clip-path="url(#clip2)"
           id="g28">
          <g
             stroke-linejoin="round"
             stroke-linecap="round"
             fill="none"
             stroke-opacity="1.0000"
             stroke="#000000"
             id="g30">
            <path
               d="M 300.57 238.00 C 300.57 339.93 217.93 422.57 116.00 422.57 C 14.066 422.57 -68.567 339.93 -68.567 238.00 C -68.567 136.07 14.066 53.433 116.00 53.433 C 217.93 53.433 300.57 136.07 300.57 238.00 z"
               id="path32" />
          </g>
          <!-- drawing style -->
        </g>
        <!-- clip2 -->
      </g>
      <!-- transform -->
      <g
         transform="matrix(.56693, 0.0000, 0.0000, .56693, 0.0000, 0.0000)"
         id="g34">
        <clipPath
           id="clip3">
          <path
             d="M 0.0000 0.0000 L 0.0000 277.00 L 604.00 277.00 L 604.00 0.0000 z"
             id="path37" />
        </clipPath>
        <g
           clip-path="url(#clip3)"
           id="g39">
          <g
             fill-opacity=".10196"
             fill-rule="nonzero;"
             stroke="none"
             fill="#006400"
             id="g41">
            <path
               d="M 127.57 210.32 C 122.54 208.22 117.05 207.53 111.66 208.32 L 116.00 238.00 z"
               id="path43" />
          </g>
          <!-- drawing style -->
        </g>
        <!-- clip3 -->
      </g>
      <!-- transform -->
      <g
         transform="matrix(.56693, 0.0000, 0.0000, .56693, 0.0000, 0.0000)"
         id="g45">
        <clipPath
           id="clip4">
          <path
             d="M 0.0000 0.0000 L 0.0000 277.00 L 604.00 277.00 L 604.00 0.0000 z"
             id="path48" />
        </clipPath>
        <g
           clip-path="url(#clip4)"
           id="g50">
          <g
             stroke-linejoin="round"
             stroke-linecap="round"
             fill="none"
             stroke-opacity="1.0000"
             stroke="#006400"
             id="g52">
            <path
               d="M 127.57 210.32 C 122.54 208.22 117.05 207.53 111.66 208.32 L 116.00 238.00 z"
               id="path54" />
          </g>
          <!-- drawing style -->
        </g>
        <!-- clip4 -->
      </g>
      <!-- transform -->
      <!-- transform -->
      <g
         transform="matrix(.56693, 0.0000, 0.0000, .56693, 0.0000, 0.0000)"
         id="g67">
        <clipPath
           id="clip6">
          <path
             d="M 0.0000 0.0000 L 0.0000 277.00 L 604.00 277.00 L 604.00 0.0000 z"
             id="path70" />
        </clipPath>
        <g
           clip-path="url(#clip6)"
           id="g72">
          <g
             fill-opacity=".10196"
             fill-rule="nonzero;"
             stroke="none"
             fill="#006400"
             id="g74">
            <path
               d="M 516.72 146.26 C 514.62 151.29 513.93 156.78 514.72 162.17 L 544.40 157.83 z"
               id="path76" />
          </g>
          <!-- drawing style -->
        </g>
        <!-- clip6 -->
      </g>
      <!-- transform -->
      <g
         transform="matrix(.56693, 0.0000, 0.0000, .56693, 0.0000, 0.0000)"
         id="g78">
        <clipPath
           id="clip7">
          <path
             d="M 0.0000 0.0000 L 0.0000 277.00 L 604.00 277.00 L 604.00 0.0000 z"
             id="path81" />
        </clipPath>
        <g
           clip-path="url(#clip7)"
           id="g83">
          <g
             stroke-linejoin="round"
             stroke-linecap="round"
             fill="none"
             stroke-opacity="1.0000"
             stroke="#006400"
             id="g85">
            <path
               d="M 516.72 146.26 C 514.62 151.29 513.93 156.78 514.72 162.17 L 544.40 157.83 z"
               id="path87" />
          </g>
          <!-- drawing style -->
        </g>
        <!-- clip7 -->
      </g>
      <!-- transform -->
      <!-- transform -->
      <g
         transform="matrix(.56693, 0.0000, 0.0000, .56693, 0.0000, 0.0000)"
         id="g100">
        <clipPath
           id="clip9">
          <path
             d="M 0.0000 0.0000 L 0.0000 277.00 L 604.00 277.00 L 604.00 0.0000 z"
             id="path103" />
        </clipPath>
        <g
           clip-path="url(#clip9)"
           id="g105">
          <g
             stroke-linejoin="round"
             stroke-linecap="round"
             fill="none"
             stroke-opacity="1.0000"
             stroke="#000000"
             id="g107">
            <path
               d="M 116.00 238.00 L 91.333 69.226"
               id="path109" />
          </g>
          <!-- drawing style -->
        </g>
        <!-- clip9 -->
      </g>
      <!-- transform -->
      <g
         transform="matrix(.56693, 0.0000, 0.0000, .56693, 0.0000, 0.0000)"
         id="g111">
        <clipPath
           id="clip10">
          <path
             d="M 0.0000 0.0000 L 0.0000 277.00 L 604.00 277.00 L 604.00 0.0000 z"
             id="path114" />
        </clipPath>
        <g
           clip-path="url(#clip10)"
           id="g116">
          <g
             fill-opacity="1.0000"
             fill-rule="nonzero;"
             stroke="none"
             fill="#000000"
             id="g118">
            <path
               d="M 89.308 55.373 L 94.796 68.720 L 87.870 69.732 z"
               id="path120" />
          </g>
          <!-- drawing style -->
        </g>
        <!-- clip10 -->
      </g>
      <!-- transform -->
      <g
         transform="matrix(10.772, 0.0000, 0.0000, 10.772, 61.302, 78.562)"
         id="g122">
        <clipPath
           id="clip11">
          <path
             d="M -5.6911 -7.2934 L -5.6911 7.2856 L 26.098 7.2856 L 26.098 -7.2934 z"
             id="path125" />
        </clipPath>
        <g
           clip-path="url(#clip11)"
           id="g127">
          <g
             fill-opacity="1.0000"
             fill-rule="nonzero;"
             stroke="none"
             fill="#000000"
             id="g129">
            <path
               d="M .53125 -.59375 L .21875 -.59375 Q .18750 -.59375 .18750 -.60938 Q .18750 -.60938 .18750 -.60938 Q .18750 -.64062 .21875 -.64062 L .54688 -.64062 Q .53125 -.65625 .53125 -.68750 Q .53125 -.70312 .54688 -.71875 Q .54688 -.71875 .54688 -.71875 Q .56250 -.71875 .56250 -.68750 Q .57812 -.65625 .60938 -.64062 Q .62500 -.62500 .62500 -.60938 Q .62500 -.60938 .60938 -.59375 Q .56250 -.57812 .53125 -.53125 Q .51562 -.51562 .51562 -.51562 Q .50000 -.51562 .48438 -.53125 Q .48438 -.53125 .48438 -.53125 Q .48438 -.54688 .53125 -.59375 z"
               id="path131" />
          </g>
          <!-- drawing style -->
        </g>
        <!-- clip11 -->
      </g>
      <!-- transform -->
      <g
         transform="matrix(10.772, 0.0000, 0.0000, 10.772, 61.795, 78.562)"
         id="g133">
        <clipPath
           id="clip12">
          <path
             d="M -5.7368 -7.2934 L -5.7368 7.2856 L 26.053 7.2856 L 26.053 -7.2934 z"
             id="path136" />
        </clipPath>
        <g
           clip-path="url(#clip12)"
           id="g138">
          <g
             fill-opacity="1.0000"
             fill-rule="nonzero;"
             stroke="none"
             fill="#000000"
             id="g140">
            <path
               d="M .093750 -.062500 L .093750 -.062500 L .14062 -.29688 Q .15625 -.35938 .15625 -.37500 Q .15625 -.42188 .12500 -.42188 Q .093750 -.42188 .062500 -.32812 Q .062500 -.31250 .062500 -.29688 Q .046875 -.28125 .046875 -.28125 Q .031250 -.28125 .031250 -.28125 Q .031250 -.29688 .046875 -.35938 Q .046875 -.37500 .062500 -.39062 Q .078125 -.43750 .12500 -.43750 Q .12500 -.43750 .14062 -.43750 Q .18750 -.43750 .21875 -.39062 Q .21875 -.39062 .21875 -.37500 Q .21875 -.37500 .21875 -.35938 Q .28125 -.43750 .35938 -.43750 Q .40625 -.43750 .42188 -.40625 Q .43750 -.39062 .43750 -.37500 Q .43750 -.34375 .40625 -.32812 Q .39062 -.31250 .37500 -.31250 Q .34375 -.31250 .34375 -.34375 Q .34375 -.34375 .34375 -.35938 Q .34375 -.39062 .37500 -.40625 L .37500 -.40625 Q .39062 -.40625 .39062 -.40625 L .37500 -.42188 Q .35938 -.42188 .35938 -.42188 Q .31250 -.42188 .26562 -.39062 Q .23438 -.35938 .21875 -.31250 Q .21875 -.31250 .21875 -.31250 L .18750 -.17188 L .14062 -.015625 Q .14062 .015625 .10938 .015625 Q .078125 -0.0000 .078125 -.015625 Q .078125 -.015625 .093750 -.062500 z"
               id="path142" />
          </g>
          <!-- drawing style -->
        </g>
        <!-- clip12 -->
      </g>
      <!-- transform -->
      <g
         transform="matrix(7.5402, 0.0000, 0.0000, 7.5402, 66.688, 80.178)"
         id="g144">
        <clipPath
           id="clip13">
          <path
             d="M -8.8444 -10.633 L -8.8444 10.194 L 36.569 10.194 L 36.569 -10.633 z"
             id="path147" />
        </clipPath>
        <g
           clip-path="url(#clip13)"
           id="g149">
          <g
             fill-opacity="1.0000"
             fill-rule="nonzero;"
             stroke="none"
             fill="#000000"
             id="g151">
            <path
               d="M .29688 -.64062 L .29688 -.078125 Q .29688 -.046875 .31250 -.046875 Q .32812 -.031250 .39062 -.031250 L .42188 -.031250 L .42188 -0.0000 Q .39062 -0.0000 .25000 -0.0000 Q .12500 -0.0000 .093750 -0.0000 L .093750 -.031250 L .12500 -.031250 Q .20312 -.031250 .21875 -.046875 L .21875 -.046875 Q .21875 -.062500 .21875 -.078125 L .21875 -.59375 Q .17188 -.57812 .093750 -.57812 L .093750 -.60938 Q .20312 -.60938 .26562 -.67188 Q .29688 -.67188 .29688 -.65625 L .29688 -.65625 L .29688 -.65625 Q .29688 -.65625 .29688 -.64062 z"
               id="path153" />
          </g>
          <!-- drawing style -->
        </g>
        <!-- clip13 -->
      </g>
      <!-- transform -->
      <g
         transform="matrix(.56693, 0.0000, 0.0000, .56693, 0.0000, 0.0000)"
         id="g155">
        <clipPath
           id="clip14">
          <path
             d="M 0.0000 0.0000 L 0.0000 277.00 L 604.00 277.00 L 604.00 0.0000 z"
             id="path158" />
        </clipPath>
        <g
           clip-path="url(#clip14)"
           id="g160">
          <g
             stroke-linejoin="round"
             stroke-linecap="round"
             fill="none"
             stroke-opacity="1.0000"
             stroke="#000000"
             id="g162">
            <path
               d="M 116.00 238.00 L 181.76 80.619"
               id="path164" />
          </g>
          <!-- drawing style -->
        </g>
        <!-- clip14 -->
      </g>
      <!-- transform -->
      <g
         transform="matrix(.56693, 0.0000, 0.0000, .56693, 0.0000, 0.0000)"
         id="g166">
        <clipPath
           id="clip15">
          <path
             d="M 0.0000 0.0000 L 0.0000 277.00 L 604.00 277.00 L 604.00 0.0000 z"
             id="path169" />
        </clipPath>
        <g
           clip-path="url(#clip15)"
           id="g171">
          <g
             fill-opacity="1.0000"
             fill-rule="nonzero;"
             stroke="none"
             fill="#000000"
             id="g173">
            <path
               d="M 187.16 67.701 L 184.99 81.969 L 178.53 79.270 z"
               id="path175" />
          </g>
          <!-- drawing style -->
        </g>
        <!-- clip15 -->
      </g>
      <!-- transform -->
      <g
         transform="matrix(10.772, 0.0000, 0.0000, 10.772, 91.349, 84.798)"
         id="g177">
        <clipPath
           id="clip16">
          <path
             d="M -8.4805 -7.8723 L -8.4805 6.7066 L 23.309 6.7066 L 23.309 -7.8723 z"
             id="path180" />
        </clipPath>
        <g
           clip-path="url(#clip16)"
           id="g182">
          <g
             fill-opacity="1.0000"
             fill-rule="nonzero;"
             stroke="none"
             fill="#000000"
             id="g184">
            <path
               d="M .53125 -.59375 L .21875 -.59375 Q .18750 -.59375 .18750 -.60938 Q .18750 -.60938 .18750 -.60938 Q .18750 -.64062 .21875 -.64062 L .54688 -.64062 Q .53125 -.65625 .53125 -.68750 Q .53125 -.70312 .54688 -.71875 Q .54688 -.71875 .54688 -.71875 Q .56250 -.71875 .56250 -.68750 Q .57812 -.65625 .60938 -.64062 Q .62500 -.62500 .62500 -.60938 Q .62500 -.60938 .60938 -.59375 Q .56250 -.57812 .53125 -.53125 Q .51562 -.51562 .51562 -.51562 Q .50000 -.51562 .48438 -.53125 Q .48438 -.53125 .48438 -.53125 Q .48438 -.54688 .53125 -.59375 z"
               id="path186" />
          </g>
          <!-- drawing style -->
        </g>
        <!-- clip16 -->
      </g>
      <!-- transform -->
      <g
         transform="matrix(10.772, 0.0000, 0.0000, 10.772, 91.843, 84.798)"
         id="g188">
        <clipPath
           id="clip17">
          <path
             d="M -8.5263 -7.8723 L -8.5263 6.7066 L 23.263 6.7066 L 23.263 -7.8723 z"
             id="path191" />
        </clipPath>
        <g
           clip-path="url(#clip17)"
           id="g193">
          <g
             fill-opacity="1.0000"
             fill-rule="nonzero;"
             stroke="none"
             fill="#000000"
             id="g195">
            <path
               d="M .093750 -.062500 L .093750 -.062500 L .14062 -.29688 Q .15625 -.35938 .15625 -.37500 Q .15625 -.42188 .12500 -.42188 Q .093750 -.42188 .062500 -.32812 Q .062500 -.31250 .062500 -.29688 Q .046875 -.28125 .046875 -.28125 Q .031250 -.28125 .031250 -.28125 Q .031250 -.29688 .046875 -.35938 Q .046875 -.37500 .062500 -.39062 Q .078125 -.43750 .12500 -.43750 Q .12500 -.43750 .14062 -.43750 Q .18750 -.43750 .21875 -.39062 Q .21875 -.39062 .21875 -.37500 Q .21875 -.37500 .21875 -.35938 Q .28125 -.43750 .35938 -.43750 Q .40625 -.43750 .42188 -.40625 Q .43750 -.39062 .43750 -.37500 Q .43750 -.34375 .40625 -.32812 Q .39062 -.31250 .37500 -.31250 Q .34375 -.31250 .34375 -.34375 Q .34375 -.34375 .34375 -.35938 Q .34375 -.39062 .37500 -.40625 L .37500 -.40625 Q .39062 -.40625 .39062 -.40625 L .37500 -.42188 Q .35938 -.42188 .35938 -.42188 Q .31250 -.42188 .26562 -.39062 Q .23438 -.35938 .21875 -.31250 Q .21875 -.31250 .21875 -.31250 L .18750 -.17188 L .14062 -.015625 Q .14062 .015625 .10938 .015625 Q .078125 -0.0000 .078125 -.015625 Q .078125 -.015625 .093750 -.062500 z"
               id="path197" />
          </g>
          <!-- drawing style -->
        </g>
        <!-- clip17 -->
      </g>
      <!-- transform -->
      <g
         transform="matrix(7.5402, 0.0000, 0.0000, 7.5402, 96.735, 86.414)"
         id="g199">
        <clipPath
           id="clip18">
          <path
             d="M -12.829 -11.460 L -12.829 9.3666 L 32.584 9.3666 L 32.584 -11.460 z"
             id="path202" />
        </clipPath>
        <g
           clip-path="url(#clip18)"
           id="g204">
          <g
             fill-opacity="1.0000"
             fill-rule="nonzero;"
             stroke="none"
             fill="#000000"
             id="g206">
            <path
               d="M .45312 -.17188 L .45312 -.17188 L .42188 -0.0000 L .046875 -0.0000 Q .046875 -.031250 .062500 -.031250 L .062500 -.031250 L .25000 -.25000 Q .35938 -.37500 .35938 -.46875 Q .35938 -.56250 .29688 -.60938 L .29688 -.60938 L .29688 -.60938 Q .26562 -.64062 .21875 -.64062 Q .15625 -.64062 .10938 -.57812 Q .093750 -.56250 .093750 -.53125 Q .093750 -.53125 .10938 -.53125 Q .14062 -.53125 .15625 -.50000 L .15625 -.50000 Q .15625 -.48438 .15625 -.48438 Q .15625 -.43750 .10938 -.43750 Q .10938 -.42188 .10938 -.42188 Q .062500 -.42188 .046875 -.45312 Q .046875 -.46875 .046875 -.48438 Q .046875 -.56250 .10938 -.60938 Q .15625 -.67188 .23438 -.67188 Q .34375 -.67188 .40625 -.59375 Q .43750 -.54688 .45312 -.48438 Q .45312 -.48438 .45312 -.46875 Q .45312 -.40625 .39062 -.32812 Q .35938 -.29688 .29688 -.25000 L .25000 -.18750 L .23438 -.18750 L .12500 -.078125 L .31250 -.078125 Q .39062 -.078125 .40625 -.078125 Q .40625 -.093750 .42188 -.17188 L .45312 -.17188 z"
               id="path208" />
          </g>
          <!-- drawing style -->
        </g>
        <!-- clip18 -->
      </g>
      <!-- transform -->
      <g
         transform="matrix(.56693, 0.0000, 0.0000, .56693, 0.0000, 0.0000)"
         id="g210">
        <clipPath
           id="clip19">
          <path
             d="M 0.0000 0.0000 L 0.0000 277.00 L 604.00 277.00 L 604.00 0.0000 z"
             id="path213" />
        </clipPath>
        <g
           clip-path="url(#clip19)"
           id="g215">
          <g
             stroke-linejoin="round"
             stroke-linecap="round"
             fill="none"
             stroke-opacity="1.0000"
             stroke="#6666ff"
             id="g217">
            <path
               d="M 89.308 55.373 L 223.88 35.705"
               id="path219" />
          </g>
          <!-- drawing style -->
        </g>
        <!-- clip19 -->
      </g>
      <!-- transform -->
      <g
         transform="matrix(.56693, 0.0000, 0.0000, .56693, 0.0000, 0.0000)"
         id="g221">
        <clipPath
           id="clip20">
          <path
             d="M 0.0000 0.0000 L 0.0000 277.00 L 604.00 277.00 L 604.00 0.0000 z"
             id="path224" />
        </clipPath>
        <g
           clip-path="url(#clip20)"
           id="g226">
          <g
             fill-opacity="1.0000"
             fill-rule="nonzero;"
             stroke="none"
             fill="#6666ff"
             id="g228">
            <path
               d="M 237.73 33.681 L 224.38 39.168 L 223.37 32.242 z"
               id="path230" />
          </g>
          <!-- drawing style -->
        </g>
        <!-- clip20 -->
      </g>
      <!-- transform -->
      <g
         transform="matrix(10.772, 0.0000, 0.0000, 10.772, 92.365, 18.467)"
         id="g232">
        <clipPath
           id="clip21">
          <path
             d="M -8.5748 -1.7144 L -8.5748 12.865 L 23.215 12.865 L 23.215 -1.7144 z"
             id="path235" />
        </clipPath>
        <g
           clip-path="url(#clip21)"
           id="g237">
          <g
             fill-opacity="1.0000"
             fill-rule="nonzero;"
             stroke="none"
             fill="#6666ff"
             id="g239">
            <path
               d="M .53125 -.59375 L .21875 -.59375 Q .18750 -.59375 .18750 -.60938 Q .18750 -.60938 .18750 -.60938 Q .18750 -.64062 .21875 -.64062 L .54688 -.64062 Q .53125 -.65625 .53125 -.68750 Q .53125 -.70312 .54688 -.71875 Q .54688 -.71875 .54688 -.71875 Q .56250 -.71875 .56250 -.68750 Q .57812 -.65625 .60938 -.64062 Q .62500 -.62500 .62500 -.60938 Q .62500 -.60938 .60938 -.59375 Q .56250 -.57812 .53125 -.53125 Q .51562 -.51562 .51562 -.51562 Q .50000 -.51562 .48438 -.53125 Q .48438 -.53125 .48438 -.53125 Q .48438 -.54688 .53125 -.59375 z"
               id="path241" />
          </g>
          <!-- drawing style -->
        </g>
        <!-- clip21 -->
      </g>
      <!-- transform -->
      <g
         transform="matrix(10.772, 0.0000, 0.0000, 10.772, 92.976, 18.467)"
         id="g243">
        <clipPath
           id="clip22">
          <path
             d="M -8.6316 -1.7144 L -8.6316 12.865 L 23.158 12.865 L 23.158 -1.7144 z"
             id="path246" />
        </clipPath>
        <g
           clip-path="url(#clip22)"
           id="g248">
          <g
             fill-opacity="1.0000"
             fill-rule="nonzero;"
             stroke="none"
             fill="#6666ff"
             id="g250">
            <path
               d="M .46875 -.37500 Q .46875 -.31250 .43750 -.21875 Q .37500 -.031250 .28125 -0.0000 Q .26562 .015625 .25000 .015625 Q .15625 .015625 .12500 -.046875 Q .10938 -.078125 .10938 -.10938 Q .10938 -.17188 .15625 -.28125 L .17188 -.31250 Q .18750 -.35938 .18750 -.39062 Q .18750 -.42188 .15625 -.42188 Q .10938 -.42188 .062500 -.32812 Q .062500 -.31250 .062500 -.29688 Q .046875 -.28125 .046875 -.28125 Q .031250 -.28125 .031250 -.28125 Q .031250 -.31250 .046875 -.34375 Q .093750 -.43750 .15625 -.43750 Q .21875 -.43750 .23438 -.39062 Q .25000 -.37500 .25000 -.35938 Q .25000 -.34375 .23438 -.31250 Q .17188 -.17188 .17188 -.10938 L .17188 -.093750 Q .17188 -.015625 .23438 -.015625 L .25000 -.015625 Q .32812 -.015625 .39062 -.14062 Q .42188 -.23438 .42188 -.28125 Q .42188 -.32812 .39062 -.35938 Q .37500 -.37500 .37500 -.39062 Q .37500 -.42188 .40625 -.43750 Q .40625 -.43750 .42188 -.43750 Q .45312 -.43750 .46875 -.40625 Q .46875 -.39062 .46875 -.37500 z"
               id="path252" />
          </g>
          <!-- drawing style -->
        </g>
        <!-- clip22 -->
      </g>
      <!-- transform -->
      <g
         transform="matrix(7.5402, 0.0000, 0.0000, 7.5402, 98.198, 20.083)"
         id="g254">
        <clipPath
           id="clip23">
          <path
             d="M -13.023 -2.6635 L -13.023 18.164 L 32.390 18.164 L 32.390 -2.6635 z"
             id="path257" />
        </clipPath>
        <g
           clip-path="url(#clip23)"
           id="g259">
          <g
             fill-opacity="1.0000"
             fill-rule="nonzero;"
             stroke="none"
             fill="#6666ff"
             id="g261">
            <path
               d="M .29688 -.64062 L .29688 -.078125 Q .29688 -.046875 .31250 -.046875 Q .32812 -.031250 .39062 -.031250 L .42188 -.031250 L .42188 -0.0000 Q .39062 -0.0000 .25000 -0.0000 Q .12500 -0.0000 .093750 -0.0000 L .093750 -.031250 L .12500 -.031250 Q .20312 -.031250 .21875 -.046875 L .21875 -.046875 Q .21875 -.062500 .21875 -.078125 L .21875 -.59375 Q .17188 -.57812 .093750 -.57812 L .093750 -.60938 Q .20312 -.60938 .26562 -.67188 Q .29688 -.67188 .29688 -.65625 L .29688 -.65625 L .29688 -.65625 Q .29688 -.65625 .29688 -.64062 z"
               id="path263" />
          </g>
          <!-- drawing style -->
        </g>
        <!-- clip23 -->
      </g>
      <!-- transform -->
      <g
         transform="matrix(.56693, 0.0000, 0.0000, .56693, 0.0000, 0.0000)"
         id="g265">
        <clipPath
           id="clip24">
          <path
             d="M 0.0000 0.0000 L 0.0000 277.00 L 604.00 277.00 L 604.00 0.0000 z"
             id="path268" />
        </clipPath>
        <g
           clip-path="url(#clip24)"
           id="g270">
          <g
             stroke-linejoin="round"
             stroke-linecap="round"
             fill="none"
             stroke-opacity="1.0000"
             stroke="#6666ff"
             id="g272">
            <path
               d="M 187.16 67.701 L 312.64 120.13"
               id="path274" />
          </g>
          <!-- drawing style -->
        </g>
        <!-- clip24 -->
      </g>
      <!-- transform -->
      <g
         transform="matrix(.56693, 0.0000, 0.0000, .56693, 0.0000, 0.0000)"
         id="g276">
        <clipPath
           id="clip25">
          <path
             d="M 0.0000 0.0000 L 0.0000 277.00 L 604.00 277.00 L 604.00 0.0000 z"
             id="path279" />
        </clipPath>
        <g
           clip-path="url(#clip25)"
           id="g281">
          <g
             fill-opacity="1.0000"
             fill-rule="nonzero;"
             stroke="none"
             fill="#6666ff"
             id="g283">
            <path
               d="M 325.56 125.53 L 311.29 123.36 L 313.99 116.91 z"
               id="path285" />
          </g>
          <!-- drawing style -->
        </g>
        <!-- clip25 -->
      </g>
      <!-- transform -->
      <g
         transform="matrix(10.772, 0.0000, 0.0000, 10.772, 145.66, 47.948)"
         id="g287">
        <clipPath
           id="clip26">
          <path
             d="M -13.522 -4.4513 L -13.522 10.128 L 18.267 10.128 L 18.267 -4.4513 z"
             id="path290" />
        </clipPath>
        <g
           clip-path="url(#clip26)"
           id="g292">
          <g
             fill-opacity="1.0000"
             fill-rule="nonzero;"
             stroke="none"
             fill="#6666ff"
             id="g294">
            <path
               d="M .53125 -.59375 L .21875 -.59375 Q .18750 -.59375 .18750 -.60938 Q .18750 -.60938 .18750 -.60938 Q .18750 -.64062 .21875 -.64062 L .54688 -.64062 Q .53125 -.65625 .53125 -.68750 Q .53125 -.70312 .54688 -.71875 Q .54688 -.71875 .54688 -.71875 Q .56250 -.71875 .56250 -.68750 Q .57812 -.65625 .60938 -.64062 Q .62500 -.62500 .62500 -.60938 Q .62500 -.60938 .60938 -.59375 Q .56250 -.57812 .53125 -.53125 Q .51562 -.51562 .51562 -.51562 Q .50000 -.51562 .48438 -.53125 Q .48438 -.53125 .48438 -.53125 Q .48438 -.54688 .53125 -.59375 z"
               id="path296" />
          </g>
          <!-- drawing style -->
        </g>
        <!-- clip26 -->
      </g>
      <!-- transform -->
      <g
         transform="matrix(10.772, 0.0000, 0.0000, 10.772, 146.27, 47.948)"
         id="g298">
        <clipPath
           id="clip27">
          <path
             d="M -13.579 -4.4513 L -13.579 10.128 L 18.211 10.128 L 18.211 -4.4513 z"
             id="path301" />
        </clipPath>
        <g
           clip-path="url(#clip27)"
           id="g303">
          <g
             fill-opacity="1.0000"
             fill-rule="nonzero;"
             stroke="none"
             fill="#6666ff"
             id="g305">
            <path
               d="M .46875 -.37500 Q .46875 -.31250 .43750 -.21875 Q .37500 -.031250 .28125 -0.0000 Q .26562 .015625 .25000 .015625 Q .15625 .015625 .12500 -.046875 Q .10938 -.078125 .10938 -.10938 Q .10938 -.17188 .15625 -.28125 L .17188 -.31250 Q .18750 -.35938 .18750 -.39062 Q .18750 -.42188 .15625 -.42188 Q .10938 -.42188 .062500 -.32812 Q .062500 -.31250 .062500 -.29688 Q .046875 -.28125 .046875 -.28125 Q .031250 -.28125 .031250 -.28125 Q .031250 -.31250 .046875 -.34375 Q .093750 -.43750 .15625 -.43750 Q .21875 -.43750 .23438 -.39062 Q .25000 -.37500 .25000 -.35938 Q .25000 -.34375 .23438 -.31250 Q .17188 -.17188 .17188 -.10938 L .17188 -.093750 Q .17188 -.015625 .23438 -.015625 L .25000 -.015625 Q .32812 -.015625 .39062 -.14062 Q .42188 -.23438 .42188 -.28125 Q .42188 -.32812 .39062 -.35938 Q .37500 -.37500 .37500 -.39062 Q .37500 -.42188 .40625 -.43750 Q .40625 -.43750 .42188 -.43750 Q .45312 -.43750 .46875 -.40625 Q .46875 -.39062 .46875 -.37500 z"
               id="path307" />
          </g>
          <!-- drawing style -->
        </g>
        <!-- clip27 -->
      </g>
      <!-- transform -->
      <g
         transform="matrix(7.5402, 0.0000, 0.0000, 7.5402, 151.49, 49.563)"
         id="g309">
        <clipPath
           id="clip28">
          <path
             d="M -20.091 -6.5733 L -20.091 14.254 L 25.323 14.254 L 25.323 -6.5733 z"
             id="path312" />
        </clipPath>
        <g
           clip-path="url(#clip28)"
           id="g314">
          <g
             fill-opacity="1.0000"
             fill-rule="nonzero;"
             stroke="none"
             fill="#6666ff"
             id="g316">
            <path
               d="M .45312 -.17188 L .45312 -.17188 L .42188 -0.0000 L .046875 -0.0000 Q .046875 -.031250 .062500 -.031250 L .062500 -.031250 L .25000 -.25000 Q .35938 -.37500 .35938 -.46875 Q .35938 -.56250 .29688 -.60938 L .29688 -.60938 L .29688 -.60938 Q .26562 -.64062 .21875 -.64062 Q .15625 -.64062 .10938 -.57812 Q .093750 -.56250 .093750 -.53125 Q .093750 -.53125 .10938 -.53125 Q .14062 -.53125 .15625 -.50000 L .15625 -.50000 Q .15625 -.48438 .15625 -.48438 Q .15625 -.43750 .10938 -.43750 Q .10938 -.42188 .10938 -.42188 Q .062500 -.42188 .046875 -.45312 Q .046875 -.46875 .046875 -.48438 Q .046875 -.56250 .10938 -.60938 Q .15625 -.67188 .23438 -.67188 Q .34375 -.67188 .40625 -.59375 Q .43750 -.54688 .45312 -.48438 Q .45312 -.48438 .45312 -.46875 Q .45312 -.40625 .39062 -.32812 Q .35938 -.29688 .29688 -.25000 L .25000 -.18750 L .23438 -.18750 L .12500 -.078125 L .31250 -.078125 Q .39062 -.078125 .40625 -.078125 Q .40625 -.093750 .42188 -.17188 L .45312 -.17188 z"
               id="path318" />
          </g>
          <!-- drawing style -->
        </g>
        <!-- clip28 -->
      </g>
      <!-- transform -->
      <g
         transform="matrix(.56693, 0.0000, 0.0000, .56693, 0.0000, 0.0000)"
         id="g320">
        <clipPath
           id="clip29">
          <path
             d="M 0.0000 0.0000 L 0.0000 277.00 L 604.00 277.00 L 604.00 0.0000 z"
             id="path323" />
        </clipPath>
        <g
           clip-path="url(#clip29)"
           id="g325">
          <g
             stroke-linejoin="round"
             stroke-linecap="round"
             fill="none"
             stroke-opacity="1.0000"
             stroke="#000000"
             id="g327">
            <path
               d="M 89.308 55.373 L 173.27 65.951"
               id="path329" />
          </g>
          <!-- drawing style -->
        </g>
        <!-- clip29 -->
      </g>
      <!-- transform -->
      <g
         transform="matrix(.56693, 0.0000, 0.0000, .56693, 0.0000, 0.0000)"
         id="g331">
        <clipPath
           id="clip30">
          <path
             d="M 0.0000 0.0000 L 0.0000 277.00 L 604.00 277.00 L 604.00 0.0000 z"
             id="path334" />
        </clipPath>
        <g
           clip-path="url(#clip30)"
           id="g336">
          <g
             fill-opacity="1.0000"
             fill-rule="nonzero;"
             stroke="none"
             fill="#000000"
             id="g338">
            <path
               d="M 187.16 67.701 L 172.83 69.424 L 173.70 62.479 z"
               id="path340" />
          </g>
          <!-- drawing style -->
        </g>
        <!-- clip30 -->
      </g>
      <!-- transform -->
      <g
         transform="matrix(10.772, 0.0000, 0.0000, 10.772, 73.134, 45.113)"
         id="g342">
        <clipPath
           id="clip31">
          <path
             d="M -6.7895 -4.1881 L -6.7895 10.391 L 25.000 10.391 L 25.000 -4.1881 z"
             id="path345" />
        </clipPath>
        <g
           clip-path="url(#clip31)"
           id="g347">
          <g
             fill-opacity="1.0000"
             fill-rule="nonzero;"
             stroke="none"
             fill="#000000"
             id="g349">
            <path
               d="M .43750 -.70312 L .78125 -.015625 Q .78125 -.015625 .78125 -.015625 Q .78125 -0.0000 .76562 -0.0000 L .062500 -0.0000 Q .046875 -0.0000 .046875 -.015625 Q .046875 -.015625 .046875 -.015625 L .39062 -.70312 Q .39062 -.71875 .40625 -.71875 Q .40625 -.71875 .42188 -.71875 Q .43750 -.71875 .43750 -.70312 Q .43750 -.70312 .43750 -.70312 z M .39062 -.60938 L .10938 -.078125 L .65625 -.078125 L .39062 -.60938 z"
               id="path351" />
          </g>
          <!-- drawing style -->
        </g>
        <!-- clip31 -->
      </g>
      <!-- transform -->
      <g
         transform="matrix(10.772, 0.0000, 0.0000, 10.772, 81.712, 45.113)"
         id="g353">
        <clipPath
           id="clip32">
          <path
             d="M -7.5858 -4.1881 L -7.5858 10.391 L 24.204 10.391 L 24.204 -4.1881 z"
             id="path356" />
        </clipPath>
        <g
           clip-path="url(#clip32)"
           id="g358">
          <g
             fill-opacity="1.0000"
             fill-rule="nonzero;"
             stroke="none"
             fill="#000000"
             id="g360">
            <path
               d="M .53125 -.59375 L .21875 -.59375 Q .18750 -.59375 .18750 -.60938 Q .18750 -.60938 .18750 -.60938 Q .18750 -.64062 .21875 -.64062 L .54688 -.64062 Q .53125 -.65625 .53125 -.68750 Q .53125 -.70312 .54688 -.71875 Q .54688 -.71875 .54688 -.71875 Q .56250 -.71875 .56250 -.68750 Q .57812 -.65625 .60938 -.64062 Q .62500 -.62500 .62500 -.60938 Q .62500 -.60938 .60938 -.59375 Q .56250 -.57812 .53125 -.53125 Q .51562 -.51562 .51562 -.51562 Q .50000 -.51562 .48438 -.53125 Q .48438 -.53125 .48438 -.53125 Q .48438 -.54688 .53125 -.59375 z"
               id="path362" />
          </g>
          <!-- drawing style -->
        </g>
        <!-- clip32 -->
      </g>
      <!-- transform -->
      <g
         transform="matrix(10.772, 0.0000, 0.0000, 10.772, 82.110, 45.113)"
         id="g364">
        <clipPath
           id="clip33">
          <path
             d="M -7.6228 -4.1881 L -7.6228 10.391 L 24.167 10.391 L 24.167 -4.1881 z"
             id="path367" />
        </clipPath>
        <g
           clip-path="url(#clip33)"
           id="g369">
          <g
             fill-opacity="1.0000"
             fill-rule="nonzero;"
             stroke="none"
             fill="#000000"
             id="g371">
            <path
               d="M .39062 -.37500 L .39062 -.37500 Q .37500 -.42188 .29688 -.42188 Q .21875 -.42188 .18750 -.35938 Q .18750 -.34375 .18750 -.32812 Q .18750 -.29688 .23438 -.28125 L .23438 -.28125 L .23438 -.28125 Q .25000 -.28125 .26562 -.26562 Q .32812 -.25000 .34375 -.23438 Q .35938 -.23438 .35938 -.23438 Q .39062 -.20312 .39062 -.15625 Q .39062 -.10938 .35938 -.062500 Q .29688 .015625 .18750 .015625 Q .10938 .015625 .062500 -.046875 Q .046875 -.062500 .046875 -.093750 Q .046875 -.14062 .093750 -.15625 Q .093750 -.15625 .10938 -.15625 Q .14062 -.14062 .14062 -.10938 Q .14062 -.093750 .12500 -.078125 Q .10938 -.062500 .078125 -.062500 Q .10938 -.015625 .20312 -.015625 Q .29688 -.015625 .32812 -.093750 Q .34375 -.10938 .34375 -.12500 Q .34375 -.17188 .28125 -.18750 L .28125 -.18750 L .28125 -.18750 Q .26562 -.18750 .23438 -.20312 Q .14062 -.21875 .14062 -.28125 Q .12500 -.28125 .12500 -.29688 Q .12500 -.34375 .17188 -.39062 Q .21875 -.43750 .29688 -.43750 Q .37500 -.43750 .40625 -.39062 Q .42188 -.37500 .42188 -.35938 Q .42188 -.31250 .39062 -.29688 Q .37500 -.29688 .37500 -.29688 Q .34375 -.29688 .34375 -.32812 Q .34375 -.35938 .37500 -.37500 Q .37500 -.37500 .39062 -.37500 z"
               id="path373" />
          </g>
          <!-- drawing style -->
        </g>
        <!-- clip33 -->
      </g>
      <!-- transform -->
      <g
         transform="matrix(.56693, 0.0000, 0.0000, .56693, 0.0000, 0.0000)"
         id="g375">
        <clipPath
           id="clip34">
          <path
             d="M 0.0000 0.0000 L 0.0000 277.00 L 604.00 277.00 L 604.00 0.0000 z"
             id="path378" />
        </clipPath>
        <g
           clip-path="url(#clip34)"
           id="g380">
          <g
             stroke-linejoin="round"
             stroke-linecap="round"
             fill="none"
             stroke-opacity="1.0000"
             stroke="#6666ff"
             id="g382">
            <path
               d="M 406.00 100.00 L 531.49 152.43"
               id="path384" />
          </g>
          <!-- drawing style -->
        </g>
        <!-- clip34 -->
      </g>
      <!-- transform -->
      <g
         transform="matrix(.56693, 0.0000, 0.0000, .56693, 0.0000, 0.0000)"
         id="g386">
        <clipPath
           id="clip35">
          <path
             d="M 0.0000 0.0000 L 0.0000 277.00 L 604.00 277.00 L 604.00 0.0000 z"
             id="path389" />
        </clipPath>
        <g
           clip-path="url(#clip35)"
           id="g391">
          <g
             fill-opacity="1.0000"
             fill-rule="nonzero;"
             stroke="none"
             fill="#6666ff"
             id="g393">
            <path
               d="M 544.40 157.83 L 530.14 155.66 L 532.84 149.20 z"
               id="path395" />
          </g>
          <!-- drawing style -->
        </g>
        <!-- clip35 -->
      </g>
      <!-- transform -->
      <g
         transform="matrix(10.772, 0.0000, 0.0000, 10.772, 269.81, 66.089)"
         id="g397">
        <clipPath
           id="clip36">
          <path
             d="M -25.048 -6.1355 L -25.048 8.4435 L 6.7410 8.4435 L 6.7410 -6.1355 z"
             id="path400" />
        </clipPath>
        <g
           clip-path="url(#clip36)"
           id="g402">
          <g
             fill-opacity="1.0000"
             fill-rule="nonzero;"
             stroke="none"
             fill="#6666ff"
             id="g404">
            <path
               d="M .53125 -.59375 L .21875 -.59375 Q .18750 -.59375 .18750 -.60938 Q .18750 -.60938 .18750 -.60938 Q .18750 -.64062 .21875 -.64062 L .54688 -.64062 Q .53125 -.65625 .53125 -.68750 Q .53125 -.70312 .54688 -.71875 Q .54688 -.71875 .54688 -.71875 Q .56250 -.71875 .56250 -.68750 Q .57812 -.65625 .60938 -.64062 Q .62500 -.62500 .62500 -.60938 Q .62500 -.60938 .60938 -.59375 Q .56250 -.57812 .53125 -.53125 Q .51562 -.51562 .51562 -.51562 Q .50000 -.51562 .48438 -.53125 Q .48438 -.53125 .48438 -.53125 Q .48438 -.54688 .53125 -.59375 z"
               id="path406" />
          </g>
          <!-- drawing style -->
        </g>
        <!-- clip36 -->
      </g>
      <!-- transform -->
      <g
         transform="matrix(10.772, 0.0000, 0.0000, 10.772, 270.43, 66.089)"
         id="g408">
        <clipPath
           id="clip37">
          <path
             d="M -25.105 -6.1355 L -25.105 8.4435 L 6.6842 8.4435 L 6.6842 -6.1355 z"
             id="path411" />
        </clipPath>
        <g
           clip-path="url(#clip37)"
           id="g413">
          <g
             fill-opacity="1.0000"
             fill-rule="nonzero;"
             stroke="none"
             fill="#6666ff"
             id="g415">
            <path
               d="M .46875 -.37500 Q .46875 -.31250 .43750 -.21875 Q .37500 -.031250 .28125 -0.0000 Q .26562 .015625 .25000 .015625 Q .15625 .015625 .12500 -.046875 Q .10938 -.078125 .10938 -.10938 Q .10938 -.17188 .15625 -.28125 L .17188 -.31250 Q .18750 -.35938 .18750 -.39062 Q .18750 -.42188 .15625 -.42188 Q .10938 -.42188 .062500 -.32812 Q .062500 -.31250 .062500 -.29688 Q .046875 -.28125 .046875 -.28125 Q .031250 -.28125 .031250 -.28125 Q .031250 -.31250 .046875 -.34375 Q .093750 -.43750 .15625 -.43750 Q .21875 -.43750 .23438 -.39062 Q .25000 -.37500 .25000 -.35938 Q .25000 -.34375 .23438 -.31250 Q .17188 -.17188 .17188 -.10938 L .17188 -.093750 Q .17188 -.015625 .23438 -.015625 L .25000 -.015625 Q .32812 -.015625 .39062 -.14062 Q .42188 -.23438 .42188 -.28125 Q .42188 -.32812 .39062 -.35938 Q .37500 -.37500 .37500 -.39062 Q .37500 -.42188 .40625 -.43750 Q .40625 -.43750 .42188 -.43750 Q .45312 -.43750 .46875 -.40625 Q .46875 -.39062 .46875 -.37500 z"
               id="path417" />
          </g>
          <!-- drawing style -->
        </g>
        <!-- clip37 -->
      </g>
      <!-- transform -->
      <g
         transform="matrix(7.5402, 0.0000, 0.0000, 7.5402, 275.65, 67.705)"
         id="g419">
        <clipPath
           id="clip38">
          <path
             d="M -36.557 -8.9793 L -36.557 11.848 L 8.8564 11.848 L 8.8564 -8.9793 z"
             id="path422" />
        </clipPath>
        <g
           clip-path="url(#clip38)"
           id="g424">
          <g
             fill-opacity="1.0000"
             fill-rule="nonzero;"
             stroke="none"
             fill="#6666ff"
             id="g426">
            <path
               d="M .45312 -.17188 L .45312 -.17188 L .42188 -0.0000 L .046875 -0.0000 Q .046875 -.031250 .062500 -.031250 L .062500 -.031250 L .25000 -.25000 Q .35938 -.37500 .35938 -.46875 Q .35938 -.56250 .29688 -.60938 L .29688 -.60938 L .29688 -.60938 Q .26562 -.64062 .21875 -.64062 Q .15625 -.64062 .10938 -.57812 Q .093750 -.56250 .093750 -.53125 Q .093750 -.53125 .10938 -.53125 Q .14062 -.53125 .15625 -.50000 L .15625 -.50000 Q .15625 -.48438 .15625 -.48438 Q .15625 -.43750 .10938 -.43750 Q .10938 -.42188 .10938 -.42188 Q .062500 -.42188 .046875 -.45312 Q .046875 -.46875 .046875 -.48438 Q .046875 -.56250 .10938 -.60938 Q .15625 -.67188 .23438 -.67188 Q .34375 -.67188 .40625 -.59375 Q .43750 -.54688 .45312 -.48438 Q .45312 -.48438 .45312 -.46875 Q .45312 -.40625 .39062 -.32812 Q .35938 -.29688 .29688 -.25000 L .25000 -.18750 L .23438 -.18750 L .12500 -.078125 L .31250 -.078125 Q .39062 -.078125 .40625 -.078125 Q .40625 -.093750 .42188 -.17188 L .45312 -.17188 z"
               id="path428" />
          </g>
          <!-- drawing style -->
        </g>
        <!-- clip38 -->
      </g>
      <!-- transform -->
      <g
         transform="matrix(.56693, 0.0000, 0.0000, .56693, 0.0000, 0.0000)"
         id="g430">
        <clipPath
           id="clip39">
          <path
             d="M 0.0000 0.0000 L 0.0000 277.00 L 604.00 277.00 L 604.00 0.0000 z"
             id="path433" />
        </clipPath>
        <g
           clip-path="url(#clip39)"
           id="g435">
          <g
             stroke-linejoin="round"
             stroke-linecap="round"
             fill="none"
             stroke-opacity="1.0000"
             stroke="#6666ff"
             id="g437">
            <path
               d="M 544.40 157.83 L 409.83 177.50"
               id="path439" />
          </g>
          <!-- drawing style -->
        </g>
        <!-- clip39 -->
      </g>
      <!-- transform -->
      <g
         transform="matrix(.56693, 0.0000, 0.0000, .56693, 0.0000, 0.0000)"
         id="g441">
        <clipPath
           id="clip40">
          <path
             d="M 0.0000 0.0000 L 0.0000 277.00 L 604.00 277.00 L 604.00 0.0000 z"
             id="path444" />
        </clipPath>
        <g
           clip-path="url(#clip40)"
           id="g446">
          <g
             fill-opacity="1.0000"
             fill-rule="nonzero;"
             stroke="none"
             fill="#6666ff"
             id="g448">
            <path
               d="M 395.98 179.52 L 409.33 174.04 L 410.34 180.96 z"
               id="path450" />
          </g>
          <!-- drawing style -->
        </g>
        <!-- clip40 -->
      </g>
      <!-- transform -->
      <g
         transform="matrix(10.772, 0.0000, 0.0000, 10.772, 261.92, 107.48)"
         id="g452">
        <clipPath
           id="clip41">
          <path
             d="M -24.316 -9.9776 L -24.316 4.6013 L 7.4737 4.6013 L 7.4737 -9.9776 z"
             id="path455" />
        </clipPath>
        <g
           clip-path="url(#clip41)"
           id="g457">
          <g
             fill-opacity="1.0000"
             fill-rule="nonzero;"
             stroke="none"
             fill="#6666ff"
             id="g459">
            <path
               d="M .65625 -.23438 L .10938 -.23438 Q .078125 -.23438 .078125 -.25000 Q .078125 -.26562 .10938 -.26562 L .65625 -.26562 Q .68750 -.26562 .68750 -.25000 Q .68750 -.23438 .65625 -.23438 z"
               id="path461" />
          </g>
          <!-- drawing style -->
        </g>
        <!-- clip41 -->
      </g>
      <!-- transform -->
      <g
         transform="matrix(10.772, 0.0000, 0.0000, 10.772, 269.69, 107.48)"
         id="g463">
        <clipPath
           id="clip42">
          <path
             d="M -25.037 -9.9776 L -25.037 4.6013 L 6.7527 4.6013 L 6.7527 -9.9776 z"
             id="path466" />
        </clipPath>
        <g
           clip-path="url(#clip42)"
           id="g468">
          <g
             fill-opacity="1.0000"
             fill-rule="nonzero;"
             stroke="none"
             fill="#6666ff"
             id="g470">
            <path
               d="M .53125 -.59375 L .21875 -.59375 Q .18750 -.59375 .18750 -.60938 Q .18750 -.60938 .18750 -.60938 Q .18750 -.64062 .21875 -.64062 L .54688 -.64062 Q .53125 -.65625 .53125 -.68750 Q .53125 -.70312 .54688 -.71875 Q .54688 -.71875 .54688 -.71875 Q .56250 -.71875 .56250 -.68750 Q .57812 -.65625 .60938 -.64062 Q .62500 -.62500 .62500 -.60938 Q .62500 -.60938 .60938 -.59375 Q .56250 -.57812 .53125 -.53125 Q .51562 -.51562 .51562 -.51562 Q .50000 -.51562 .48438 -.53125 Q .48438 -.53125 .48438 -.53125 Q .48438 -.54688 .53125 -.59375 z"
               id="path472" />
          </g>
          <!-- drawing style -->
        </g>
        <!-- clip42 -->
      </g>
      <!-- transform -->
      <g
         transform="matrix(10.772, 0.0000, 0.0000, 10.772, 270.30, 107.48)"
         id="g474">
        <clipPath
           id="clip43">
          <path
             d="M -25.094 -9.9776 L -25.094 4.6013 L 6.6959 4.6013 L 6.6959 -9.9776 z"
             id="path477" />
        </clipPath>
        <g
           clip-path="url(#clip43)"
           id="g479">
          <g
             fill-opacity="1.0000"
             fill-rule="nonzero;"
             stroke="none"
             fill="#6666ff"
             id="g481">
            <path
               d="M .46875 -.37500 Q .46875 -.31250 .43750 -.21875 Q .37500 -.031250 .28125 -0.0000 Q .26562 .015625 .25000 .015625 Q .15625 .015625 .12500 -.046875 Q .10938 -.078125 .10938 -.10938 Q .10938 -.17188 .15625 -.28125 L .17188 -.31250 Q .18750 -.35938 .18750 -.39062 Q .18750 -.42188 .15625 -.42188 Q .10938 -.42188 .062500 -.32812 Q .062500 -.31250 .062500 -.29688 Q .046875 -.28125 .046875 -.28125 Q .031250 -.28125 .031250 -.28125 Q .031250 -.31250 .046875 -.34375 Q .093750 -.43750 .15625 -.43750 Q .21875 -.43750 .23438 -.39062 Q .25000 -.37500 .25000 -.35938 Q .25000 -.34375 .23438 -.31250 Q .17188 -.17188 .17188 -.10938 L .17188 -.093750 Q .17188 -.015625 .23438 -.015625 L .25000 -.015625 Q .32812 -.015625 .39062 -.14062 Q .42188 -.23438 .42188 -.28125 Q .42188 -.32812 .39062 -.35938 Q .37500 -.37500 .37500 -.39062 Q .37500 -.42188 .40625 -.43750 Q .40625 -.43750 .42188 -.43750 Q .45312 -.43750 .46875 -.40625 Q .46875 -.39062 .46875 -.37500 z"
               id="path483" />
          </g>
          <!-- drawing style -->
        </g>
        <!-- clip43 -->
      </g>
      <!-- transform -->
      <g
         transform="matrix(7.5402, 0.0000, 0.0000, 7.5402, 275.52, 109.09)"
         id="g485">
        <clipPath
           id="clip44">
          <path
             d="M -36.540 -14.468 L -36.540 6.3591 L 8.8731 6.3591 L 8.8731 -14.468 z"
             id="path488" />
        </clipPath>
        <g
           clip-path="url(#clip44)"
           id="g490">
          <g
             fill-opacity="1.0000"
             fill-rule="nonzero;"
             stroke="none"
             fill="#6666ff"
             id="g492">
            <path
               d="M .29688 -.64062 L .29688 -.078125 Q .29688 -.046875 .31250 -.046875 Q .32812 -.031250 .39062 -.031250 L .42188 -.031250 L .42188 -0.0000 Q .39062 -0.0000 .25000 -0.0000 Q .12500 -0.0000 .093750 -0.0000 L .093750 -.031250 L .12500 -.031250 Q .20312 -.031250 .21875 -.046875 L .21875 -.046875 Q .21875 -.062500 .21875 -.078125 L .21875 -.59375 Q .17188 -.57812 .093750 -.57812 L .093750 -.60938 Q .20312 -.60938 .26562 -.67188 Q .29688 -.67188 .29688 -.65625 L .29688 -.65625 L .29688 -.65625 Q .29688 -.65625 .29688 -.64062 z"
               id="path494" />
          </g>
          <!-- drawing style -->
        </g>
        <!-- clip44 -->
      </g>
      <!-- transform -->
      <g
         transform="matrix(.56693, 0.0000, 0.0000, .56693, 0.0000, 0.0000)"
         id="g496">
        <clipPath
           id="clip45">
          <path
             d="M 0.0000 0.0000 L 0.0000 277.00 L 604.00 277.00 L 604.00 0.0000 z"
             id="path499" />
        </clipPath>
        <g
           clip-path="url(#clip45)"
           id="g501">
          <g
             stroke-linejoin="round"
             stroke-linecap="round"
             fill="none"
             stroke-opacity="1.0000"
             stroke="#6666ff"
             id="g503">
            <path
               d="M 406.00 100.00 L 397.73 165.63"
               id="path505" />
          </g>
          <!-- drawing style -->
        </g>
        <!-- clip45 -->
      </g>
      <!-- transform -->
      <g
         transform="matrix(.56693, 0.0000, 0.0000, .56693, 0.0000, 0.0000)"
         id="g507">
        <clipPath
           id="clip46">
          <path
             d="M 0.0000 0.0000 L 0.0000 277.00 L 604.00 277.00 L 604.00 0.0000 z"
             id="path510" />
        </clipPath>
        <g
           clip-path="url(#clip46)"
           id="g512">
          <g
             fill-opacity="1.0000"
             fill-rule="nonzero;"
             stroke="none"
             fill="#6666ff"
             id="g514">
            <path
               d="M 395.98 179.52 L 394.26 165.20 L 401.20 166.07 z"
               id="path516" />
          </g>
          <!-- drawing style -->
        </g>
        <!-- clip46 -->
      </g>
      <!-- transform -->
      <g
         transform="matrix(10.772, 0.0000, 0.0000, 10.772, 208.63, 84.231)"
         id="g518">
        <clipPath
           id="clip47">
          <path
             d="M -19.368 -7.8197 L -19.368 6.7592 L 12.421 6.7592 L 12.421 -7.8197 z"
             id="path521" />
        </clipPath>
        <g
           clip-path="url(#clip47)"
           id="g523">
          <g
             fill-opacity="1.0000"
             fill-rule="nonzero;"
             stroke="none"
             fill="#6666ff"
             id="g525">
            <path
               d="M .43750 -.70312 L .78125 -.015625 Q .78125 -.015625 .78125 -.015625 Q .78125 -0.0000 .76562 -0.0000 L .062500 -0.0000 Q .046875 -0.0000 .046875 -.015625 Q .046875 -.015625 .046875 -.015625 L .39062 -.70312 Q .39062 -.71875 .40625 -.71875 Q .40625 -.71875 .42188 -.71875 Q .43750 -.71875 .43750 -.70312 Q .43750 -.70312 .43750 -.70312 z M .39062 -.60938 L .10938 -.078125 L .65625 -.078125 L .39062 -.60938 z"
               id="path527" />
          </g>
          <!-- drawing style -->
        </g>
        <!-- clip47 -->
      </g>
      <!-- transform -->
      <g
         transform="matrix(10.772, 0.0000, 0.0000, 10.772, 216.99, 84.231)"
         id="g529">
        <clipPath
           id="clip48">
          <path
             d="M -20.145 -7.8197 L -20.145 6.7592 L 11.644 6.7592 L 11.644 -7.8197 z"
             id="path532" />
        </clipPath>
        <g
           clip-path="url(#clip48)"
           id="g534">
          <g
             fill-opacity="1.0000"
             fill-rule="nonzero;"
             stroke="none"
             fill="#6666ff"
             id="g536">
            <path
               d="M .53125 -.59375 L .21875 -.59375 Q .18750 -.59375 .18750 -.60938 Q .18750 -.60938 .18750 -.60938 Q .18750 -.64062 .21875 -.64062 L .54688 -.64062 Q .53125 -.65625 .53125 -.68750 Q .53125 -.70312 .54688 -.71875 Q .54688 -.71875 .54688 -.71875 Q .56250 -.71875 .56250 -.68750 Q .57812 -.65625 .60938 -.64062 Q .62500 -.62500 .62500 -.60938 Q .62500 -.60938 .60938 -.59375 Q .56250 -.57812 .53125 -.53125 Q .51562 -.51562 .51562 -.51562 Q .50000 -.51562 .48438 -.53125 Q .48438 -.53125 .48438 -.53125 Q .48438 -.54688 .53125 -.59375 z"
               id="path538" />
          </g>
          <!-- drawing style -->
        </g>
        <!-- clip48 -->
      </g>
      <!-- transform -->
      <g
         transform="matrix(10.772, 0.0000, 0.0000, 10.772, 217.61, 84.231)"
         id="g540">
        <clipPath
           id="clip49">
          <path
             d="M -20.202 -7.8197 L -20.202 6.7592 L 11.588 6.7592 L 11.588 -7.8197 z"
             id="path543" />
        </clipPath>
        <g
           clip-path="url(#clip49)"
           id="g545">
          <g
             fill-opacity="1.0000"
             fill-rule="nonzero;"
             stroke="none"
             fill="#6666ff"
             id="g547">
            <path
               d="M .46875 -.37500 Q .46875 -.31250 .43750 -.21875 Q .37500 -.031250 .28125 -0.0000 Q .26562 .015625 .25000 .015625 Q .15625 .015625 .12500 -.046875 Q .10938 -.078125 .10938 -.10938 Q .10938 -.17188 .15625 -.28125 L .17188 -.31250 Q .18750 -.35938 .18750 -.39062 Q .18750 -.42188 .15625 -.42188 Q .10938 -.42188 .062500 -.32812 Q .062500 -.31250 .062500 -.29688 Q .046875 -.28125 .046875 -.28125 Q .031250 -.28125 .031250 -.28125 Q .031250 -.31250 .046875 -.34375 Q .093750 -.43750 .15625 -.43750 Q .21875 -.43750 .23438 -.39062 Q .25000 -.37500 .25000 -.35938 Q .25000 -.34375 .23438 -.31250 Q .17188 -.17188 .17188 -.10938 L .17188 -.093750 Q .17188 -.015625 .23438 -.015625 L .25000 -.015625 Q .32812 -.015625 .39062 -.14062 Q .42188 -.23438 .42188 -.28125 Q .42188 -.32812 .39062 -.35938 Q .37500 -.37500 .37500 -.39062 Q .37500 -.42188 .40625 -.43750 Q .40625 -.43750 .42188 -.43750 Q .45312 -.43750 .46875 -.40625 Q .46875 -.39062 .46875 -.37500 z"
               id="path549" />
          </g>
          <!-- drawing style -->
        </g>
        <!-- clip49 -->
      </g>
      <!-- transform -->
      <g
         transform="matrix(.56693, 0.0000, 0.0000, .56693, 0.0000, 0.0000)"
         id="g551">
        <clipPath
           id="clip50">
          <path
             d="M 0.0000 0.0000 L 0.0000 277.00 L 604.00 277.00 L 604.00 0.0000 z"
             id="path554" />
        </clipPath>
        <g
           clip-path="url(#clip50)"
           id="g556">
          <g
             fill-opacity="1.0000"
             fill-rule="nonzero;"
             stroke="none"
             fill="#cc0000"
             id="g558">
            <path
               d="M 121.00 238.00 C 121.00 240.76 118.76 243.00 116.00 243.00 C 113.24 243.00 111.00 240.76 111.00 238.00 C 111.00 235.24 113.24 233.00 116.00 233.00 C 118.76 233.00 121.00 235.24 121.00 238.00 z"
               id="path560" />
          </g>
          <!-- drawing style -->
        </g>
        <!-- clip50 -->
      </g>
      <!-- transform -->
      <g
         transform="matrix(.56693, 0.0000, 0.0000, .56693, 0.0000, 0.0000)"
         id="g562">
        <clipPath
           id="clip51">
          <path
             d="M 0.0000 0.0000 L 0.0000 277.00 L 604.00 277.00 L 604.00 0.0000 z"
             id="path565" />
        </clipPath>
        <g
           clip-path="url(#clip51)"
           id="g567">
          <g
             stroke-linejoin="round"
             stroke-linecap="round"
             fill="none"
             stroke-opacity="1.0000"
             stroke="#000000"
             id="g569">
            <path
               d="M 121.00 238.00 C 121.00 240.76 118.76 243.00 116.00 243.00 C 113.24 243.00 111.00 240.76 111.00 238.00 C 111.00 235.24 113.24 233.00 116.00 233.00 C 118.76 233.00 121.00 235.24 121.00 238.00 z"
               id="path571" />
          </g>
          <!-- drawing style -->
        </g>
        <!-- clip51 -->
      </g>
      <!-- transform -->
      <g
         transform="matrix(.56693, 0.0000, 0.0000, .56693, 0.0000, 0.0000)"
         id="g573">
        <clipPath
           id="clip52">
          <path
             d="M 0.0000 0.0000 L 0.0000 277.00 L 604.00 277.00 L 604.00 0.0000 z"
             id="path576" />
        </clipPath>
        <g
           clip-path="url(#clip52)"
           id="g578">
          <g
             fill-opacity="1.0000"
             fill-rule="nonzero;"
             stroke="none"
             fill="#7d7dff"
             id="g580">
            <path
               d="M 94.000 55.000 C 94.000 57.761 91.761 60.000 89.000 60.000 C 86.239 60.000 84.000 57.761 84.000 55.000 C 84.000 52.239 86.239 50.000 89.000 50.000 C 91.761 50.000 94.000 52.239 94.000 55.000 z"
               id="path582" />
          </g>
          <!-- drawing style -->
        </g>
        <!-- clip52 -->
      </g>
      <!-- transform -->
      <g
         transform="matrix(.56693, 0.0000, 0.0000, .56693, 0.0000, 0.0000)"
         id="g584">
        <clipPath
           id="clip53">
          <path
             d="M 0.0000 0.0000 L 0.0000 277.00 L 604.00 277.00 L 604.00 0.0000 z"
             id="path587" />
        </clipPath>
        <g
           clip-path="url(#clip53)"
           id="g589">
          <g
             stroke-linejoin="round"
             stroke-linecap="round"
             fill="none"
             stroke-opacity="1.0000"
             stroke="#000000"
             id="g591">
            <path
               d="M 94.000 55.000 C 94.000 57.761 91.761 60.000 89.000 60.000 C 86.239 60.000 84.000 57.761 84.000 55.000 C 84.000 52.239 86.239 50.000 89.000 50.000 C 91.761 50.000 94.000 52.239 94.000 55.000 z"
               id="path593" />
          </g>
          <!-- drawing style -->
        </g>
        <!-- clip53 -->
      </g>
      <!-- transform -->
      <g
         transform="matrix(.56693, 0.0000, 0.0000, .56693, 0.0000, 0.0000)"
         id="g595">
        <clipPath
           id="clip54">
          <path
             d="M 0.0000 0.0000 L 0.0000 277.00 L 604.00 277.00 L 604.00 0.0000 z"
             id="path598" />
        </clipPath>
        <g
           clip-path="url(#clip54)"
           id="g600">
          <g
             fill-opacity="1.0000"
             fill-rule="nonzero;"
             stroke="none"
             fill="#7d7dff"
             id="g602">
            <path
               d="M 192.00 68.000 C 192.00 70.761 189.76 73.000 187.00 73.000 C 184.24 73.000 182.00 70.761 182.00 68.000 C 182.00 65.239 184.24 63.000 187.00 63.000 C 189.76 63.000 192.00 65.239 192.00 68.000 z"
               id="path604" />
          </g>
          <!-- drawing style -->
        </g>
        <!-- clip54 -->
      </g>
      <!-- transform -->
      <g
         transform="matrix(.56693, 0.0000, 0.0000, .56693, 0.0000, 0.0000)"
         id="g606">
        <clipPath
           id="clip55">
          <path
             d="M 0.0000 0.0000 L 0.0000 277.00 L 604.00 277.00 L 604.00 0.0000 z"
             id="path609" />
        </clipPath>
        <g
           clip-path="url(#clip55)"
           id="g611">
          <g
             stroke-linejoin="round"
             stroke-linecap="round"
             fill="none"
             stroke-opacity="1.0000"
             stroke="#000000"
             id="g613">
            <path
               d="M 192.00 68.000 C 192.00 70.761 189.76 73.000 187.00 73.000 C 184.24 73.000 182.00 70.761 182.00 68.000 C 182.00 65.239 184.24 63.000 187.00 63.000 C 189.76 63.000 192.00 65.239 192.00 68.000 z"
               id="path615" />
          </g>
          <!-- drawing style -->
        </g>
        <!-- clip55 -->
      </g>
      <!-- transform -->
      <g
         transform="matrix(.56693, 0.0000, 0.0000, .56693, 0.0000, 0.0000)"
         id="g617">
        <clipPath
           id="clip56">
          <path
             d="M 0.0000 0.0000 L 0.0000 277.00 L 604.00 277.00 L 604.00 0.0000 z"
             id="path620" />
        </clipPath>
        <g
           clip-path="url(#clip56)"
           id="g622">
          <g
             fill-opacity="1.0000"
             fill-rule="nonzero;"
             stroke="none"
             fill="#cc0000"
             id="g624">
            <path
               d="M 411.00 100.00 C 411.00 102.76 408.76 105.00 406.00 105.00 C 403.24 105.00 401.00 102.76 401.00 100.00 C 401.00 97.239 403.24 95.000 406.00 95.000 C 408.76 95.000 411.00 97.239 411.00 100.00 z"
               id="path626" />
          </g>
          <!-- drawing style -->
        </g>
        <!-- clip56 -->
      </g>
      <!-- transform -->
      <g
         transform="matrix(.56693, 0.0000, 0.0000, .56693, 0.0000, 0.0000)"
         id="g628">
        <clipPath
           id="clip57">
          <path
             d="M 0.0000 0.0000 L 0.0000 277.00 L 604.00 277.00 L 604.00 0.0000 z"
             id="path631" />
        </clipPath>
        <g
           clip-path="url(#clip57)"
           id="g633">
          <g
             stroke-linejoin="round"
             stroke-linecap="round"
             fill="none"
             stroke-opacity="1.0000"
             stroke="#000000"
             id="g635">
            <path
               d="M 411.00 100.00 C 411.00 102.76 408.76 105.00 406.00 105.00 C 403.24 105.00 401.00 102.76 401.00 100.00 C 401.00 97.239 403.24 95.000 406.00 95.000 C 408.76 95.000 411.00 97.239 411.00 100.00 z"
               id="path637" />
          </g>
          <!-- drawing style -->
        </g>
        <!-- clip57 -->
      </g>
      <!-- transform -->
      <text
         xml:space="preserve"
         style="font-style:normal;font-weight:normal;font-size:12px;line-height:1.25;font-family:sans-serif;letter-spacing:0px;word-spacing:0px;fill:#000000;fill-opacity:1;stroke:none"
         x="62.941971"
         y="105.3187"
         id="text1169"><tspan
           sodipodi:role="line"
           id="tspan1167"
           x="62.941971"
           y="105.3187"
           style="font-style:normal;font-variant:normal;font-weight:normal;font-stretch:normal;font-size:12px;font-family:FreeSerif;-inkscape-font-specification:FreeSerif">Δθ</tspan></text>
    </g>
    <!-- layer0 -->
  </g>
  <!-- default stroke -->
</svg>
