<?xml version="1.0" encoding="UTF-8" standalone="no"?>
<!-- Created with Inkscape (http://www.inkscape.org/) -->
<svg
   xmlns:dc="http://purl.org/dc/elements/1.1/"
   xmlns:cc="http://web.resource.org/cc/"
   xmlns:rdf="http://www.w3.org/1999/02/22-rdf-syntax-ns#"
   xmlns:svg="http://www.w3.org/2000/svg"
   xmlns="http://www.w3.org/2000/svg"
   xmlns:sodipodi="http://sodipodi.sourceforge.net/DTD/sodipodi-0.dtd"
   xmlns:inkscape="http://www.inkscape.org/namespaces/inkscape"
   id="svg2"
   sodipodi:version="0.32"
   inkscape:version="0.45pre1"
   width="335"
   height="367"
   version="1.0"
   sodipodi:docbase="C:\Documents and Settings\Flanker\Desktop"
   sodipodi:docname="Circular motion.svg"
   inkscape:output_extension="org.inkscape.output.svg.inkscape"
   sodipodi:modified="true">
  <metadata
     id="metadata7">
    <rdf:RDF>
      <cc:Work
         rdf:about="">
        <dc:format>image/svg+xml</dc:format>
        <dc:type
           rdf:resource="http://purl.org/dc/dcmitype/StillImage" />
      </cc:Work>
    </rdf:RDF>
  </metadata>
  <defs
     id="defs5">
    <marker
       inkscape:stockid="TriangleOutM"
       orient="auto"
       refY="0.0"
       refX="0.0"
       id="TriangleOutM"
       style="overflow:visible">
      <path
         id="path6197"
         d="M 5.77,0.0 L -2.88,5.0 L -2.88,-5.0 L 5.77,0.0 z "
         style="fill-rule:evenodd;stroke:#000000;stroke-width:1.0pt;marker-start:none"
         transform="scale(0.4)" />
    </marker>
  </defs>
  <sodipodi:namedview
     inkscape:window-height="1003"
     inkscape:window-width="1280"
     inkscape:pageshadow="2"
     inkscape:pageopacity="0.0"
     guidetolerance="10.0"
     gridtolerance="10.0"
     objecttolerance="10.0"
     borderopacity="1.0"
     bordercolor="#666666"
     pagecolor="#ffffff"
     id="base"
     inkscape:zoom="1.1021798"
     inkscape:cx="323.1301"
     inkscape:cy="93.015261"
     inkscape:window-x="-4"
     inkscape:window-y="-4"
     inkscape:current-layer="svg2" />
  <path
     inkscape:transform-center-y="-25.015655"
     inkscape:transform-center-x="70.400962"
     style="fill:none;fill-rule:evenodd;stroke:#ff0000;stroke-width:5;stroke-linecap:round;stroke-linejoin:round;stroke-miterlimit:4;stroke-dasharray:none;stroke-opacity:1"
     d="M 217.17333,65.569308 L 75.74411,15.315098"
     id="path4115" />
  <path
     transform="matrix(1.3133207,0.4582204,-0.3294269,0.9441811,-432.87124,-220.99254)"
     style="fill:#ff0000;fill-opacity:1;fill-rule:nonzero;stroke:none;stroke-width:2;stroke-linecap:round;stroke-linejoin:round;stroke-miterlimit:4;stroke-dashoffset:0;stroke-opacity:1"
     d="M 406.48824,63.034121 L 393.33022,55.437336 L 406.48824,47.840551 L 406.48824,63.034121 z "
     id="path4117" />
  <path
     sodipodi:type="arc"
     style="fill:none;fill-opacity:1;fill-rule:nonzero;stroke:#000000;stroke-width:0.82493323;stroke-linecap:round;stroke-linejoin:round;stroke-miterlimit:4;stroke-dasharray:6.59946595, 3.29973298;stroke-dashoffset:0;stroke-opacity:1"
     id="path2161"
     sodipodi:cx="139.68272"
     sodipodi:cy="241.84235"
     sodipodi:rx="124.18932"
     sodipodi:ry="124.18932"
     d="M 263.87205 241.84235 A 124.18932 124.18932 0 1 1  15.493401,241.84235 A 124.18932 124.18932 0 1 1  263.87205 241.84235 z"
     transform="matrix(1.203835,0,0,1.203835,-0.90508,-84.577082)" />
  <path
     sodipodi:type="arc"
     style="fill:#000000;fill-opacity:1;fill-rule:nonzero;stroke:none;stroke-width:1;stroke-linecap:round;stroke-linejoin:round;stroke-miterlimit:4;stroke-dasharray:8, 4;stroke-dashoffset:0;stroke-opacity:1"
     id="path3133"
     sodipodi:cx="448.34036"
     sodipodi:cy="198.50923"
     sodipodi:rx="2.4208443"
     sodipodi:ry="2.4208443"
     d="M 450.76121 198.50923 A 2.4208443 2.4208443 0 1 1  445.91952,198.50923 A 2.4208443 2.4208443 0 1 1  450.76121 198.50923 z"
     transform="matrix(2.0653951,0,0,2.0653951,-758.75012,-203.43879)" />
  <path
     style="fill:none;fill-rule:evenodd;stroke:#000000;stroke-width:1px;stroke-linecap:butt;stroke-linejoin:miter;stroke-opacity:1"
     d="M 166.84206,206.5612 L 316.9344,206.5612"
     id="path3135" />
  <path
     id="path3137"
     d="M 167.06347,206.87485 L 217.31768,65.445625"
     style="fill:none;fill-rule:evenodd;stroke:#000000;stroke-width:1px;stroke-linecap:butt;stroke-linejoin:miter;stroke-opacity:1"
     inkscape:transform-center-x="-25.015653"
     inkscape:transform-center-y="-70.400961" />
  <path
     transform="matrix(2.0653951,0,0,2.0653951,-708.6337,-344.5637)"
     d="M 450.76121 198.50923 A 2.4208443 2.4208443 0 1 1  445.91952,198.50923 A 2.4208443 2.4208443 0 1 1  450.76121 198.50923 z"
     sodipodi:ry="2.4208443"
     sodipodi:rx="2.4208443"
     sodipodi:cy="198.50923"
     sodipodi:cx="448.34036"
     id="path3139"
     style="fill:#000000;fill-opacity:1;fill-rule:nonzero;stroke:none;stroke-width:1;stroke-linecap:round;stroke-linejoin:round;stroke-miterlimit:4;stroke-dasharray:8, 4;stroke-dashoffset:0;stroke-opacity:1"
     sodipodi:type="arc" />
  <path
     style="fill:none;fill-opacity:1;fill-rule:nonzero;stroke:#000000;stroke-width:2;stroke-linecap:round;stroke-linejoin:round;stroke-miterlimit:4;stroke-dasharray:none;stroke-dashoffset:0;stroke-opacity:1"
     d="M 316.75012,206.24887 C 316.61616,141.27904 274.96355,85.996649 216.93762,65.530117"
     id="path3141"
     sodipodi:nodetypes="cc" />
  <path
     style="fill:none;fill-rule:evenodd;stroke:#000000;stroke-width:1;stroke-linecap:butt;stroke-linejoin:miter;stroke-miterlimit:4;stroke-dasharray:3, 3;stroke-dashoffset:0;stroke-opacity:1"
     d="M 217.20041,65.366682 L 217.20041,206.45074"
     id="path5088" />
  <path
     style="fill:none;fill-rule:evenodd;stroke:#000000;stroke-width:1;stroke-linecap:butt;stroke-linejoin:miter;stroke-miterlimit:4;stroke-dasharray:3, 3;stroke-dashoffset:0;stroke-opacity:1"
     d="M 166.392,226.41118 L 217.20041,226.41118"
     id="path5090" />
  <path
     transform="matrix(1.3909627,-1.7456034e-5,1.6717632e-5,0.7466482,-381.54765,185.02609)"
     style="fill:#000000;fill-opacity:1;fill-rule:nonzero;stroke:none;stroke-width:2;stroke-linecap:round;stroke-linejoin:round;stroke-miterlimit:4;stroke-dashoffset:0;stroke-opacity:1"
     d="M 406.48824,63.034121 L 393.33022,55.437336 L 406.48824,47.840551 L 406.48824,63.034121 z "
     id="path6061" />
  <path
     transform="matrix(-1.3909627,-1.7456034e-5,-1.6717632e-5,0.7466482,764.99547,185.02609)"
     style="fill:#000000;fill-opacity:1;fill-rule:nonzero;stroke:none;stroke-width:2;stroke-linecap:round;stroke-linejoin:round;stroke-miterlimit:4;stroke-dashoffset:0;stroke-opacity:1"
     d="M 406.48824,63.034121 L 393.33022,55.437336 L 406.48824,47.840551 L 406.48824,63.034121 z "
     id="path6063" />
  <path
     transform="matrix(-1.6468841e-5,1.3909627,0.7044229,1.6717632e-5,178.15578,-481.14449)"
     style="fill:#000000;fill-opacity:1;fill-rule:nonzero;stroke:none;stroke-width:2;stroke-linecap:round;stroke-linejoin:round;stroke-miterlimit:4;stroke-dashoffset:0;stroke-opacity:1"
     d="M 406.48824,63.034121 L 393.33022,55.437336 L 406.48824,47.840551 L 406.48824,63.034121 z "
     id="path6065" />
  <path
     transform="matrix(-1.6468841e-5,-1.3909627,0.7044229,-1.6717632e-5,178.15578,754.31334)"
     style="fill:#000000;fill-opacity:1;fill-rule:nonzero;stroke:none;stroke-width:2;stroke-linecap:round;stroke-linejoin:round;stroke-miterlimit:4;stroke-dashoffset:0;stroke-opacity:1"
     d="M 406.48824,63.034121 L 393.33022,55.437336 L 406.48824,47.840551 L 406.48824,63.034121 z "
     id="path6067" />
  <path
     style="font-size:29.50968552px;font-style:normal;font-weight:normal;fill:#000000;fill-opacity:1;stroke:none;stroke-width:1px;stroke-linecap:butt;stroke-linejoin:miter;stroke-opacity:1;font-family:Bitstream Vera Sans"
     d="M 233.3056,153.09843 L 230.17884,143.60289 C 229.44877,143.6125 228.69951,143.54046 227.93103,143.38675 L 226.24518,149.29445 C 226.02423,150.06294 225.91376,150.71134 225.91377,151.23967 C 225.91376,151.64312 226.05305,151.96012 226.33163,152.19067 C 226.54296,152.36357 227.11932,152.48845 228.06071,152.5653 L 227.93103,153.09843 L 220.36629,153.09843 L 220.52479,152.5653 C 221.23564,152.53648 221.71594,152.46444 221.9657,152.34917 C 222.35954,152.18586 222.64772,151.96493 222.83024,151.68635 C 223.13763,151.23487 223.45943,150.43757 223.79564,149.29445 L 227.21058,137.49346 C 227.44112,136.70578 227.55639,136.0958 227.5564,135.66351 C 227.55639,135.22165 227.37628,134.84702 227.01606,134.53961 C 226.65583,134.23224 226.13951,134.08334 225.46709,134.09293 L 225.64,133.5598 L 232.00879,133.5598 C 234.14131,133.55981 235.67827,133.96327 236.61968,134.77015 C 237.56105,135.57708 238.03174,136.63854 238.03176,137.95455 C 238.03174,139.21295 237.54904,140.36327 236.58365,141.40551 C 235.61823,142.44777 234.29501,143.10819 232.61397,143.38675 L 234.51596,149.10713 C 234.97703,150.50962 235.43812,151.42219 235.89922,151.84485 C 236.3603,152.26751 237.10476,152.50766 238.13262,152.5653 L 237.97412,153.09843 L 233.3056,153.09843 z M 228.17599,142.56544 C 228.79076,142.6519 229.33831,142.69513 229.81861,142.69512 C 231.47084,142.69513 232.77726,142.23644 233.73787,141.31906 C 234.69846,140.40169 235.17876,139.26098 235.17877,137.89691 C 235.17876,136.83066 234.87857,136.01415 234.27821,135.44738 C 233.67782,134.88064 232.77726,134.59726 231.57652,134.59724 C 231.26911,134.59726 230.90409,134.63569 230.48143,134.71252 L 228.17599,142.56544 z M 248.53594,139.51072 L 248.53594,144.00634 L 248.06044,144.00634 C 247.6954,142.59426 247.22711,141.63366 246.65556,141.12453 C 246.084,140.61543 245.35634,140.36087 244.47259,140.36086 C 243.80017,140.36087 243.25743,140.53858 242.84437,140.89399 C 242.43131,141.24942 242.22478,141.64327 242.22479,142.07553 C 242.22478,142.61348 242.37848,143.07457 242.68587,143.4588 C 242.98366,143.85265 243.58884,144.27051 244.50141,144.71238 L 246.60513,145.73542 C 248.55514,146.68642 249.53015,147.94001 249.53016,149.49618 C 249.53015,150.69693 249.07627,151.66474 248.16851,152.3996 C 247.26073,153.13446 246.2449,153.50189 245.121,153.50189 C 244.31409,153.50189 243.39191,153.3578 242.35447,153.06962 C 242.03747,152.97356 241.7781,152.92553 241.57638,152.92553 C 241.35544,152.92553 241.18253,153.0504 241.05765,153.30016 L 240.58216,153.30016 L 240.58216,148.58841 L 241.05765,148.58841 C 241.32662,149.93325 241.84054,150.94669 242.59942,151.62871 C 243.35829,152.31074 244.20842,152.65176 245.14982,152.65175 C 245.81263,152.65176 246.35296,152.45723 246.77083,152.06819 C 247.18869,151.67915 247.39762,151.21085 247.39763,150.66331 C 247.39762,150.0005 247.16467,149.44335 246.69879,148.99186 C 246.23289,148.54038 245.30351,147.96883 243.91064,147.27719 C 242.51777,146.58556 241.6052,145.96117 241.17293,145.40401 C 240.74065,144.85648 240.52452,144.16485 240.52452,143.32911 C 240.52452,142.24365 240.89675,141.33588 241.64122,140.60581 C 242.38568,139.87576 243.34869,139.51074 244.53023,139.51072 C 245.04895,139.51074 245.67814,139.62121 246.41781,139.84213 C 246.90771,139.98623 247.23432,140.05828 247.39763,140.05827 C 247.55131,140.05828 247.67139,140.02466 247.75785,139.9574 C 247.8443,139.89017 247.94516,139.74128 248.06044,139.51072 L 248.53594,139.51072 z M 253.69437,144.87088 C 253.68476,146.83051 254.16026,148.36748 255.12086,149.48177 C 256.08146,150.59607 257.21017,151.15322 258.50699,151.15322 C 259.37152,151.15322 260.12319,150.91547 260.762,150.43997 C 261.40079,149.96447 261.93632,149.15037 262.36861,147.99764 L 262.81528,148.28582 C 262.61355,149.60185 262.02758,150.8002 261.05738,151.88087 C 260.08717,152.96155 258.87201,153.50189 257.4119,153.50189 C 255.8269,153.50189 254.47005,152.8847 253.34135,151.65033 C 252.21264,150.41596 251.64829,148.75652 251.64829,146.67201 C 251.64829,144.4146 252.22705,142.6543 253.38458,141.3911 C 254.5421,140.12792 255.99501,139.49633 257.74331,139.49631 C 259.22263,139.49633 260.43779,139.98383 261.38879,140.95883 C 262.33978,141.93385 262.81527,143.23787 262.81528,144.87088 L 253.69437,144.87088 z M 253.69437,144.03516 L 259.8038,144.03516 C 259.75576,143.18984 259.6549,142.59426 259.50121,142.24844 C 259.26105,141.71051 258.90323,141.28785 258.42774,140.98044 C 257.95223,140.67306 257.45512,140.51937 256.9364,140.51935 C 256.1391,140.51937 255.42585,140.82916 254.79666,141.44874 C 254.16746,142.06834 253.80003,142.93048 253.69437,144.03516 L 253.69437,144.03516 z M 268.40598,142.30607 C 269.95255,140.44252 271.42707,139.51074 272.82956,139.51072 C 273.55,139.51074 274.16958,139.69085 274.68832,140.05106 C 275.20703,140.4113 275.62009,141.00447 275.9275,141.83058 C 276.13882,142.40695 276.24448,143.2907 276.24449,144.48184 L 276.24449,150.11577 C 276.24448,150.95149 276.31172,151.51825 276.44622,151.81603 C 276.55187,152.05618 276.72238,152.2435 276.95774,152.37798 C 277.19308,152.51247 277.62775,152.57971 278.26176,152.57971 L 278.26176,153.09843 L 271.73447,153.09843 L 271.73447,152.57971 L 272.00824,152.57971 C 272.62302,152.57971 273.05289,152.48605 273.29785,152.29873 C 273.54279,152.11142 273.7133,151.83524 273.80937,151.47021 C 273.84778,151.32613 273.867,150.87464 273.86701,150.11577 L 273.86701,144.71238 C 273.867,143.51164 273.7109,142.63989 273.39871,142.09714 C 273.08651,141.55441 272.56058,141.28304 271.82092,141.28303 C 270.6778,141.28304 269.53949,141.90744 268.40598,143.15621 L 268.40598,150.11577 C 268.40598,151.00913 268.45881,151.56147 268.56448,151.7728 C 268.69896,152.05138 268.88388,152.25551 269.11923,152.38519 C 269.35457,152.51487 269.83247,152.57971 270.55293,152.57971 L 270.55293,153.09843 L 264.02564,153.09843 L 264.02564,152.57971 L 264.31382,152.57971 C 264.98624,152.57971 265.44012,152.4092 265.67547,152.06819 C 265.91082,151.72718 266.02849,151.07637 266.0285,150.11577 L 266.0285,145.2167 C 266.02849,143.63171 265.99247,142.66631 265.92043,142.32048 C 265.84838,141.97468 265.73791,141.73933 265.58902,141.61444 C 265.44012,141.48957 265.2408,141.42713 264.99105,141.42712 C 264.72208,141.42713 264.40027,141.49918 264.02564,141.64326 L 263.8095,141.12453 L 267.7864,139.51072 L 268.40598,139.51072 L 268.40598,142.30607 z M 289.35671,132.6088 C 292.02717,132.60882 293.3624,134.43876 293.36242,138.09864 C 293.3624,140.30804 292.82207,142.75517 291.7414,145.44004 C 290.66071,148.12492 289.42634,150.13018 288.03828,151.45581 C 286.65021,152.78144 285.22131,153.44425 283.7516,153.44425 C 282.55084,153.44425 281.57343,152.93273 280.81936,151.90969 C 280.06529,150.88665 279.68825,149.61145 279.68825,148.08409 C 279.68825,147.10429 279.90439,145.74984 280.33666,144.02075 C 280.76893,142.29168 281.41733,140.54578 282.28188,138.78307 C 283.14642,137.02038 284.22949,135.55066 285.53111,134.3739 C 286.83272,133.19719 288.10792,132.60882 289.35671,132.6088 L 289.35671,132.6088 z M 290.25007,142.40694 C 290.89366,140.38008 291.21546,138.41085 291.21547,136.49924 C 291.21546,134.30908 290.59587,133.214 289.35671,133.21398 C 288.27122,133.214 287.20495,134.03291 286.15791,135.67072 C 285.11084,137.30856 284.15024,139.55396 283.2761,142.40694 L 290.25007,142.40694 z M 283.00233,143.22825 C 282.11857,145.98519 281.6767,148.09851 281.6767,149.56822 C 281.6767,150.52883 281.87362,151.31412 282.26747,151.9241 C 282.66131,152.53408 283.24728,152.83907 284.02537,152.83907 C 284.66897,152.83907 285.27415,152.58211 285.84091,152.06819 C 286.40765,151.55427 287.07047,150.50962 287.82935,148.93423 C 288.58822,147.35884 289.30387,145.45686 289.9763,143.22825 L 283.00233,143.22825 z "
     id="text6073" />
  <path
     style="font-size:29.50968552px;font-style:normal;font-weight:normal;fill:#000000;fill-opacity:1;stroke:none;stroke-width:1px;stroke-linecap:butt;stroke-linejoin:miter;stroke-opacity:1;font-family:Bitstream Vera Sans"
     d="M 166.35382,261.09854 L 163.22706,251.60299 C 162.49699,251.61261 161.74772,251.54056 160.97925,251.38686 L 159.29339,257.29456 C 159.07245,258.06304 158.96198,258.71145 158.96199,259.23978 C 158.96198,259.64323 159.10127,259.96023 159.37985,260.19077 C 159.59118,260.36368 160.16754,260.48856 161.10893,260.56541 L 160.97925,261.09854 L 153.41451,261.09854 L 153.57301,260.56541 C 154.28386,260.53659 154.76416,260.46454 155.01391,260.34927 C 155.40776,260.18597 155.69594,259.96503 155.87846,259.68646 C 156.18585,259.23498 156.50765,258.43768 156.84386,257.29456 L 160.2588,245.49357 C 160.48934,244.70589 160.60461,244.09591 160.60462,243.66362 C 160.60461,243.22176 160.4245,242.84713 160.06428,242.53972 C 159.70405,242.23234 159.18772,242.08345 158.51531,242.09304 L 158.68822,241.5599 L 165.057,241.5599 C 167.18953,241.55992 168.72649,241.96337 169.66789,242.77026 C 170.60927,243.57718 171.07996,244.63865 171.07998,245.95465 C 171.07996,247.21306 170.59726,248.36338 169.63187,249.40562 C 168.66645,250.44788 167.34322,251.10829 165.66218,251.38686 L 167.56418,257.10724 C 168.02525,258.50972 168.48634,259.42229 168.94744,259.84496 C 169.40852,260.26762 170.15298,260.50777 171.18084,260.56541 L 171.02234,261.09854 L 166.35382,261.09854 z M 161.2242,250.56554 C 161.83898,250.65201 162.38652,250.69523 162.86683,250.69522 C 164.51906,250.69523 165.82547,250.23655 166.78609,249.31916 C 167.74668,248.4018 168.22698,247.26109 168.22699,245.89702 C 168.22698,244.83077 167.92679,244.01426 167.32643,243.44748 C 166.72604,242.88075 165.82547,242.59737 164.62473,242.59735 C 164.31733,242.59737 163.9523,242.63579 163.52965,242.71262 L 161.2242,250.56554 z M 184.26424,256.0842 C 183.9088,257.82289 183.21237,259.16053 182.17493,260.09711 C 181.13747,261.0337 179.98955,261.50199 178.73117,261.50199 C 177.23263,261.50199 175.92621,260.8728 174.81191,259.61441 C 173.69762,258.35603 173.14047,256.65576 173.14047,254.51362 C 173.14047,252.43873 173.75765,250.75287 174.99203,249.45605 C 176.2264,248.15925 177.70812,247.51084 179.43721,247.51083 C 180.73402,247.51084 181.80028,247.85426 182.63602,248.54107 C 183.47173,249.22792 183.88959,249.94116 183.8896,250.68082 C 183.88959,251.04585 183.77192,251.34124 183.53658,251.56697 C 183.30122,251.79272 182.97222,251.90559 182.54956,251.90558 C 181.9828,251.90559 181.55533,251.72308 181.26716,251.35804 C 181.10385,251.15632 180.99578,250.77208 180.94296,250.20532 C 180.89011,249.63857 180.69559,249.2063 180.35939,248.90851 C 180.02317,248.62034 179.55728,248.47625 178.96171,248.47623 C 178.00111,248.47625 177.22782,248.83167 176.64186,249.5425 C 175.86377,250.4839 175.47473,251.72788 175.47473,253.27444 C 175.47473,254.84983 175.86137,256.2403 176.63466,257.44585 C 177.40794,258.65141 178.45259,259.25419 179.76862,259.25419 C 180.71,259.25419 181.55533,258.93239 182.30461,258.28878 C 182.83293,257.84691 183.34685,257.04481 183.84637,255.88247 L 184.26424,256.0842 z M 192.59265,247.51083 C 194.5907,247.51084 196.1949,248.26972 197.40527,249.78746 C 198.4331,251.08428 198.94702,252.57321 198.94703,254.25425 C 198.94702,255.4358 198.66364,256.63175 198.0969,257.8421 C 197.53013,259.05246 196.74965,259.96503 195.75544,260.57982 C 194.7612,261.1946 193.65411,261.50199 192.43415,261.50199 C 190.4457,261.50199 188.86552,260.7095 187.69359,259.1245 C 186.70416,257.78927 186.20945,256.29073 186.20946,254.62889 C 186.20945,253.41854 186.50964,252.21539 187.11002,251.01943 C 187.71039,249.82349 188.50049,248.93974 189.4803,248.36817 C 190.46011,247.79662 191.49756,247.51084 192.59265,247.51083 L 192.59265,247.51083 z M 192.14597,248.44742 C 191.63685,248.44743 191.12533,248.59872 190.61141,248.9013 C 190.09749,249.2039 189.68203,249.73463 189.36503,250.4935 C 189.04803,251.25238 188.88953,252.22739 188.88953,253.41853 C 188.88953,255.33974 189.27137,256.99678 190.03505,258.38964 C 190.79872,259.78252 191.80495,260.47895 193.05374,260.47895 C 193.98552,260.47895 194.754,260.09471 195.35919,259.32623 C 195.96436,258.55775 196.26694,257.23693 196.26696,255.36375 C 196.26694,253.01989 195.76263,251.17554 194.75401,249.83068 C 194.07197,248.90852 193.20263,248.44743 192.14597,248.44742 L 192.14597,248.44742 z M 209.42239,247.51083 L 209.42239,252.00645 L 208.9469,252.00645 C 208.58186,250.59437 208.11357,249.63377 207.54202,249.12464 C 206.97045,248.61553 206.2428,248.36097 205.35905,248.36096 C 204.68662,248.36097 204.14388,248.53869 203.73083,248.8941 C 203.31777,249.24953 203.11124,249.64338 203.11124,250.07564 C 203.11124,250.61358 203.26493,251.07467 203.57233,251.4589 C 203.87011,251.85276 204.47529,252.27062 205.38787,252.71249 L 207.49159,253.73553 C 209.4416,254.68653 210.41661,255.94012 210.41662,257.49628 C 210.41661,258.69704 209.96272,259.66484 209.05496,260.3997 C 208.14719,261.13456 207.13135,261.50199 206.00746,261.50199 C 205.20054,261.50199 204.27837,261.3579 203.24092,261.06972 C 202.92392,260.97366 202.66456,260.92563 202.46284,260.92563 C 202.24189,260.92563 202.06899,261.05051 201.94411,261.30027 L 201.46861,261.30027 L 201.46861,256.58852 L 201.94411,256.58852 C 202.21308,257.93336 202.727,258.9468 203.48588,259.62882 C 204.24475,260.31085 205.09488,260.65186 206.03627,260.65186 C 206.69908,260.65186 207.23942,260.45734 207.65729,260.0683 C 208.07514,259.67925 208.28407,259.21096 208.28408,258.66342 C 208.28407,258.0006 208.05113,257.44346 207.58524,256.99197 C 207.11935,256.54049 206.18996,255.96893 204.7971,255.27729 C 203.40422,254.58567 202.49165,253.96128 202.05938,253.40412 C 201.62711,252.85659 201.41097,252.16495 201.41098,251.32922 C 201.41097,250.24375 201.78321,249.33598 202.52768,248.60592 C 203.27214,247.87587 204.23514,247.51084 205.41669,247.51083 C 205.9354,247.51084 206.5646,247.62131 207.30427,247.84224 C 207.79417,247.98634 208.12077,248.05839 208.28408,248.05837 C 208.43777,248.05839 208.55784,248.02476 208.64431,247.95751 C 208.73075,247.89028 208.83162,247.74139 208.9469,247.51083 L 209.42239,247.51083 z M 222.40493,240.60891 C 225.07539,240.60893 226.41062,242.43887 226.41064,246.09875 C 226.41062,248.30814 225.87028,250.75527 224.78962,253.44014 C 223.70893,256.12503 222.47456,258.13028 221.0865,259.45591 C 219.69842,260.78154 218.26953,261.44436 216.79982,261.44436 C 215.59906,261.44436 214.62165,260.93284 213.86758,259.9098 C 213.11351,258.88676 212.73647,257.61156 212.73647,256.0842 C 212.73647,255.10439 212.95261,253.74995 213.38488,252.02085 C 213.81715,250.29178 214.46555,248.54589 215.3301,246.78317 C 216.19463,245.02049 217.27771,243.55077 218.57933,242.37401 C 219.88094,241.19729 221.15614,240.60893 222.40493,240.60891 L 222.40493,240.60891 z M 223.29829,250.40704 C 223.94188,248.38019 224.26368,246.41096 224.26369,244.49934 C 224.26368,242.30919 223.64409,241.21411 222.40493,241.21409 C 221.31944,241.21411 220.25317,242.03302 219.20612,243.67082 C 218.15906,245.30867 217.19846,247.55407 216.32432,250.40704 L 223.29829,250.40704 z M 216.05055,251.22836 C 215.16679,253.98529 214.72491,256.09861 214.72492,257.56833 C 214.72491,258.52893 214.92184,259.31423 215.31569,259.92421 C 215.70953,260.53419 216.2955,260.83918 217.07359,260.83918 C 217.71719,260.83918 218.32236,260.58222 218.88913,260.0683 C 219.45587,259.55438 220.11869,258.50972 220.87757,256.93433 C 221.63644,255.35895 222.35208,253.45696 223.02452,251.22836 L 216.05055,251.22836 z "
     id="text6083" />
  <path
     style="font-size:29.50968552px;font-style:normal;font-weight:normal;fill:#000000;fill-opacity:1;stroke:none;stroke-width:1px;stroke-linecap:butt;stroke-linejoin:miter;stroke-opacity:1;font-family:Bitstream Vera Sans"
     d="M 175.88043,142.69682 L 172.75367,133.20127 C 172.0236,133.21089 171.27434,133.13885 170.50586,132.98514 L 168.82001,138.89284 C 168.59906,139.66132 168.48859,140.30973 168.4886,140.83806 C 168.48859,141.24151 168.62788,141.55851 168.90646,141.78905 C 169.11779,141.96196 169.69415,142.08684 170.63554,142.16369 L 170.50586,142.69682 L 162.94112,142.69682 L 163.09962,142.16369 C 163.81047,142.13487 164.29077,142.06283 164.54052,141.94755 C 164.93437,141.78425 165.22255,141.56331 165.40507,141.28474 C 165.71246,140.83326 166.03426,140.03596 166.37047,138.89284 L 169.78541,127.09185 C 170.01595,126.30417 170.13122,125.69419 170.13123,125.2619 C 170.13122,124.82004 169.95111,124.44541 169.59089,124.138 C 169.23066,123.83062 168.71433,123.68173 168.04192,123.69132 L 168.21483,123.15818 L 174.58362,123.15818 C 176.71614,123.1582 178.2531,123.56166 179.1945,124.36854 C 180.13588,125.17546 180.60657,126.23693 180.60659,127.55294 C 180.60657,128.81134 180.12387,129.96166 179.15848,131.0039 C 178.19306,132.04616 176.86983,132.70657 175.1888,132.98514 L 177.09079,138.70552 C 177.55186,140.108 178.01295,141.02057 178.47405,141.44324 C 178.93513,141.8659 179.67959,142.10605 180.70745,142.16369 L 180.54895,142.69682 L 175.88043,142.69682 z M 170.75082,132.16383 C 171.36559,132.25029 171.91313,132.29352 172.39344,132.29351 C 174.04567,132.29352 175.35209,131.83483 176.3127,130.91744 C 177.27329,130.00008 177.75359,128.85937 177.7536,127.4953 C 177.75359,126.42905 177.4534,125.61254 176.85304,125.04577 C 176.25265,124.47903 175.35209,124.19565 174.15135,124.19563 C 173.84394,124.19565 173.47891,124.23408 173.05626,124.31091 L 170.75082,132.16383 z "
     id="text6091" />
  <path
     style="font-size:29.50968552px;font-style:normal;font-weight:normal;fill:#000000;fill-opacity:1;stroke:none;stroke-width:1px;stroke-linecap:butt;stroke-linejoin:miter;stroke-opacity:1;font-family:Bitstream Vera Sans"
     d="M 268.68277,65.69249 L 267.80382,70.116061 L 267.27069,70.116061 C 267.22265,68.828864 266.94888,67.892279 266.44938,67.306301 C 265.94985,66.720346 265.33027,66.427362 264.59061,66.42735 C 263.99503,66.427362 263.52194,66.590665 263.17132,66.917257 C 262.8207,67.243873 262.64539,67.637719 262.64539,68.098797 C 262.64539,68.415806 262.71503,68.718395 262.85432,69.006566 C 262.99361,69.294756 263.2986,69.698208 263.7693,70.216924 C 265.01807,71.580986 265.82498,72.608828 266.19001,73.300456 C 266.55503,73.992094 266.73755,74.645302 266.73756,75.260083 C 266.73755,76.259111 266.32209,77.145266 265.49117,77.918548 C 264.66025,78.691833 263.61079,79.078475 262.3428,79.078475 C 261.65117,79.078475 260.85387,78.915173 259.9509,78.588568 C 259.6339,78.473296 259.38895,78.41566 259.21604,78.41566 C 258.78377,78.41566 258.45717,78.636598 258.23623,79.078475 L 257.7031,79.078475 L 258.58205,74.409951 L 259.11518,74.409951 C 259.17282,75.870068 259.4754,76.902714 260.02295,77.507891 C 260.57049,78.113071 261.31976,78.41566 262.27076,78.41566 C 263.00081,78.41566 263.57957,78.211532 264.00705,77.803276 C 264.43451,77.395022 264.64824,76.893108 264.64825,76.297533 C 264.64824,75.913295 264.57139,75.557873 264.4177,75.231265 C 264.14873,74.654908 263.58437,73.857609 262.72464,72.839367 C 261.8649,71.821136 261.31255,71.057458 261.0676,70.548332 C 260.82265,70.039221 260.70017,69.530103 260.70017,69.020975 C 260.70017,68.089202 261.03878,67.301509 261.71601,66.657894 C 262.39323,66.014304 263.26497,65.692503 264.33125,65.69249 C 264.63863,65.692503 264.91721,65.716518 265.16697,65.764535 C 265.30145,65.793366 265.61605,65.901433 266.11076,66.088738 C 266.60546,66.276068 266.93447,66.369726 267.09778,66.369714 C 267.51083,66.369726 267.85665,66.143985 268.13523,65.69249 L 268.68277,65.69249 z "
     id="text6097" />
  <path
     style="font-size:29.50968552px;font-style:normal;font-weight:normal;fill:#000000;fill-opacity:1;stroke:none;stroke-width:1px;stroke-linecap:butt;stroke-linejoin:miter;stroke-opacity:1;font-family:Bitstream Vera Sans"
     d="M 156.08676,22.128498 L 160.25096,21.235138 C 160.54875,21.945996 160.7889,22.671249 160.97142,23.410901 C 161.23077,24.496391 161.4421,25.783596 161.60541,27.27252 C 161.68225,28.021796 161.78792,29.606787 161.92241,32.027499 C 163.12316,30.701872 163.8388,29.880558 164.06936,29.563555 C 165.33734,27.844084 166.0674,26.835454 166.25953,26.53766 C 166.57652,26.028549 166.79745,25.58187 166.92234,25.19762 C 167.028,24.909449 167.08083,24.635678 167.08084,24.376306 C 167.08083,24.126559 166.85749,23.838379 166.41082,23.511764 C 165.96413,23.185171 165.74079,22.820142 165.7408,22.416678 C 165.74079,22.109298 165.86327,21.835527 166.10823,21.595364 C 166.35318,21.355226 166.64376,21.235151 166.97998,21.235138 C 167.38342,21.235151 167.73884,21.400855 168.04625,21.732249 C 168.35363,22.063669 168.50732,22.474326 168.50734,22.964221 C 168.50732,23.454139 168.43048,23.924833 168.27679,24.376306 C 168.02702,25.106372 167.56113,25.997329 166.87912,27.04918 C 166.19708,28.101045 165.09719,29.510727 163.57945,31.278229 C 163.38732,31.49917 162.32105,32.613467 160.38065,34.621123 L 159.84751,34.621123 C 159.61696,28.54052 159.13666,24.746147 158.40661,23.237993 C 158.16646,22.748097 157.76781,22.503144 157.21066,22.503132 C 156.97051,22.503144 156.62949,22.546371 156.18762,22.632814 L 156.08676,22.128498 z "
     id="text6101" />
  <g
     id="g7485">
    <path
       style="fill:#000000;fill-opacity:1;fill-rule:evenodd;stroke:none;stroke-width:1px;stroke-linecap:butt;stroke-linejoin:miter;stroke-opacity:1"
       d="M 157.78125,14.5 L 157.78125,15.5 L 167.75,15.5 L 167.75,14.5 L 157.78125,14.5 z "
       id="path6105" />
    <path
       style="fill-rule:evenodd;stroke:#000000;stroke-width:0.4pt;marker-start:none"
       d="M 170.06094,15.011923 L 166.60094,17.011923 L 166.60094,13.011923 L 170.06094,15.011923 z "
       id="path7491" />
  </g>
  <path
     style="fill:none;fill-rule:evenodd;stroke:#000000;stroke-width:1px;stroke-linecap:butt;stroke-linejoin:miter;stroke-opacity:1"
     d="M 173.8925,187.3706 C 182.04381,190.12511 188.00667,197.56128 188.00667,206.61719"
     id="path6305"
     sodipodi:nodetypes="cc" />
  <path
     style="font-size:29.50968552px;font-style:normal;font-weight:normal;fill:#000000;fill-opacity:1;stroke:none;stroke-width:1px;stroke-linecap:butt;stroke-linejoin:miter;stroke-opacity:1;font-family:Bitstream Vera Sans"
     d="M 196.40259,173.66819 C 199.07304,173.66821 200.40828,175.49815 200.4083,179.15803 C 200.40828,181.36742 199.86794,183.81455 198.78728,186.49942 C 197.70659,189.18431 196.47222,191.18957 195.08416,192.51519 C 193.69608,193.84082 192.26719,194.50364 190.79747,194.50364 C 189.59672,194.50364 188.61931,193.99212 187.86524,192.96908 C 187.11116,191.94604 186.73413,190.67084 186.73413,189.14348 C 186.73413,188.16367 186.95026,186.80923 187.38254,185.08014 C 187.8148,183.35106 188.46321,181.60517 189.32775,179.84245 C 190.19229,178.07977 191.27537,176.61005 192.57699,175.43329 C 193.8786,174.25657 195.15379,173.66821 196.40259,173.66819 L 196.40259,173.66819 z M 197.29595,183.46632 C 197.93954,181.43947 198.26134,179.47024 198.26135,177.55862 C 198.26134,175.36847 197.64175,174.27339 196.40259,174.27337 C 195.3171,174.27339 194.25083,175.0923 193.20378,176.7301 C 192.15672,178.36795 191.19612,180.61335 190.32198,183.46632 L 197.29595,183.46632 z M 190.04821,184.28764 C 189.16445,187.04457 188.72257,189.15789 188.72257,190.62761 C 188.72257,191.58821 188.91949,192.37351 189.31334,192.98349 C 189.70719,193.59347 190.29315,193.89846 191.07125,193.89846 C 191.71484,193.89846 192.32002,193.6415 192.88678,193.12758 C 193.45353,192.61366 194.11634,191.569 194.87523,189.99361 C 195.63409,188.41823 196.34974,186.51624 197.02217,184.28764 L 190.04821,184.28764 z "
     id="text6307" />
</svg>
