<?xml version="1.0" encoding="utf-8"?>
<!-- Generator: Adobe Illustrator 12.0.0, SVG Export Plug-In . SVG Version: 6.00 Build 51448)  -->
<!DOCTYPE svg PUBLIC "-//W3C//DTD SVG 1.1//EN" "http://www.w3.org/Graphics/SVG/1.1/DTD/svg11.dtd" [
	<!ENTITY ns_svg "http://www.w3.org/2000/svg">
	<!ENTITY ns_xlink "http://www.w3.org/1999/xlink">
]>
<svg  version="1.1" id="Layer_1" xmlns="&ns_svg;" xmlns:xlink="&ns_xlink;" width="952.643" height="521"
	 viewBox="-211.122 -118.716 952.643 521" overflow="visible" enable-background="new -211.122 -118.716 952.643 521"
	 xml:space="preserve">
<rect x="-211.122" y="-118.716" fill="#FFFFFF" width="952.643" height="521"/>
<path fill="none" stroke="#000000" stroke-width="2" d="M-116.093-101.417c27.295,0,54.454,11.676,50.03,43.533
	c-2.264,16.287-10.859,26.545-1.953,42.876c10.764,19.735,22.233,42.822,17.81,66.461c-5.088,27.196-42.036,35.38-64.085,35.38
	h-3.601c-22.048,0-58.999-8.184-64.087-35.382c-4.422-23.64,7.047-46.726,17.81-66.461c8.906-16.33,0.312-26.589-1.951-42.877
	C-170.546-89.741-143.388-101.417-116.093-101.417z"/>
<line fill="none" stroke="#000000" stroke-width="2" x1="-166.374" y1="-68.758" x2="-66" y2="-68.758"/>
<line fill="none" stroke="#000000" stroke-width="2" x1="-180.677" y1="23.361" x2="-51.506" y2="23.361"/>
<path fill="none" stroke="#000000" stroke-width="2" d="M36.423-101.417c27.295,0,54.455,11.676,50.03,43.533
	c-2.262,16.287-10.857,26.545-1.952,42.876c10.765,19.735,22.232,42.822,17.81,66.461C97.22,78.652,60.272,86.836,38.223,86.836
	h-3.602c-22.05,0-58.999-8.184-64.086-35.382c-4.424-23.639,7.047-46.726,17.81-66.461c8.905-16.33,0.311-26.589-1.953-42.876
	C-18.03-89.741,9.127-101.417,36.423-101.417z"/>
<line fill="none" stroke="#000000" stroke-width="2" x1="36.423" y1="-101.417" x2="36.423" y2="86.836"/>
<path fill="none" stroke="#000000" stroke-width="2" d="M-8.635-22.444c10.786,4.717,26.968,7.714,45.056,7.714
	c18.086,0,34.266-2.997,45.05-7.712"/>
<path fill="none" stroke="#000000" stroke-width="2" d="M646.488-101.417c27.293,0,54.454,11.676,50.027,43.533
	c-2.26,16.287-10.854,26.545-1.95,42.876C705.33,4.727,716.8,27.814,712.376,51.453c-5.09,27.198-42.037,35.382-64.088,35.382
	h-3.602c-22.053,0-59-8.184-64.088-35.382c-4.423-23.639,7.044-46.726,17.811-66.461c8.904-16.33,0.31-26.589-1.953-42.876
	C592.034-89.741,619.194-101.417,646.488-101.417z"/>
<line fill="none" stroke="#000000" stroke-width="2" x1="646.488" y1="-101.417" x2="646.488" y2="86.836"/>
<path fill="none" stroke="#000000" stroke-width="2" d="M604.796-87.494c10.649,6.775,25.396,10.967,41.692,10.967
	c16.293,0,31.04-4.192,41.69-10.967"/>
<path fill="none" stroke="#000000" stroke-width="2" d="M602.267-27.205c12.42,4.452,27.703,7.076,44.224,7.076
	c16.522,0,31.801-2.625,44.225-7.078"/>
<path fill="none" stroke="#000000" stroke-width="2" d="M579.692,37.977c19.263,11.303,42.188,17.862,66.797,17.862
	c24.607,0,47.531-6.559,66.794-17.863"/>
<path fill="none" stroke="#000000" stroke-width="2" d="M341.455-101.417c27.296,0,54.453,11.676,50.032,43.533
	c-2.263,16.287-10.858,26.545-1.953,42.876c10.765,19.735,22.233,42.822,17.811,66.461c-5.09,27.198-42.04,35.382-64.09,35.382
	h-3.601c-22.052,0-58.998-8.184-64.09-35.382c-4.42-23.639,7.047-46.726,17.812-66.461c8.904-16.33,0.309-26.589-1.955-42.876
	C287.002-89.741,314.163-101.417,341.455-101.417z"/>
<line fill="none" stroke="#000000" stroke-width="2" x1="341.455" y1="-101.417" x2="341.455" y2="86.836"/>
<path fill="none" stroke="#000000" stroke-width="2" d="M408.218,44.285c-17.885-12.699-41.231-20.384-66.769-20.384
	c-25.529,0-48.866,7.682-66.749,20.373"/>
<path fill="none" stroke="#000000" stroke-width="2" d="M291.088-60.977c14.104,6.724,31.521,10.695,50.368,10.695
	c18.85,0,36.266-3.971,50.368-10.695"/>
<path fill="none" stroke="#000000" stroke-width="2" d="M188.939-101.417c27.295,0,54.455,11.676,50.029,43.533
	c-2.262,16.287-10.857,26.545-1.951,42.876c10.763,19.735,22.231,42.822,17.81,66.461c-5.091,27.198-42.039,35.382-64.088,35.382
	h-3.602c-22.05,0-58.999-8.184-64.086-35.382c-4.424-23.639,7.046-46.726,17.81-66.461c8.905-16.33,0.31-26.589-1.953-42.876
	C134.486-89.741,161.645-101.417,188.939-101.417z"/>
<path fill="none" stroke="#000000" stroke-width="2" d="M234.321-21.338c-10.897-4.095-27.182-6.696-45.38-6.696
	c-18.194,0-34.476,2.602-45.373,6.695"/>
<path fill="none" stroke="#000000" stroke-width="2" d="M150.926,80.244c11.188-36.154,17.595-76.002,17.595-117.862
	c0-20.492-1.75-40.503-5.001-59.831"/>
<path fill="none" stroke="#000000" stroke-width="2" d="M226.954,80.244C215.766,44.09,209.359,4.242,209.359-37.618
	c0-20.492,1.75-40.503,5.001-59.831"/>
<path fill="none" stroke="#000000" stroke-width="2" d="M493.973-101.417c27.295,0,54.454,11.676,50.032,43.533
	c-2.264,16.287-10.859,26.545-1.953,42.876c10.765,19.735,22.231,42.822,17.812,66.461c-5.091,27.198-42.041,35.382-64.091,35.382
	h-3.602c-22.051,0-58.999-8.184-64.09-35.382c-4.423-23.639,7.046-46.726,17.812-66.461c8.905-16.33,0.311-26.589-1.952-42.876
	C439.52-89.741,466.676-101.417,493.973-101.417z"/>
<path fill="none" stroke="#000000" stroke-width="2" d="M470.306-98.038c-13.792,28.669-22.404,65.479-22.404,105.622
	c0,26.321,3.561,51.21,9.797,73.312"/>
<path fill="none" stroke="#000000" stroke-width="2" d="M511.103-99.742C498.594-68.34,490.886-30.393,490.886,7.584
	c0,28.59,4.201,55.485,11.469,78.959"/>
<path fill="none" stroke="#000000" stroke-width="2" d="M538.121-28.327c-1.319,11.253-2.691,24.477-2.691,35.913
	c0,21.326,2.338,44.6,6.541,67.759"/>
<path fill="none" stroke="#000000" stroke-width="2" d="M-116.093,159.787c27.295,0,54.454,11.679,50.03,43.532
	c-2.264,16.289-10.859,26.549-1.953,42.877c10.764,19.736,22.233,42.822,17.81,66.465c-5.089,27.197-42.037,35.381-64.087,35.381
	h-3.601c-22.048,0-58.999-8.188-64.087-35.381c-4.422-23.641,7.046-46.729,17.81-66.465c8.905-16.328,0.311-26.586-1.952-42.877
	C-170.546,171.466-143.388,159.787-116.093,159.787z"/>
<line fill="none" stroke="#000000" stroke-width="2" x1="-160.307" y1="233.891" x2="-72.067" y2="233.891"/>
<line fill="none" stroke="#000000" stroke-width="2" x1="-181.702" y1="313.995" x2="-50.484" y2="313.995"/>
<line fill="none" stroke="#000000" stroke-width="2" x1="-116.093" y1="159.787" x2="-116.093" y2="348.04"/>
<path fill="none" stroke="#000000" stroke-width="2" d="M-148.676,166.919c7.67,3.152,19.416,5.174,32.583,5.174
	c13.166,0,24.915-2.021,32.584-5.174"/>
<path fill="none" stroke="#000000" stroke-width="2" d="M36.423,159.787c27.295,0,54.455,11.679,50.03,43.532
	c-2.262,16.289-10.857,26.549-1.952,42.877c10.765,19.736,22.232,42.822,17.81,66.465c-5.091,27.197-42.039,35.381-64.087,35.381
	h-3.602c-22.05,0-58.999-8.188-64.086-35.381c-4.424-23.641,7.047-46.729,17.81-66.465c8.905-16.328,0.311-26.586-1.953-42.877
	C-18.03,171.466,9.127,159.787,36.423,159.787z"/>
<path fill="none" stroke="#000000" stroke-width="2" d="M-13.824,192.117c14.946,6.337,32.059,9.938,50.245,9.938
	c18.187,0,35.299-3.602,50.248-9.939"/>
<path fill="none" stroke="#000000" stroke-width="2" d="M103.12,306.438c-20.915-10.367-43.35-15.996-66.696-15.996
	c-23.341,0-45.778,5.629-66.692,15.996"/>
<path fill="none" stroke="#000000" stroke-width="2" d="M82.653,337.574c-6.164-11.677-24.53-20.146-46.228-20.146
	c-21.704,0-40.075,8.477-46.231,20.154"/>
<path fill="none" stroke="#000000" stroke-width="2" d="M-27.844,283.354c24.357-10.664,41.38-35.035,41.38-63.391
	c0-6.884-0.781-27.355-2.283-56.289"/>
<path fill="none" stroke="#000000" stroke-width="2" d="M100.692,283.354c-24.357-10.664-41.379-35.035-41.379-63.391
	c0-6.884,0.78-27.355,2.283-56.289"/>
<path fill="none" stroke="#000000" stroke-width="2" d="M188.939,159.787c27.295,0,54.456,11.679,50.029,43.532
	c-2.26,16.289-10.855,26.549-1.951,42.877c10.763,19.736,22.231,42.822,17.81,66.465c-5.091,27.197-42.039,35.381-64.088,35.381
	h-3.602c-22.05,0-58.999-8.188-64.086-35.381c-4.424-23.641,7.046-46.729,17.81-66.465c8.905-16.328,0.31-26.586-1.953-42.877
	C134.486,171.466,161.645,159.787,188.939,159.787z"/>
<path fill="none" stroke="#000000" stroke-width="2" d="M152.03,169.629c11.491,5.386,23.926,8.328,36.909,8.328
	c12.987,0,25.428-2.942,36.923-8.333"/>
<path fill="none" stroke="#000000" stroke-width="2" d="M140.74,211.143c15.004,12.594,31.244,19.475,48.197,19.475
	c16.959,0,33.206-6.889,48.214-19.493"/>
<path fill="none" stroke="#000000" stroke-width="2" d="M136.444,254.491c16.341,15.541,34.027,24.029,52.491,24.029
	c18.47,0,36.163-8.498,52.512-24.056"/>
<path fill="none" stroke="#000000" stroke-width="2" d="M215.142,345.239c-3.646-18.274-14.512-31.529-27.345-31.529
	c-12.682,0-23.441,12.943-27.215,30.879"/>
<path fill="none" stroke="#000000" stroke-width="2" d="M151.957,341.848c2.173-4.945,3.427-10.761,3.427-16.98
	c0-20.598-6.008-32.614-23.461-32.614c-3.369,0-6.57,0.983-9.463,2.763"/>
<path fill="none" stroke="#000000" stroke-width="2" d="M225.924,341.848c-2.174-4.945-3.426-10.761-3.426-16.98
	c0-20.598,6.007-32.614,23.46-32.614c3.369,0,6.57,0.983,9.464,2.763"/>
<path fill="none" stroke="#000000" stroke-width="2" d="M646.488,159.787c27.293,0,54.454,11.677,50.027,43.532
	c-2.26,16.285-10.854,26.545-1.95,42.877c10.765,19.736,22.234,42.822,17.811,66.465c-5.09,27.197-42.037,35.381-64.088,35.381
	h-3.602c-22.053,0-59-8.188-64.088-35.381c-4.423-23.641,7.044-46.729,17.811-66.465c8.904-16.328,0.31-26.586-1.953-42.877
	C592.034,171.464,619.194,159.787,646.488,159.787z"/>
<path fill="none" stroke="#000000" stroke-width="2" d="M608.476,341.451c11.187-36.155,23.925-76.003,23.925-117.86
	c0-20.492-4.12-44.458-11.332-59.832"/>
<path fill="none" stroke="#000000" stroke-width="2" d="M684.502,341.451c-11.185-36.155-23.921-76.003-23.921-117.86
	c0-20.492,4.118-44.458,11.329-59.832"/>
<path fill="none" stroke="#000000" stroke-width="2" d="M662.39,346.669c-2.271-18.639-1.239-63.053-17.046-63.053
	c-15.806,0-14.775,44.426-17.051,63.068"/>
<path fill="none" stroke="#000000" stroke-width="2" d="M591.605,331.499c9.076-4.541,15.332-14.132,15.332-25.23
	c0-14.115-10.125-25.795-23.301-27.75"/>
<path fill="none" stroke="#000000" stroke-width="2" d="M701.372,331.499c-9.076-4.541-15.328-14.132-15.328-25.23
	c0-14.115,10.123-25.795,23.298-27.75"/>
<path fill="none" stroke="#000000" stroke-width="2" d="M602.316,230.382c10.425,4.234,26.34,6.939,44.173,6.939
	c17.823,0,33.731-2.705,44.162-6.932"/>
<path fill="none" stroke="#000000" stroke-width="2" d="M341.455,159.787c27.295,0,54.455,11.679,50.03,43.532
	c-2.261,16.289-10.855,26.549-1.951,42.877c10.765,19.736,22.233,42.822,17.809,66.465c-5.089,27.197-42.036,35.381-64.088,35.381
	h-3.601c-22.052,0-58.998-8.188-64.088-35.381c-4.422-23.641,7.045-46.729,17.811-66.465c8.907-16.328,0.312-26.586-1.95-42.877
	C287.002,171.466,314.163,159.787,341.455,159.787z"/>
<path fill="none" stroke="#000000" stroke-width="2" d="M292.481,209.028c9.673,6.306,27.98,10.555,48.976,10.555
	c20.99,0,39.296-4.249,48.969-10.548"/>
<path fill="none" stroke="#000000" stroke-width="2" d="M286.423,259.518c11.761,8.422,32.018,13.982,55.033,13.982
	s43.269-5.561,55.03-13.979"/>
<path fill="none" stroke="#000000" stroke-width="2" d="M274.768,306.692c14.25,12.217,38.8,20.281,66.688,20.281
	c27.888,0,52.43-8.061,66.686-20.271"/>
<path fill="none" stroke="#000000" stroke-width="2" d="M305.607,168.823c10.562,2.48,23,3.912,36.312,3.912
	c12.934,0,25.041-1.352,35.403-3.705"/>
<path fill="none" stroke="#000000" stroke-width="2" d="M493.973,159.787c27.292,0,54.456,11.679,50.03,43.532
	c-2.262,16.289-10.855,26.549-1.951,42.877c10.765,19.736,22.231,42.822,17.812,66.465c-5.094,27.197-42.038,35.381-64.09,35.381
	h-3.602c-22.052,0-58.999-8.188-64.089-35.381c-4.424-23.641,7.045-46.729,17.811-66.465c8.905-16.328,0.311-26.586-1.95-42.877
	C439.518,171.466,466.677,159.787,493.973,159.787z"/>
<path fill="none" stroke="#000000" stroke-width="2" d="M444.998,209.028c9.671,6.306,27.979,10.555,48.974,10.555
	c20.989,0,39.295-4.249,48.967-10.548"/>
<path fill="none" stroke="#000000" stroke-width="2" d="M438.939,259.518c11.761,8.422,32.019,13.982,55.034,13.982
	c23.013,0,43.267-5.561,55.029-13.979"/>
<path fill="none" stroke="#000000" stroke-width="2" d="M427.284,306.692c14.251,12.217,38.799,20.281,66.688,20.281
	c27.888,0,52.431-8.061,66.686-20.271"/>
<path fill="none" stroke="#000000" stroke-width="2" d="M458.332,168.823c10.497,2.48,22.859,3.912,36.097,3.912
	c12.853,0,24.889-1.352,35.188-3.705"/>
<line fill="none" stroke="#000000" stroke-width="2" x1="493.973" y1="159.787" x2="493.973" y2="348.04"/>
<text transform="matrix(1 0 0 1 -142.996 115.2205)" font-family="'Helvetica'" font-size="20.5991">60 Hz</text>
<text transform="matrix(1 0 0 1 9.5206 115.2205)" font-family="'Helvetica'" font-size="20.5991">72 Hz</text>
<text transform="matrix(1 0 0 1 162.0338 115.2205)" font-family="'Helvetica'" font-size="20.5991">95 Hz</text>
<text transform="matrix(1 0 0 1 308.8243 115.2205)" font-family="'Helvetica'" font-size="20.5991">109 Hz</text>
<text transform="matrix(1 0 0 1 463.0508 115.2205)" font-family="'Helvetica'" font-size="20.5991">125 hz</text>
<text transform="matrix(1 0 0 1 613.8565 115.2205)" font-family="'Helvetica'" font-size="20.5991">175 Hz</text>
<text transform="matrix(1 0 0 1 -148.724 375.7928)" font-family="'Helvetica'" font-size="20.5991">240 Hz</text>
<text transform="matrix(1 0 0 1 3.7916 375.7928)" font-family="'Helvetica'" font-size="20.5991">378 Hz</text>
<text transform="matrix(1 0 0 1 156.3067 375.7928)" font-family="'Helvetica'" font-size="20.5991">338 Hz</text>
<text transform="matrix(1 0 0 1 308.8243 375.7928)" font-family="'Helvetica'" font-size="20.5991">352 Hz</text>
<text transform="matrix(1 0 0 1 463.0508 375.7928)" font-family="'Helvetica'" font-size="20.5991">426 hz</text>
<text transform="matrix(1 0 0 1 613.8565 375.7928)" font-family="'Helvetica'" font-size="20.5991">478 Hz</text>
</svg>
