<?xml version="1.0" encoding="UTF-8" standalone="no"?>
<!-- Created with Inkscape (http://www.inkscape.org/) -->
<svg
   xmlns:ns0="http://www.iki.fi/pav/software/textext/"
   xmlns:dc="http://purl.org/dc/elements/1.1/"
   xmlns:cc="http://creativecommons.org/ns#"
   xmlns:rdf="http://www.w3.org/1999/02/22-rdf-syntax-ns#"
   xmlns:svg="http://www.w3.org/2000/svg"
   xmlns="http://www.w3.org/2000/svg"
   xmlns:sodipodi="http://sodipodi.sourceforge.net/DTD/sodipodi-0.dtd"
   xmlns:inkscape="http://www.inkscape.org/namespaces/inkscape"
   width="579.19849"
   height="360.98087"
   id="svg2"
   sodipodi:version="0.32"
   inkscape:version="0.46"
   sodipodi:docname="Ohms law vectors.svg"
   version="1.0"
   inkscape:output_extension="org.inkscape.output.svg.inkscape">
  <sodipodi:namedview
     id="base"
     pagecolor="#ffffff"
     bordercolor="#666666"
     borderopacity="1.0"
     gridtolerance="10000"
     guidetolerance="10"
     objecttolerance="10"
     inkscape:pageopacity="0.0"
     inkscape:pageshadow="2"
     inkscape:zoom="0.7"
     inkscape:cx="370.26919"
     inkscape:cy="2.8427124"
     inkscape:document-units="px"
     inkscape:current-layer="layer1"
     showgrid="false"
     showguides="true"
     inkscape:guide-bbox="true"
     inkscape:window-width="1280"
     inkscape:window-height="968"
     inkscape:window-x="-4"
     inkscape:window-y="-4" />
  <defs
     id="defs4">
    <marker
       inkscape:stockid="Arrow1Mstart"
       orient="auto"
       refY="0"
       refX="0"
       id="Arrow1Mstart"
       style="overflow:visible">
      <path
         id="path3198"
         d="M 0,0 L 5,-5 L -12.5,0 L 5,5 L 0,0 z"
         style="fill-rule:evenodd;stroke:#000000;stroke-width:1pt;marker-start:none"
         transform="matrix(0.4,0,0,0.4,4,0)" />
    </marker>
    <marker
       inkscape:stockid="Arrow1Send"
       orient="auto"
       refY="0"
       refX="0"
       id="Arrow1Send"
       style="overflow:visible">
      <path
         id="path3207"
         d="M 0,0 L 5,-5 L -12.5,0 L 5,5 L 0,0 z"
         style="fill-rule:evenodd;stroke:#000000;stroke-width:1pt;marker-start:none"
         transform="matrix(-0.2,0,0,-0.2,-1.2,0)" />
    </marker>
    <marker
       inkscape:stockid="Arrow1Sstart"
       orient="auto"
       refY="0"
       refX="0"
       id="Arrow1Sstart"
       style="overflow:visible">
      <path
         id="path3204"
         d="M 0,0 L 5,-5 L -12.5,0 L 5,5 L 0,0 z"
         style="fill-rule:evenodd;stroke:#000000;stroke-width:1pt;marker-start:none"
         transform="matrix(0.2,0,0,0.2,1.2,0)" />
    </marker>
    <marker
       style="overflow:visible"
       id="Arrow1Mend"
       refX="0"
       refY="0"
       orient="auto"
       inkscape:stockid="Arrow1Mend">
      <path
         transform="matrix(-0.4,0,0,-0.4,-4,0)"
         style="fill-rule:evenodd;stroke:#000000;stroke-width:1pt;marker-start:none"
         d="M 0,0 L 5,-5 L -12.5,0 L 5,5 L 0,0 z"
         id="path3201" />
    </marker>
    <inkscape:perspective
       id="perspective10"
       inkscape:persp3d-origin="372.04724 : 350.78739 : 1"
       inkscape:vp_z="744.09448 : 526.18109 : 1"
       inkscape:vp_y="6.1230318e-14 : 1000 : 0"
       inkscape:vp_x="0 : 526.18109 : 1"
       sodipodi:type="inkscape:persp3d" />
  </defs>
  <metadata
     id="metadata7">
    <rdf:RDF>
      <cc:Work
         rdf:about="">
        <dc:format>image/svg+xml</dc:format>
        <dc:type
           rdf:resource="http://purl.org/dc/dcmitype/StillImage" />
      </cc:Work>
    </rdf:RDF>
  </metadata>
  <g
     id="layer1"
     inkscape:groupmode="layer"
     inkscape:label="Layer 1"
     transform="translate(81.383965,-55.34417)">
    <rect
       style="opacity:1;fill:#ffffff;fill-opacity:1;fill-rule:nonzero;stroke:none;stroke-width:1;stroke-linecap:round;stroke-linejoin:miter;stroke-miterlimit:10.43299961;stroke-dasharray:none;stroke-dashoffset:0;stroke-opacity:1"
       id="rect8386"
       width="579.19849"
       height="360.98087"
       x="-81.383965"
       y="55.34417" />
    <rect
       ry="0"
       rx="0"
       y="162.92287"
       x="112.63201"
       height="87.378197"
       width="197.9899"
       id="rect3179"
       style="opacity:1;fill:#ffffff;fill-opacity:1;fill-rule:nonzero;stroke:#4a4a4a;stroke-width:1.70000005;stroke-linecap:round;stroke-linejoin:miter;stroke-miterlimit:10.43299961;stroke-dasharray:none;stroke-dashoffset:0;stroke-opacity:1" />
    <path
       d="M 139.40104,206.8645 A 26.516504,43.941635 0 1 1 86.368032,206.8645 A 26.516504,43.941635 0 1 1 139.40104,206.8645 z"
       sodipodi:ry="43.941635"
       sodipodi:rx="26.516504"
       sodipodi:cy="206.8645"
       sodipodi:cx="112.88454"
       id="path2399"
       style="opacity:1;fill:#ffffff;fill-opacity:1;fill-rule:nonzero;stroke:#4a4a4a;stroke-width:1.70000005;stroke-linecap:round;stroke-linejoin:miter;stroke-miterlimit:10.43299961;stroke-dasharray:none;stroke-dashoffset:0;stroke-opacity:1"
       sodipodi:type="arc" />
    <path
       sodipodi:open="true"
       sodipodi:end="4.7234361"
       sodipodi:start="1.6189319"
       transform="matrix(-1,0,0,1,420.01078,6.6406255e-7)"
       d="M 111.60864,250.75524 A 26.516504,43.941635 0 0 1 113.17746,162.92555"
       sodipodi:ry="43.941635"
       sodipodi:rx="26.516504"
       sodipodi:cy="206.8645"
       sodipodi:cx="112.88454"
       id="path3177"
       style="opacity:1;fill:#ffffff;fill-opacity:1;fill-rule:nonzero;stroke:#4a4a4a;stroke-width:1.70000005;stroke-linecap:round;stroke-linejoin:miter;stroke-miterlimit:10.43299961;stroke-dasharray:none;stroke-dashoffset:0;stroke-opacity:1"
       sodipodi:type="arc" />
    <g
       id="g4536">
      <path
         style="opacity:1;fill:#4a4a4a;fill-opacity:1;fill-rule:nonzero;stroke:none;stroke-width:1.70000005;stroke-linecap:round;stroke-linejoin:miter;stroke-miterlimit:10.43299961;stroke-dasharray:none;stroke-dashoffset:0;stroke-opacity:1"
         d="M -46.96875,206 C -47.44337,206 -47.828125,206.38476 -47.828125,206.85938 C -47.828125,207.33399 -47.44337,207.71875 -46.96875,207.71875 L 29.8125,207.71875 L 111.625,207.71875 C 112.09962,207.71875 112.48438,207.33399 112.48438,206.85938 C 112.48438,206.38476 112.09962,206 111.625,206 L 29.8125,206 L -46.96875,206 z"
         id="path3185" />
      <path
         id="path4542"
         d="M 22.999501,206.8645 L 19.599501,210.2645 L 31.499501,206.8645 L 19.599501,203.4645 L 22.999501,206.8645 z"
         style="fill-rule:evenodd;stroke:#000000;stroke-width:0.4pt;marker-start:none" />
    </g>
    <g
       id="g4528">
      <path
         style="opacity:1;fill:#4a4a4a;fill-opacity:1;fill-rule:nonzero;stroke:none;stroke-width:1.70000005;stroke-linecap:round;stroke-linejoin:miter;stroke-miterlimit:10.43299961;stroke-dasharray:none;stroke-dashoffset:0;stroke-opacity:1"
         d="M 333.84375,206 C 333.36913,206 332.98438,206.38476 332.98438,206.85938 C 332.98438,207.33399 333.36913,207.71875 333.84375,207.71875 L 389.90625,207.71875 L 453.0625,207.71875 C 453.53712,207.71875 453.92188,207.33399 453.92188,206.85938 C 453.92188,206.38476 453.53712,206 453.0625,206 L 389.90625,206 L 333.84375,206 z"
         id="path3187" />
      <path
         id="path4534"
         d="M 383.1189,206.8645 L 379.7189,210.2645 L 391.6189,206.8645 L 379.7189,203.4645 L 383.1189,206.8645 z"
         style="fill-rule:evenodd;stroke:#000000;stroke-width:0.4pt;marker-start:none" />
    </g>
    <g
       transform="matrix(3.5,0,0,-3.5,-761.11423,2668.9417)"
       xml:space="preserve"
       style="font-style:normal;font-variant:normal;font-weight:normal;font-stretch:normal;letter-spacing:normal;word-spacing:normal;text-anchor:start;fill:none;fill-opacity:1;fill-rule:evenodd;stroke:#000000;stroke-linecap:butt;stroke-linejoin:miter;stroke-miterlimit:10.43299961;stroke-dasharray:none;stroke-dashoffset:0;stroke-opacity:1"
       ns0:text="$\nI\n$"
       ns0:preamble=""
       id="g4575">
<path
   d="M 227.16,713.16 L 227.17,713.19 L 227.18,713.22 L 227.18,713.25 L 227.19,713.28 L 227.2,713.31 L 227.21,713.34 L 227.22,713.36 L 227.23,713.38 L 227.24,713.4 L 227.25,713.42 L 227.26,713.44 L 227.28,713.46 L 227.29,713.48 L 227.31,713.49 L 227.33,713.51 L 227.35,713.52 L 227.37,713.54 L 227.4,713.55 L 227.43,713.56 L 227.46,713.57 L 227.49,713.58 L 227.51,713.58 L 227.52,713.58 L 227.54,713.59 L 227.56,713.59 L 227.58,713.59 L 227.6,713.6 L 227.63,713.6 L 227.65,713.6 L 227.67,713.6 L 227.7,713.61 L 227.72,713.61 L 227.75,713.61 L 227.78,713.61 L 227.8,713.61 L 227.83,713.61 L 227.86,713.62 L 227.89,713.62 L 227.93,713.62 L 227.96,713.62 L 227.99,713.62 L 228.03,713.62 L 228.07,713.62 C 228.3,713.62 228.38,713.62 228.38,713.81 C 228.38,713.93 228.27,713.93 228.23,713.93 C 227.95,713.93 227.21,713.9 226.92,713.9 C 226.62,713.9 225.89,713.93 225.59,713.93 C 225.52,713.93 225.4,713.93 225.4,713.73 C 225.4,713.62 225.49,713.62 225.67,713.62 C 226.09,713.62 226.36,713.62 226.36,713.43 C 226.36,713.38 226.36,713.36 226.34,713.27 L 225,707.9 C 224.91,707.53 224.88,707.43 224.09,707.43 C 223.86,707.43 223.77,707.43 223.77,707.23 C 223.77,707.12 223.89,707.12 223.92,707.12 C 224.21,707.12 224.94,707.15 225.23,707.15 C 225.52,707.15 226.26,707.12 226.56,707.12 C 226.64,707.12 226.76,707.12 226.76,707.31 C 226.76,707.43 226.68,707.43 226.46,707.43 C 226.28,707.43 226.23,707.43 226.03,707.45 C 225.82,707.47 225.78,707.51 225.78,707.62 C 225.78,707.7 225.8,707.78 225.82,707.85 L 227.16,713.16 z"
   style="fill:#000000;stroke-width:0"
   id="path4577" />
</g>    <path
       id="path4674"
       d="M 111.53125,136.3125 C 111.10336,136.38348 110.79752,136.76521 110.82158,137.19828 C 110.84564,137.63135 111.19188,137.97686 111.625,138 L 311.125,138 C 311.45113,138.04004 311.77113,137.88854 311.94687,137.61091 C 312.12261,137.33328 312.12261,136.97922 311.94687,136.70159 C 311.77113,136.42396 311.45113,136.27246 311.125,136.3125 L 111.625,136.3125 C 111.59377,136.31078 111.56248,136.31078 111.53125,136.3125 z"
       style="fill:#4a4a4a;fill-opacity:1;fill-rule:nonzero;stroke:none;stroke-width:1.70000005;stroke-linecap:round;stroke-linejoin:miter;stroke-miterlimit:10.43299961;stroke-dasharray:none;stroke-dashoffset:0;stroke-opacity:1" />
    <path
       style="fill-rule:evenodd;stroke:#000000;stroke-width:0.4pt;marker-start:none"
       d="M 304.32698,137.16397 L 300.92698,140.56397 L 312.82698,137.16397 L 300.92698,133.76397 L 304.32698,137.16397 z"
       id="path5197" />
    <path
       id="path5201"
       d="M 109.83125,275.71355 C 109.40336,275.78453 109.09752,276.16626 109.12158,276.59933 C 109.14564,277.0324 109.49188,277.37791 109.925,277.40105 L 309.425,277.40105 C 309.75113,277.44109 310.07113,277.28959 310.24687,277.01196 C 310.42261,276.73433 310.42261,276.38027 310.24687,276.10264 C 310.07113,275.82501 309.75113,275.67351 309.425,275.71355 L 109.925,275.71355 C 109.89377,275.71183 109.86248,275.71183 109.83125,275.71355 z"
       style="fill:#4a4a4a;fill-opacity:1;fill-rule:nonzero;stroke:none;stroke-width:1.70000005;stroke-linecap:round;stroke-linejoin:miter;stroke-miterlimit:10.43299961;stroke-dasharray:none;stroke-dashoffset:0;stroke-opacity:1" />
    <path
       style="fill-rule:evenodd;stroke:#000000;stroke-width:0.4pt;marker-start:none"
       d="M 302.62698,276.56502 L 299.22698,279.96502 L 311.12698,276.56502 L 299.22698,273.16502 L 302.62698,276.56502 z"
       id="path5203" />
    <g
       id="g5311"
       ns0:preamble=""
       ns0:text="$\nV\n$"
       style="font-style:normal;font-variant:normal;font-weight:normal;font-stretch:normal;letter-spacing:normal;word-spacing:normal;text-anchor:start;fill:none;fill-opacity:1;fill-rule:evenodd;stroke:#000000;stroke-linecap:butt;stroke-linejoin:miter;stroke-miterlimit:10.43299961;stroke-dasharray:none;stroke-dashoffset:0;stroke-opacity:1"
       xml:space="preserve"
       transform="matrix(3.5,0,0,-3.5,-581.55716,2852.5396)">
<path
   id="path5313"
   style="fill:#000000;stroke-width:0"
   d="M 229.69,712.79 L 229.73,712.86 L 229.78,712.93 L 229.82,712.99 L 229.87,713.05 L 229.91,713.1 L 229.96,713.15 L 230,713.2 L 230.04,713.25 L 230.08,713.29 L 230.13,713.32 L 230.17,713.36 L 230.21,713.39 L 230.25,713.42 L 230.29,713.44 L 230.33,713.47 L 230.37,713.49 L 230.41,713.51 L 230.45,713.52 L 230.49,713.54 L 230.53,713.55 L 230.57,713.56 L 230.6,713.57 L 230.64,713.58 L 230.68,713.59 L 230.71,713.6 L 230.75,713.6 L 230.82,713.61 L 230.89,713.61 L 230.96,713.62 C 231.08,713.63 231.09,713.8 231.09,713.81 C 231.09,713.89 231.04,713.93 230.96,713.93 C 230.71,713.93 230.42,713.9 230.15,713.9 C 229.82,713.9 229.48,713.93 229.16,713.93 C 229.1,713.93 228.97,713.93 228.97,713.74 C 228.97,713.63 229.06,713.62 229.13,713.62 C 229.4,713.6 229.59,713.5 229.59,713.29 C 229.59,713.14 229.44,712.92 229.44,712.91 L 226.38,708.05 L 225.7,713.32 C 225.7,713.49 225.93,713.62 226.39,713.62 C 226.53,713.62 226.64,713.62 226.64,713.82 C 226.64,713.91 226.56,713.93 226.5,713.93 C 226.1,713.93 225.67,713.9 225.27,713.9 C 225.09,713.9 224.9,713.91 224.72,713.91 C 224.54,713.91 224.35,713.93 224.18,713.93 C 224.11,713.93 223.99,713.93 223.99,713.74 C 223.99,713.62 224.08,713.62 224.24,713.62 C 224.8,713.62 224.81,713.53 224.84,713.28 L 225.62,707.13 C 225.65,706.93 225.69,706.9 225.82,706.9 C 225.98,706.9 226.02,706.95 226.1,707.08 L 229.69,712.79 z" />
</g>    <path
       id="path5351"
       d="M 312.4566,338.64759 C 312.88449,338.71857 313.19033,339.1003 313.16627,339.53337 C 313.14221,339.96644 312.79597,340.31195 312.36285,340.33509 L 112.86285,340.33509 C 112.53672,340.37513 112.21672,340.22363 112.04098,339.946 C 111.86524,339.66837 111.86524,339.31431 112.04098,339.03668 C 112.21672,338.75905 112.53672,338.60755 112.86285,338.64759 L 312.36285,338.64759 C 312.39408,338.64587 312.42537,338.64587 312.4566,338.64759 z"
       style="fill:#4a4a4a;fill-opacity:1;fill-rule:nonzero;stroke:none;stroke-width:1.70000005;stroke-linecap:round;stroke-linejoin:miter;stroke-miterlimit:10.43299961;stroke-dasharray:none;stroke-dashoffset:0;stroke-opacity:1" />
    <path
       style="fill-rule:evenodd;stroke:#000000;stroke-width:0.4pt;marker-start:none"
       d="M 119.66087,339.49906 L 123.06087,342.89906 L 111.16087,339.49906 L 123.06087,336.09906 L 119.66087,339.49906 z"
       id="path5353" />
    <g
       transform="matrix(3.5,0,0,-3.5,-402.35377,2668.9417)"
       xml:space="preserve"
       style="font-style:normal;font-variant:normal;font-weight:normal;font-stretch:normal;letter-spacing:normal;word-spacing:normal;text-anchor:start;fill:none;fill-opacity:1;fill-rule:evenodd;stroke:#000000;stroke-linecap:butt;stroke-linejoin:miter;stroke-miterlimit:10.43299961;stroke-dasharray:none;stroke-dashoffset:0;stroke-opacity:1"
       ns0:text="$\nI\n$"
       ns0:preamble=""
       id="g5355">
<path
   d="M 227.16,713.16 L 227.17,713.19 L 227.18,713.22 L 227.18,713.25 L 227.19,713.28 L 227.2,713.31 L 227.21,713.34 L 227.22,713.36 L 227.23,713.38 L 227.24,713.4 L 227.25,713.42 L 227.26,713.44 L 227.28,713.46 L 227.29,713.48 L 227.31,713.49 L 227.33,713.51 L 227.35,713.52 L 227.37,713.54 L 227.4,713.55 L 227.43,713.56 L 227.46,713.57 L 227.49,713.58 L 227.51,713.58 L 227.52,713.58 L 227.54,713.59 L 227.56,713.59 L 227.58,713.59 L 227.6,713.6 L 227.63,713.6 L 227.65,713.6 L 227.67,713.6 L 227.7,713.61 L 227.72,713.61 L 227.75,713.61 L 227.78,713.61 L 227.8,713.61 L 227.83,713.61 L 227.86,713.62 L 227.89,713.62 L 227.93,713.62 L 227.96,713.62 L 227.99,713.62 L 228.03,713.62 L 228.07,713.62 C 228.3,713.62 228.38,713.62 228.38,713.81 C 228.38,713.93 228.27,713.93 228.23,713.93 C 227.95,713.93 227.21,713.9 226.92,713.9 C 226.62,713.9 225.89,713.93 225.59,713.93 C 225.52,713.93 225.4,713.93 225.4,713.73 C 225.4,713.62 225.49,713.62 225.67,713.62 C 226.09,713.62 226.36,713.62 226.36,713.43 C 226.36,713.38 226.36,713.36 226.34,713.27 L 225,707.9 C 224.91,707.53 224.88,707.43 224.09,707.43 C 223.86,707.43 223.77,707.43 223.77,707.23 C 223.77,707.12 223.89,707.12 223.92,707.12 C 224.21,707.12 224.94,707.15 225.23,707.15 C 225.52,707.15 226.26,707.12 226.56,707.12 C 226.64,707.12 226.76,707.12 226.76,707.31 C 226.76,707.43 226.68,707.43 226.46,707.43 C 226.28,707.43 226.23,707.43 226.03,707.45 C 225.82,707.47 225.78,707.51 225.78,707.62 C 225.78,707.7 225.8,707.78 225.82,707.85 L 227.16,713.16 z"
   style="fill:#000000;stroke-width:0"
   id="path5357" />
</g>    <g
       transform="matrix(3.5,0,0,-3.5,-581.15077,2600.2629)"
       xml:space="preserve"
       style="font-style:normal;font-variant:normal;font-weight:normal;font-stretch:normal;letter-spacing:normal;word-spacing:normal;text-anchor:start;fill:none;fill-opacity:1;fill-rule:evenodd;stroke:#000000;stroke-linecap:butt;stroke-linejoin:miter;stroke-miterlimit:10.43299961;stroke-dasharray:none;stroke-dashoffset:0;stroke-opacity:1"
       ns0:text="$\n\\mathbf{E}\n$"
       ns0:preamble=""
       id="g5396">
<path
   d="M 230.63,709.85 L 230.17,709.85 C 229.95,708.48 229.67,707.59 227.83,707.59 L 226.31,707.59 L 226.31,710.4 L 226.86,710.4 C 227.82,710.4 227.92,709.97 227.92,709.23 L 228.38,709.23 L 228.38,712.03 L 227.92,712.03 C 227.92,711.3 227.83,710.87 226.86,710.87 L 226.31,710.87 L 226.31,713.43 L 227.83,713.43 C 229.43,713.43 229.69,712.7 229.85,711.5 L 230.32,711.5 L 230.01,713.9 L 223.82,713.9 L 223.82,713.43 L 224.9,713.43 L 224.9,707.59 L 223.82,707.59 L 223.82,707.12 L 230.18,707.12 L 230.63,709.85 z"
   style="fill:#000000;stroke-width:0"
   id="path5398" />
</g>    <g
       id="g5462"
       ns0:preamble=""
       ns0:text="$\n\\mathbf{J}\n$"
       style="font-style:normal;font-variant:normal;font-weight:normal;font-stretch:normal;letter-spacing:normal;word-spacing:normal;text-anchor:start;fill:none;fill-opacity:1;fill-rule:evenodd;stroke:#000000;stroke-linecap:butt;stroke-linejoin:miter;stroke-miterlimit:10.43299961;stroke-dasharray:none;stroke-dashoffset:0;stroke-opacity:1"
       xml:space="preserve"
       transform="matrix(3.5,0,0,-3.5,-579.45716,2781.0802)">
<path
   id="path5464"
   style="fill:#000000;stroke-width:0"
   d="M 227.88,713.49 L 228.68,713.49 L 228.68,713.96 C 228.33,713.93 227.49,713.93 227.1,713.93 C 226.57,713.93 225.59,713.93 225.12,713.96 L 225.12,713.49 L 226.52,713.49 L 226.52,708.61 C 226.52,708.42 226.52,707.37 225.54,707.37 C 225.37,707.37 225.04,707.4 224.73,707.54 C 224.73,707.54 225.19,707.73 225.19,708.26 C 225.19,708.8 224.76,709.03 224.43,709.03 C 224.06,709.03 223.66,708.78 223.66,708.26 C 223.66,707.49 224.45,707.01 225.58,707.01 C 226.92,707.01 227.88,707.58 227.88,708.62 L 227.88,713.49 z" />
</g>    <g
       id="g8156">
      <path
         style="opacity:1;fill:#4a4a4a;fill-opacity:1;fill-rule:nonzero;stroke:none;stroke-width:0.99999994;stroke-linecap:round;stroke-linejoin:miter;stroke-miterlimit:10.43299961;stroke-dasharray:none;stroke-dashoffset:0;stroke-opacity:1"
         d="M 136.25,182.625 C 135.97386,182.65952 135.77798,182.91136 135.8125,183.1875 C 135.84702,183.46364 136.09886,183.65952 136.375,183.625 L 328.3125,183.625 C 328.49282,183.62755 328.66054,183.53281 328.75144,183.37706 C 328.84234,183.22131 328.84234,183.02869 328.75144,182.87294 C 328.66054,182.71719 328.49282,182.62245 328.3125,182.625 L 136.375,182.625 C 136.3335,182.61977 136.2915,182.61977 136.25,182.625 z"
         id="path5499" />
      <path
         style="fill-rule:evenodd;stroke:#000000;stroke-width:0.4pt;marker-start:none"
         d="M 140.36284,183.12591 L 142.36284,181.12591 L 135.36284,183.12591 L 142.36284,185.12591 L 140.36284,183.12591 z"
         id="path8162" />
      <path
         id="path8164"
         d="M 324.30733,183.12591 L 322.30733,185.12591 L 329.30733,183.12591 L 322.30733,181.12591 L 324.30733,183.12591 z"
         style="fill-rule:evenodd;stroke:#000000;stroke-width:0.4pt;marker-start:none" />
    </g>
    <g
       id="g8166">
      <path
         style="opacity:1;fill:#4a4a4a;fill-opacity:1;fill-rule:nonzero;stroke:none;stroke-width:1;stroke-linecap:round;stroke-linejoin:miter;stroke-miterlimit:10.43299961;stroke-dasharray:none;stroke-dashoffset:0;stroke-opacity:1"
         d="M 331.1875,225.0625 C 330.91136,225.10565 330.72248,225.36448 330.76563,225.64062 C 330.80877,225.91677 331.06761,226.10565 331.34375,226.0625 L 363.875,226.0625 L 393.03125,278.3125 C 393.10108,278.49272 393.26852,278.61657 393.4613,278.63057 C 393.65407,278.64457 393.83765,278.54622 393.93279,278.37798 C 394.02793,278.20974 394.0176,278.00173 393.90625,277.84375 L 364.59375,225.3125 L 364.46875,225.0625 L 364.15625,225.0625 L 331.34375,225.0625 C 331.29199,225.05431 331.23926,225.05431 331.1875,225.0625 z"
         id="path7621" />
      <path
         style="fill-rule:evenodd;stroke:#000000;stroke-width:0.4pt;marker-start:none"
         d="M 335.33004,225.55232 L 337.33004,223.55232 L 330.33004,225.55232 L 337.33004,227.55232 L 335.33004,225.55232 z"
         id="path8172" />
    </g>
    <g
       transform="matrix(3.5,0,0,-3.5,-382.22745,2767.5632)"
       xml:space="preserve"
       style="font-style:normal;font-variant:normal;font-weight:normal;font-stretch:normal;letter-spacing:normal;word-spacing:normal;text-anchor:start;fill:none;fill-opacity:1;fill-rule:evenodd;stroke:#000000;stroke-linecap:butt;stroke-linejoin:miter;stroke-miterlimit:10.43299961;stroke-dasharray:none;stroke-dashoffset:0;stroke-opacity:1"
       ns0:text="$\na\n$"
       ns0:preamble=""
       id="g8231">
<path
   d="M 227.15,710.89 L 227.13,710.92 L 227.11,710.96 L 227.1,710.99 L 227.08,711.02 L 227.06,711.05 L 227.04,711.08 L 227.01,711.11 L 226.99,711.14 L 226.97,711.17 L 226.95,711.2 L 226.92,711.23 L 226.9,711.25 L 226.87,711.28 L 226.85,711.3 L 226.82,711.32 L 226.79,711.35 L 226.76,711.37 L 226.73,711.39 L 226.7,711.4 L 226.67,711.42 L 226.64,711.44 L 226.61,711.45 L 226.57,711.47 L 226.54,711.48 L 226.5,711.49 L 226.47,711.5 L 226.43,711.51 L 226.39,711.51 L 226.35,711.52 L 226.31,711.52 L 226.27,711.53 L 226.23,711.53 L 226.24,711.31 C 226.89,711.31 227.03,710.49 227.03,710.43 C 227.03,710.37 227.01,710.31 227,710.26 L 226.5,708.31 C 226.45,708.13 226.45,708.11 226.3,707.94 C 225.86,707.39 225.46,707.23 225.18,707.23 C 224.68,707.23 224.54,707.78 224.54,708.17 C 224.54,708.67 224.86,709.89 225.09,710.35 C 225.4,710.94 225.84,711.31 226.24,711.31 L 226.23,711.53 C 225.07,711.53 223.83,710.06 223.83,708.61 C 223.83,707.67 224.38,707.01 225.16,707.01 C 225.35,707.01 225.85,707.05 226.45,707.76 C 226.53,707.34 226.88,707.01 227.36,707.01 C 227.71,707.01 227.94,707.24 228.1,707.56 C 228.26,707.92 228.39,708.53 228.39,708.55 C 228.39,708.65 228.3,708.65 228.27,708.65 C 228.18,708.65 228.16,708.61 228.13,708.47 C 227.96,707.82 227.79,707.23 227.38,707.23 C 227.11,707.23 227.08,707.49 227.08,707.69 C 227.08,707.91 227.1,707.99 227.21,708.43 C 227.32,708.85 227.34,708.95 227.43,709.32 C 227.6,709.96 227.64,710.15 227.79,710.72 C 227.86,711 227.86,711.02 227.86,711.06 C 227.86,711.23 227.74,711.33 227.57,711.33 C 227.33,711.33 227.18,711.11 227.15,710.89 z"
   style="fill:#000000;stroke-width:0"
   id="path8233" />
</g>    <g
       id="g8333"
       ns0:preamble=""
       ns0:text="$\nl\n$"
       style="font-style:normal;font-variant:normal;font-weight:normal;font-stretch:normal;letter-spacing:normal;word-spacing:normal;text-anchor:start;fill:none;fill-opacity:1;fill-rule:evenodd;stroke:#000000;stroke-linecap:butt;stroke-linejoin:miter;stroke-miterlimit:10.43299961;stroke-dasharray:none;stroke-dashoffset:0;stroke-opacity:1"
       xml:space="preserve"
       transform="matrix(3.5,0,0,-3.5,-559.50923,2686.2459)">
<path
   id="path8335"
   style="fill:#000000;stroke-width:0"
   d="M 226,713.93 L 226,713.93 L 226,713.93 L 226,713.93 L 226,713.93 L 226,713.93 L 226,713.94 L 226,713.94 L 226,713.94 L 226,713.95 L 226,713.95 L 226,713.96 L 226,713.96 L 226,713.97 L 225.99,713.97 L 225.99,713.98 L 225.99,713.98 L 225.99,713.99 L 225.98,713.99 L 225.98,714 L 225.98,714 L 225.97,714 L 225.97,714.01 L 225.97,714.01 L 225.96,714.01 L 225.96,714.01 L 225.96,714.02 L 225.95,714.02 L 225.95,714.02 L 225.95,714.02 L 225.94,714.02 L 225.94,714.02 L 225.94,714.03 L 225.93,714.03 L 225.93,714.03 L 225.92,714.03 L 225.92,714.03 L 225.92,714.03 L 225.91,714.03 L 225.91,714.03 L 225.9,714.04 L 225.9,714.04 L 225.89,714.04 L 225.88,714.04 L 225.88,714.04 L 225.87,714.04 C 225.64,714.04 224.92,713.96 224.66,713.94 C 224.58,713.93 224.47,713.92 224.47,713.73 C 224.47,713.62 224.57,713.62 224.72,713.62 C 225.2,713.62 225.21,713.53 225.21,713.45 L 225.18,713.25 L 223.92,708.27 C 223.89,708.16 223.87,708.09 223.87,707.93 C 223.87,707.36 224.31,707.01 224.78,707.01 C 225.11,707.01 225.35,707.21 225.52,707.57 C 225.7,707.95 225.82,708.53 225.82,708.55 C 225.82,708.65 225.73,708.65 225.7,708.65 C 225.6,708.65 225.59,708.61 225.56,708.47 C 225.4,707.82 225.21,707.23 224.81,707.23 C 224.51,707.23 224.51,707.55 224.51,707.69 C 224.51,707.93 224.52,707.98 224.57,708.17 L 226,713.93 z" />
</g>  </g>
</svg>
